<?xml version="1.0" encoding="UTF-8" standalone="no"?>
<!-- Created with Inkscape (http://www.inkscape.org/) -->

<svg
   xmlns:dc="http://purl.org/dc/elements/1.1/"
   xmlns:cc="http://creativecommons.org/ns#"
   xmlns:rdf="http://www.w3.org/1999/02/22-rdf-syntax-ns#"
   xmlns:svg="http://www.w3.org/2000/svg"
   xmlns="http://www.w3.org/2000/svg"
   xmlns:sodipodi="http://sodipodi.sourceforge.net/DTD/sodipodi-0.dtd"
   xmlns:inkscape="http://www.inkscape.org/namespaces/inkscape"
   width="7.75in"
   height="5.1300001in"
   viewBox="0 0 196.85 130.30201"
   version="1.1"
   id="svg8"
   inkscape:version="0.92.4 (5da689c313, 2019-01-14)"
   sodipodi:docname="5x7 Sticker Sheet.svg">
  <defs
     id="defs2" />
  <sodipodi:namedview
     id="base"
     pagecolor="#ffffff"
     bordercolor="#666666"
     borderopacity="1.0"
     inkscape:pageopacity="0.0"
     inkscape:pageshadow="2"
     inkscape:zoom="2"
     inkscape:cx="390.16067"
     inkscape:cy="290.33276"
     inkscape:document-units="in"
     inkscape:current-layer="layer1"
     showgrid="false"
     units="in"
     inkscape:window-width="3832"
     inkscape:window-height="2093"
     inkscape:window-x="0"
     inkscape:window-y="28"
     inkscape:window-maximized="0" />
  <metadata
     id="metadata5">
    <rdf:RDF>
      <cc:Work
         rdf:about="">
        <dc:format>image/svg+xml</dc:format>
        <dc:type
           rdf:resource="http://purl.org/dc/dcmitype/StillImage" />
        <dc:title></dc:title>
      </cc:Work>
    </rdf:RDF>
  </metadata>
  <g
     inkscape:label="Layer 1"
     inkscape:groupmode="layer"
     id="layer1"
     transform="translate(0,-166.69798)">
    <path
       style="fill:#231f20;fill-opacity:1;fill-rule:nonzero;stroke:none;stroke-width:0.03592506"
       d="m 161.60934,227.39651 c -0.0239,-0.29905 -1.05019,-1.52499 -1.05019,-1.52499 l -0.28652,0.43464 c -0.47787,0.72423 -1.87524,1.02926 -1.42335,0.3107 0.24353,-0.38725 0.11423,-0.60838 -1.06552,-1.82059 -0.52166,-0.536 -1.13813,-1.25224 -1.36976,-1.59167 l -0.42092,-0.61717 -0.49148,0.32168 c -0.66549,0.43565 -0.71345,0.41795 -0.84134,-0.30722 -0.0612,-0.34698 -0.20944,-0.97157 -0.32941,-1.38794 -0.11994,-0.41639 -0.30212,-1.06865 -0.40472,-1.44954 l -0.18652,-0.69248 -1.18596,0.0843 c -1.17514,0.0835 -1.39964,-0.0182 -0.97401,-0.44037 0.24902,-0.24701 0.41904,-4.9042 0.17904,-4.9042 -0.20148,0 -1.35751,0.59068 -1.68618,0.86154 -0.23662,0.19499 -0.25739,-0.0221 -0.20349,-2.13079 0.0464,-1.81546 0.1271,-2.47777 0.35585,-2.92052 0.39821,-0.7708 0.3777,-0.85731 -0.203,-0.85731 -0.28328,0 -0.70404,-0.17565 -0.97399,-0.40646 -0.43757,-0.37412 -0.47501,-0.50079 -0.47454,-1.59517 8.4e-4,-1.04586 0.0515,-1.23769 0.42343,-1.59615 0.48253,-0.4651 1.52409,-0.75874 1.52409,-0.42965 0,0.1128 -0.13042,0.2997 -0.28977,0.41543 -0.23871,0.17334 -0.25635,0.28372 -0.0992,0.62614 0.43163,0.94067 1.33347,0.58029 1.71537,-0.68549 0.10521,-0.34863 0.46095,-0.94677 0.79072,-1.32934 0.32977,-0.38259 0.54109,-0.72915 0.46954,-0.77003 -0.0715,-0.0409 -0.64537,-0.0813 -1.27498,-0.0898 -2.56886,-0.0345 -4.55119,-1.08742 -5.19021,-2.75644 -0.12816,-0.33494 -0.12006,-0.49069 0.0307,-0.587 0.55468,-0.35424 2.54195,-1.09469 3.63669,-1.35504 0.87505,-0.20808 1.20435,-0.35664 1.14358,-0.51617 -0.047,-0.12323 -0.0853,-0.44685 -0.0853,-0.71916 0,-0.36945 -0.10442,-0.53466 -0.41146,-0.65059 -0.5186,-0.19579 -1.19816,-1.17865 -1.55752,-2.25298 -0.16463,-0.49222 -0.5037,-1.02562 -0.83659,-1.31588 -0.67448,-0.58806 -1.26052,-1.72952 -1.26052,-2.45521 0,-0.37578 -0.10986,-0.58802 -0.37779,-0.73039 -0.7483,-0.39769 -1.31639,-1.31893 -1.31639,-2.13453 0,-0.32398 -0.14135,-0.59495 -0.41792,-0.8012 -0.41873,-0.31225 -0.65199,-0.76337 -0.84209,-1.62808 -0.056,-0.25446 -0.19637,-0.46282 -0.31196,-0.46282 -0.5529,0 -1.97104,-3.34846 -1.64204,-3.87707 0.22842,-0.36701 1.26855,0.29554 2.05947,1.31164 0.37813,0.48578 0.78204,0.88324 0.89746,0.88324 0.36808,0 1.44428,1.1417 1.54429,1.63831 0.0632,0.31376 0.26318,0.55222 0.58002,0.69148 0.29825,0.13109 0.62332,0.49923 0.84808,0.96028 0.20044,0.41117 0.46604,0.74759 0.59023,0.74759 0.29947,0 1.41615,1.28751 1.71437,1.97669 0.13016,0.30072 0.31225,0.54686 0.40472,0.54686 0.32816,0 1.68701,1.53601 1.82432,2.06221 0.0834,0.31984 0.27593,0.57062 0.47903,0.62415 0.53046,0.13988 1.15566,0.70273 1.658,1.49294 0.38235,0.60147 0.5025,0.68945 0.70944,0.51892 0.20153,-0.16611 0.32508,-0.13431 0.64734,0.16632 l 0.39823,0.37155 0.37429,-0.60171 c 0.20593,-0.33087 0.72983,-0.83835 1.16402,-1.12787 1.10765,-0.73857 1.5128,-1.19427 1.99813,-2.24699 0.4708,-1.02133 0.60812,-1.15551 1.04158,-1.01889 0.36188,0.11406 1.22263,1.38973 1.22263,1.81186 0,0.46456 0.48456,0.36882 1.6969,-0.33514 1.35415,-0.7863 5.43033,-3.71791 6.3505,-4.56731 0.37271,-0.34405 1.02076,-0.8799 1.44006,-1.19095 0.41931,-0.31105 1.16875,-0.96379 1.66548,-1.45053 1.13198,-1.10919 2.37267,-1.74279 3.41302,-1.74279 0.6321,0 0.9964,0.14079 1.95748,0.75606 0.64945,0.41576 1.22959,0.75658 1.28921,0.75706 0.0596,4.8e-4 0.26667,0.33574 0.46031,0.74484 0.19365,0.40909 0.43845,0.79685 0.54386,0.86154 0.43511,0.26704 1.17412,2.1806 1.17425,3.04048 1.3e-4,1.04656 -0.32582,1.51339 -1.64006,2.34823 -0.83951,0.53328 -0.9956,0.73235 -1.61087,2.05549 -0.3747,0.80578 -0.89688,1.92805 -1.16053,2.49387 -0.34597,0.74252 -0.53291,1.51099 -0.67153,2.76192 -0.27647,2.49506 -0.73777,3.75614 -1.93405,5.28598 -0.42674,0.54572 -0.77601,1.09965 -0.77601,1.23084 0,0.47019 2.09339,2.33185 3.22125,2.86492 1.31605,0.62199 3.28235,1.04358 4.86854,1.04358 1.05343,0 2.66775,-0.26068 4.29999,-0.6451 l 5.19794,-8.35611 c 0.11358,-0.30069 0.0862,-0.63624 -0.0743,-0.91466 l -15.08066,-26.12011 c -0.19112,-0.33123 -0.54503,-0.53513 -0.92763,-0.53513 h -30.85126 c -0.38261,0 -0.73665,0.2039 -0.92813,0.53513 l -15.42544,26.71884 c -0.0955,0.16562 -0.14338,0.35071 -0.14338,0.53563 0,0.18493 0.0478,0.36976 0.14338,0.53538 l 15.42551,26.71885 c 0.19148,0.33133 0.54552,0.53562 0.92813,0.53562 0,0 16.20253,-0.002 16.18525,0 -0.0172,0.002 0.026,-2.5e-4 0.0228,-0.04 z m 25.52777,-19.61343 c -27.93621,21.61899 -27.93621,21.61898 0,0"
       id="path846"
       inkscape:connector-curvature="0"
       sodipodi:nodetypes="scccccccccccccscccscccsccccccccccscccscsccsccscccscscccsccccccsccccsccccccccscsssccccssccsccszscc" />
  </g>
</svg>
