<?xml version="1.0" encoding="UTF-8" standalone="no"?>
<!-- Created with Inkscape (http://www.inkscape.org/) -->

<svg
   xmlns:dc="http://purl.org/dc/elements/1.1/"
   xmlns:cc="http://creativecommons.org/ns#"
   xmlns:rdf="http://www.w3.org/1999/02/22-rdf-syntax-ns#"
   xmlns:svg="http://www.w3.org/2000/svg"
   xmlns="http://www.w3.org/2000/svg"
   xmlns:sodipodi="http://sodipodi.sourceforge.net/DTD/sodipodi-0.dtd"
   xmlns:inkscape="http://www.inkscape.org/namespaces/inkscape"
   width="210mm"
   height="297mm"
   viewBox="0 0 210 297"
   version="1.1"
   id="svg8"
   sodipodi:docname="inifiny.svg"
   inkscape:version="0.92.4 (5da689c313, 2019-01-14)"
   inkscape:export-filename="/home/jferg/infinity_back.png"
   inkscape:export-xdpi="298.50699"
   inkscape:export-ydpi="298.50699">
  <defs
     id="defs2" />
  <sodipodi:namedview
     id="base"
     pagecolor="#ffffff"
     bordercolor="#666666"
     borderopacity="1.0"
     inkscape:pageopacity="0.0"
     inkscape:pageshadow="2"
     inkscape:zoom="4"
     inkscape:cx="435.9478"
     inkscape:cy="75.94506"
     inkscape:document-units="mm"
     inkscape:current-layer="layer1"
     showgrid="false"
     inkscape:window-width="3832"
     inkscape:window-height="2093"
     inkscape:window-x="0"
     inkscape:window-y="28"
     inkscape:window-maximized="0" />
  <metadata
     id="metadata5">
    <rdf:RDF>
      <cc:Work
         rdf:about="">
        <dc:format>image/svg+xml</dc:format>
        <dc:type
           rdf:resource="http://purl.org/dc/dcmitype/StillImage" />
      </cc:Work>
    </rdf:RDF>
  </metadata>
  <g
     inkscape:label="Layer 1"
     inkscape:groupmode="layer"
     id="layer1">
    <path
       inkscape:connector-curvature="0"
       id="path1990"
       style="font-style:normal;font-variant:normal;font-weight:normal;font-stretch:normal;font-size:50.79999924px;line-height:1.25;font-family:Hexa;-inkscape-font-specification:Hexa;font-variant-ligatures:normal;font-variant-caps:normal;font-variant-numeric:normal;font-feature-settings:normal;text-align:start;letter-spacing:0px;word-spacing:0px;writing-mode:lr-tb;text-anchor:start;stroke-width:0.26458332"
       d="m 47.167495,41.282476 18.542,11.0236 0.0508,8.5852 -10.8204,6.299199 -10.7696,-6.299199 2.9972,-1.8288 7.7724,4.6228 7.7724,-4.6228 v -5.0292 l -18.4912,-11.0236 -0.0508,-6.2484 10.7696,-6.4008 10.8204,6.4008 -3.048,1.8288 -7.7724,-4.6736 -7.7724,4.6736 z"
       inkscape:export-filename="/home/jferg/infinity_no_text.png"
       inkscape:export-xdpi="298.50699"
       inkscape:export-ydpi="298.50699" />
    <path
       inkscape:connector-curvature="0"
       id="path2001"
       d="m 89.730469,48.154297 -3.121094,1.583984 5.697266,11.220703 3.121093,-1.585937 z"
       style="color:#000000;font-style:normal;font-variant:normal;font-weight:normal;font-stretch:normal;font-size:medium;line-height:1.25;font-family:Minecraft;-inkscape-font-specification:'Minecraft, Medium';font-variant-ligatures:normal;font-variant-position:normal;font-variant-caps:normal;font-variant-numeric:normal;font-variant-alternates:normal;font-feature-settings:normal;text-indent:0;text-align:start;text-decoration:none;text-decoration-line:none;text-decoration-style:solid;text-decoration-color:#000000;letter-spacing:0px;word-spacing:0px;text-transform:none;writing-mode:lr-tb;direction:ltr;text-orientation:mixed;dominant-baseline:auto;baseline-shift:baseline;text-anchor:start;white-space:normal;shape-padding:0;clip-rule:nonzero;display:inline;overflow:visible;visibility:visible;opacity:1;isolation:auto;mix-blend-mode:normal;color-interpolation:sRGB;color-interpolation-filters:linearRGB;solid-color:#000000;solid-opacity:1;vector-effect:none;fill:#a0a0a0;fill-opacity:1;fill-rule:nonzero;stroke:#fefefe;stroke-width:0.5;stroke-linecap:butt;stroke-linejoin:miter;stroke-miterlimit:4;stroke-dasharray:none;stroke-dashoffset:0;stroke-opacity:1;color-rendering:auto;image-rendering:auto;shape-rendering:auto;text-rendering:auto;enable-background:accumulate"
       inkscape:export-filename="/home/jferg/infinity_no_text.png"
       inkscape:export-xdpi="298.50699"
       inkscape:export-ydpi="298.50699" />
    <path
       inkscape:connector-curvature="0"
       id="path2003"
       d="m 92.318359,48.236328 -5.740234,11.056641 3.107422,1.611328 5.738281,-11.054688 z"
       style="color:#000000;font-style:normal;font-variant:normal;font-weight:normal;font-stretch:normal;font-size:medium;line-height:1.25;font-family:Minecraft;-inkscape-font-specification:'Minecraft, Medium';font-variant-ligatures:normal;font-variant-position:normal;font-variant-caps:normal;font-variant-numeric:normal;font-variant-alternates:normal;font-feature-settings:normal;text-indent:0;text-align:start;text-decoration:none;text-decoration-line:none;text-decoration-style:solid;text-decoration-color:#000000;letter-spacing:0px;word-spacing:0px;text-transform:none;writing-mode:lr-tb;direction:ltr;text-orientation:mixed;dominant-baseline:auto;baseline-shift:baseline;text-anchor:start;white-space:normal;shape-padding:0;clip-rule:nonzero;display:inline;overflow:visible;visibility:visible;opacity:1;isolation:auto;mix-blend-mode:normal;color-interpolation:sRGB;color-interpolation-filters:linearRGB;solid-color:#000000;solid-opacity:1;vector-effect:none;fill:#a0a0a0;fill-opacity:1;fill-rule:nonzero;stroke:#fefefe;stroke-width:0.5;stroke-linecap:butt;stroke-linejoin:miter;stroke-miterlimit:4;stroke-dasharray:none;stroke-dashoffset:0;stroke-opacity:1;color-rendering:auto;image-rendering:auto;shape-rendering:auto;text-rendering:auto;enable-background:accumulate"
       inkscape:export-filename="/home/jferg/infinity_no_text.png"
       inkscape:export-xdpi="298.50699"
       inkscape:export-ydpi="298.50699" />
    <path
       inkscape:connector-curvature="0"
       id="path1992"
       style="font-style:normal;font-variant:normal;font-weight:normal;font-stretch:normal;font-size:50.79999924px;line-height:1.25;font-family:Hexa;-inkscape-font-specification:Hexa;font-variant-ligatures:normal;font-variant-caps:normal;font-variant-numeric:normal;font-feature-settings:normal;text-align:start;letter-spacing:0px;word-spacing:0px;writing-mode:lr-tb;text-anchor:start;fill:#000000;fill-opacity:1;stroke:#fefefe;stroke-width:0.5;stroke-miterlimit:4;stroke-dasharray:none;stroke-opacity:1"
       d="m 89.71805,49.816876 -17.018,10.2108 6.2992,3.6576 7.8232,-4.572 2.8956,1.778 -10.7188,6.299199 -10.7188,-6.299199 v -12.7508 l 10.7188,-6.4008 10.7188,6.4008 z m -18.3896,0.1016 v 7.4676 l 13.97,-8.3312 -6.2992,-3.81 z"
       inkscape:export-filename="/home/jferg/infinity_no_text.png"
       inkscape:export-xdpi="298.50699"
       inkscape:export-ydpi="298.50699" />
    <path
       inkscape:connector-curvature="0"
       id="path2005"
       d="m 113.81055,48.230469 -3.04883,0.002 0.0137,12.724609 3.05078,-0.002 z"
       style="color:#000000;font-style:normal;font-variant:normal;font-weight:normal;font-stretch:normal;font-size:medium;line-height:1.25;font-family:Minecraft;-inkscape-font-specification:'Minecraft, Medium';font-variant-ligatures:normal;font-variant-position:normal;font-variant-caps:normal;font-variant-numeric:normal;font-variant-alternates:normal;font-feature-settings:normal;text-indent:0;text-align:start;text-decoration:none;text-decoration-line:none;text-decoration-style:solid;text-decoration-color:#000000;letter-spacing:0px;word-spacing:0px;text-transform:none;writing-mode:lr-tb;direction:ltr;text-orientation:mixed;dominant-baseline:auto;baseline-shift:baseline;text-anchor:start;white-space:normal;shape-padding:0;clip-rule:nonzero;display:inline;overflow:visible;visibility:visible;opacity:1;isolation:auto;mix-blend-mode:normal;color-interpolation:sRGB;color-interpolation-filters:linearRGB;solid-color:#000000;solid-opacity:1;vector-effect:none;fill:#a0a0a0;fill-opacity:1;fill-rule:nonzero;stroke:#fefefe;stroke-width:0.5;stroke-linecap:butt;stroke-linejoin:miter;stroke-miterlimit:4;stroke-dasharray:none;stroke-dashoffset:0;stroke-opacity:1;color-rendering:auto;image-rendering:auto;shape-rendering:auto;text-rendering:auto;enable-background:accumulate"
       inkscape:export-filename="/home/jferg/infinity_no_text.png"
       inkscape:export-xdpi="298.50699"
       inkscape:export-ydpi="298.50699" />
    <path
       inkscape:connector-curvature="0"
       id="path1994"
       style="font-style:normal;font-variant:normal;font-weight:normal;font-stretch:normal;font-size:50.79999924px;line-height:1.25;font-family:Hexa;-inkscape-font-specification:Hexa;font-variant-ligatures:normal;font-variant-caps:normal;font-variant-numeric:normal;font-feature-settings:normal;text-align:start;letter-spacing:0px;word-spacing:0px;writing-mode:lr-tb;text-anchor:start;fill:#000000;fill-opacity:1;stroke:#fefefe;stroke-width:0.5;stroke-miterlimit:4;stroke-dasharray:none;stroke-opacity:1"
       d="m 113.83059,60.942076 -10.8204,6.299199 -10.718801,-6.299199 v 0 0 0 -12.7 l 10.718801,-6.4516 10.8204,6.4516 -3.048,1.778 -7.7724,-4.6736 -7.721601,4.6736 v 9.144 l 7.721601,4.572 7.7724,-4.572 z"
       inkscape:export-filename="/home/jferg/infinity_no_text.png"
       inkscape:export-xdpi="298.50699"
       inkscape:export-ydpi="298.50699" />
    <path
       sodipodi:nodetypes="ccccccccccccccccc"
       inkscape:connector-curvature="0"
       id="path1996"
       style="font-style:normal;font-variant:normal;font-weight:normal;font-stretch:normal;font-size:50.79999924px;line-height:1.25;font-family:Hexa;-inkscape-font-specification:Hexa;font-variant-ligatures:normal;font-variant-caps:normal;font-variant-numeric:normal;font-feature-settings:normal;text-align:start;letter-spacing:0px;word-spacing:0px;writing-mode:lr-tb;text-anchor:start;stroke-width:0.26458332"
       d="m 130.77794,47.581676 8.4328,5.0292 v 12.852399 l -2.9972,1.7272 V 54.287276 l -15.4432,-9.144 v 20.319999 l -2.9972,1.7272 0.3556,-36.829999 2.6416,1.6256 v 9.652 l 7.0104,4.1148 7.0104,-4.1148 0.4064,-11.2776 2.5908,1.6256 v 11.43 z"
       inkscape:export-filename="/home/jferg/infinity_no_text.png"
       inkscape:export-xdpi="298.50699"
       inkscape:export-ydpi="298.50699" />
    <path
       inkscape:connector-curvature="0"
       id="path1998"
       style="font-style:normal;font-variant:normal;font-weight:normal;font-stretch:normal;font-size:50.79999924px;line-height:1.25;font-family:Hexa;-inkscape-font-specification:Hexa;font-variant-ligatures:normal;font-variant-caps:normal;font-variant-numeric:normal;font-feature-settings:normal;text-align:start;letter-spacing:0px;word-spacing:0px;writing-mode:lr-tb;text-anchor:start;stroke-width:0.26458332"
       d="m 152.42112,63.685276 7.8232,-4.6228 2.9972,1.8288 -10.8204,6.299199 -10.7188,-6.299199 v -24.13 l 10.7188,-6.4516 10.8204,6.4516 -2.9972,1.778 -7.8232,-4.6228 -7.7216,4.6228 v 20.5232 z"
       inkscape:export-filename="/home/jferg/infinity_no_text.png"
       inkscape:export-xdpi="298.50699"
       inkscape:export-ydpi="298.50699" />
    <g
       transform="translate(3.0427084,4.762498)"
       id="text2009"
       style="font-style:normal;font-variant:normal;font-weight:normal;font-stretch:normal;font-size:22.57777786px;line-height:1.25;font-family:'BankGothic Md BT';-inkscape-font-specification:'BankGothic Md BT';font-variant-ligatures:normal;font-variant-caps:normal;font-variant-numeric:normal;font-feature-settings:normal;text-align:start;letter-spacing:0px;word-spacing:0px;writing-mode:lr-tb;text-anchor:start;stroke-width:0.07000434"
       aria-label="The World's Largest  Monthly InfoSec Meetup for 8 Years Running"
       inkscape:export-filename="/home/jferg/infinity_with_text.png"
       inkscape:export-xdpi="298.50699"
       inkscape:export-ydpi="298.50699">
      <path
         inkscape:connector-curvature="0"
         id="path2023"
         style="font-size:12.69999981px;line-height:0;text-align:center;text-anchor:middle;stroke-width:0.07000434"
         d="m 34.758268,76.511136 v 5.382617 H 33.23278 v -5.382617 h -3.007568 v -1.172022 h 7.553027 v 1.172022 z" />
      <path
         inkscape:connector-curvature="0"
         id="path2025"
         style="font-size:12.69999981px;line-height:0;text-align:center;text-anchor:middle;stroke-width:0.07000434"
         d="m 39.167301,81.893753 v -5.370215 h 1.32085 v 2.040186 h 4.086572 v -2.040186 h 1.308448 v 5.370215 h -1.308448 v -2.263428 h -4.086572 v 2.263428 z" />
      <path
         inkscape:connector-curvature="0"
         id="path2027"
         style="font-size:12.69999981px;line-height:0;text-align:center;text-anchor:middle;stroke-width:0.07000434"
         d="m 48.295426,81.893753 v -5.370215 h 5.760888 v 0.94878 h -4.440039 v 1.172021 h 2.585889 v 0.923975 h -2.585889 v 1.320849 h 4.508252 v 1.00459 z" />
      <path
         inkscape:connector-curvature="0"
         id="path2029"
         style="font-size:12.69999981px;line-height:0;text-align:center;text-anchor:middle;stroke-width:0.07000434"
         d="m 62.744158,81.893753 -2.523877,-6.554639 h 1.575097 l 1.661914,4.396631 1.74253,-4.396631 h 1.066601 l 1.773535,4.396631 1.5875,-4.396631 h 1.364258 l -2.530078,6.554639 h -1.029394 l -1.804541,-4.533057 -1.829346,4.533057 z" />
      <path
         inkscape:connector-curvature="0"
         id="path2031"
         style="font-size:12.69999981px;line-height:0;text-align:center;text-anchor:middle;stroke-width:0.07000434"
         d="m 73.40707,80.864359 h 4.328418 V 77.509525 H 73.40707 Z m -1.308447,-3.075782 q 0,-0.731738 0.285254,-0.998388 0.285254,-0.266651 1.11001,-0.266651 h 4.154785 q 0.830957,0 1.11001,0.266651 0.285254,0.26665 0.285254,0.998388 v 2.833936 q 0,0.737939 -0.291455,1.00459 -0.285254,0.26665 -1.103809,0.26665 h -4.154785 q -0.824756,0 -1.11001,-0.26665 -0.285254,-0.266651 -0.285254,-1.00459 z" />
      <path
         inkscape:connector-curvature="0"
         id="path2033"
         style="font-size:12.69999981px;line-height:0;text-align:center;text-anchor:middle;stroke-width:0.07000434"
         d="m 85.589276,77.447513 h -2.988965 v 1.488281 h 2.988965 q 0.341064,0 0.465088,-0.09922 0.130224,-0.09922 0.130224,-0.334863 v -0.620117 q 0,-0.235645 -0.130224,-0.334863 -0.124024,-0.09922 -0.465088,-0.09922 z m -4.278809,4.44624 v -5.370215 h 4.836914 q 0.663525,0 0.961182,0.248047 0.297656,0.241846 0.297656,0.79375 v 1.265039 q 0,0.545703 -0.297656,0.787549 -0.297657,0.241846 -0.961182,0.241846 h -0.737939 l 2.554882,2.033984 h -1.878955 l -2.251025,-2.033984 h -1.234033 v 2.033984 z" />
      <path
         inkscape:connector-curvature="0"
         id="path2035"
         style="font-size:12.69999981px;line-height:0;text-align:center;text-anchor:middle;stroke-width:0.07000434"
         d="m 89.570427,81.893753 v -5.370215 h 1.32085 v 4.365625 h 4.210595 v 1.00459 z" />
      <path
         inkscape:connector-curvature="0"
         id="path2037"
         style="font-size:12.69999981px;line-height:0;text-align:center;text-anchor:middle;stroke-width:0.07000434"
         d="m 97.911003,80.889163 h 1.686718 q 1.382859,0 1.934769,-0.403076 0.5519,-0.403076 0.5519,-1.358057 0,-0.830957 -0.45889,-1.234033 -0.45888,-0.409277 -1.40766,-0.409277 h -2.306837 z m -1.32085,1.00459 v -5.370215 h 3.615287 q 1.55649,0 2.38745,0.694532 0.83716,0.68833 0.83716,1.971972 0,1.351856 -0.88677,2.027783 -0.88057,0.675928 -2.666506,0.675928 z" />
      <path
         inkscape:connector-curvature="0"
         id="path2039"
         style="font-size:12.69999981px;line-height:0;text-align:center;text-anchor:middle;stroke-width:0.07000434"
         d="m 105.61906,72.98887 v 3.441651 H 104.7571 V 72.98887 Z" />
      <path
         inkscape:connector-curvature="0"
         id="path2041"
         style="font-size:12.69999981px;line-height:0;text-align:center;text-anchor:middle;stroke-width:0.07000434"
         d="m 112.31633,77.48472 h -3.6959 v 1.134814 h 3.49746 q 0.82475,0 1.11001,0.266651 0.28525,0.260449 0.28525,0.998388 v 0.73794 q 0,0.737939 -0.29145,1.00459 -0.29146,0.26665 -1.10381,0.26665 h -3.48506 q -0.83096,0 -1.12861,-0.26665 -0.29146,-0.266651 -0.29146,-1.00459 v -0.148828 l 1.16582,-0.217041 v 0.632519 h 3.95015 v -1.227832 h -3.47886 q -0.82475,0 -1.11621,-0.26665 -0.29145,-0.272852 -0.29145,-1.00459 v -0.601514 q 0,-0.725537 0.29145,-0.992187 0.29146,-0.272852 1.11621,-0.272852 h 3.1874 q 0.81236,0 1.11001,0.26045 0.30386,0.254248 0.30386,0.905371 v 0.130224 l -1.13481,0.241846 z" />
      <path
         inkscape:connector-curvature="0"
         id="path2043"
         style="font-size:12.69999981px;line-height:0;text-align:center;text-anchor:middle;stroke-width:0.07000434"
         d="m 121.1778,81.893753 v -6.554639 h 1.52548 v 5.320606 h 4.91753 v 1.234033 z" />
      <path
         inkscape:connector-curvature="0"
         id="path2045"
         style="font-size:12.69999981px;line-height:0;text-align:center;text-anchor:middle;stroke-width:0.07000434"
         d="m 128.35255,81.893753 3.18741,-5.370215 h 1.25883 l 3.23702,5.370215 h -1.46968 L 133.8902,80.71553 h -3.55327 l -0.67593,1.178223 z m 2.54248,-2.158008 h 2.46187 l -1.25264,-2.238623 z" />
      <path
         inkscape:connector-curvature="0"
         id="path2047"
         style="font-size:12.69999981px;line-height:0;text-align:center;text-anchor:middle;stroke-width:0.07000434"
         d="m 141.67267,77.447513 h -2.98896 v 1.488281 h 2.98896 q 0.34107,0 0.46509,-0.09922 0.13023,-0.09922 0.13023,-0.334863 v -0.620117 q 0,-0.235645 -0.13023,-0.334863 -0.12402,-0.09922 -0.46509,-0.09922 z m -4.27881,4.44624 v -5.370215 h 4.83692 q 0.66352,0 0.96118,0.248047 0.29766,0.241846 0.29766,0.79375 v 1.265039 q 0,0.545703 -0.29766,0.787549 -0.29766,0.241846 -0.96118,0.241846 h -0.73794 l 2.55488,2.033984 h -1.87895 l -2.25103,-2.033984 h -1.23403 v 2.033984 z" />
      <path
         inkscape:connector-curvature="0"
         id="path2049"
         style="font-size:12.69999981px;line-height:0;text-align:center;text-anchor:middle;stroke-width:0.07000434"
         d="m 150.91862,77.509525 h -4.08658 v 3.354834 h 4.08658 v -1.141016 h -2.13321 v -0.954981 h 3.41685 v 1.854151 q 0,0.737939 -0.29146,1.00459 -0.28525,0.26665 -1.10381,0.26665 h -3.88813 q -0.81856,0 -1.11001,-0.26665 -0.28525,-0.266651 -0.28525,-1.00459 v -2.833936 q 0,-0.731738 0.28525,-0.998388 0.29145,-0.266651 1.11001,-0.266651 h 3.88813 q 0.81236,0 1.10381,0.26045 0.29146,0.260449 0.29146,0.942578 v 0.142627 l -1.28364,0.217041 z" />
      <path
         inkscape:connector-curvature="0"
         id="path2051"
         style="font-size:12.69999981px;line-height:0;text-align:center;text-anchor:middle;stroke-width:0.07000434"
         d="m 154.43468,81.893753 v -5.370215 h 5.76089 v 0.94878 h -4.44004 v 1.172021 h 2.58589 v 0.923975 h -2.58589 v 1.320849 h 4.50825 v 1.00459 z" />
      <path
         inkscape:connector-curvature="0"
         id="path2053"
         style="font-size:12.69999981px;line-height:0;text-align:center;text-anchor:middle;stroke-width:0.07000434"
         d="m 167.10988,77.48472 h -3.6959 v 1.134814 h 3.49747 q 0.82475,0 1.11,0.266651 0.28526,0.260449 0.28526,0.998388 v 0.73794 q 0,0.737939 -0.29146,1.00459 -0.29145,0.26665 -1.1038,0.26665 h -3.48506 q -0.83096,0 -1.12862,-0.26665 -0.29145,-0.266651 -0.29145,-1.00459 v -0.148828 l 1.16582,-0.217041 v 0.632519 h 3.95014 v -1.227832 h -3.47885 q -0.82476,0 -1.11621,-0.26665 -0.29146,-0.272852 -0.29146,-1.00459 v -0.601514 q 0,-0.725537 0.29146,-0.992187 0.29145,-0.272852 1.11621,-0.272852 h 3.1874 q 0.81235,0 1.11001,0.26045 0.30386,0.254248 0.30386,0.905371 v 0.130224 l -1.13482,0.241846 z" />
      <path
         inkscape:connector-curvature="0"
         id="path2055"
         style="font-size:12.69999981px;line-height:0;text-align:center;text-anchor:middle;stroke-width:0.07000434"
         d="m 173.78234,77.48472 v 4.409033 H 172.4739 V 77.48472 h -2.59209 v -0.961182 h 6.49882 v 0.961182 z" />
      <path
         inkscape:connector-curvature="0"
         id="path2057"
         style="font-size:12.69999981px;line-height:0;text-align:center;text-anchor:middle;stroke-width:0.07000434"
         d="m 16.56403,95.299247 v -6.554601 h 1.234033 l 3.088184,3.962526 3.019971,-3.962526 h 1.22163 v 6.554601 h -1.413867 v -4.049346 q 0,-0.11782 0.0124,-0.297657 0.0186,-0.17983 0.04341,-0.40307 -0.124024,0.25425 -0.217041,0.42168 -0.09302,0.161227 -0.167432,0.266647 l -2.461865,3.274202 h -0.303857 l -2.468067,-3.286602 q -0.136426,-0.18604 -0.235644,-0.347267 -0.09302,-0.16743 -0.15503,-0.32246 0.0186,0.20464 0.02481,0.37207 0.0124,0.167427 0.0124,0.322457 v 4.049346 z" />
      <path
         inkscape:connector-curvature="0"
         id="path2059"
         style="font-size:12.69999981px;line-height:0;text-align:center;text-anchor:middle;stroke-width:0.07000434"
         d="m 29.034586,94.269853 h 4.328418 v -3.354809 h -4.328418 z m -1.308447,-3.075762 q 0,-0.731734 0.285254,-0.998384 0.285254,-0.266647 1.11001,-0.266647 h 4.154785 q 0.830957,0 1.11001,0.266647 0.285254,0.26665 0.285254,0.998384 v 2.833925 q 0,0.737924 -0.291455,1.004574 -0.285254,0.266657 -1.103809,0.266657 h -4.154785 q -0.824756,0 -1.11001,-0.266657 -0.285254,-0.26665 -0.285254,-1.004574 z" />
      <path
         inkscape:connector-curvature="0"
         id="path2061"
         style="font-size:12.69999981px;line-height:0;text-align:center;text-anchor:middle;stroke-width:0.07000434"
         d="M 36.93488,95.299247 V 89.92906 h 0.89917 l 4.557861,3.565649 V 89.92906 h 1.184424 v 5.370187 h -0.905371 l -4.545459,-3.621469 v 3.621469 z" />
      <path
         inkscape:connector-curvature="0"
         id="path2063"
         style="font-size:12.69999981px;line-height:0;text-align:center;text-anchor:middle;stroke-width:0.07000434"
         d="m 49.188395,90.890234 v 4.409013 h -1.308447 v -4.409013 h -2.59209 V 89.92906 h 6.498828 v 0.961174 z" />
      <path
         inkscape:connector-curvature="0"
         id="path2065"
         style="font-size:12.69999981px;line-height:0;text-align:center;text-anchor:middle;stroke-width:0.07000434"
         d="M 53.479603,95.299247 V 89.92906 h 1.32085 v 2.040178 h 4.086572 V 89.92906 h 1.308447 v 5.370187 h -1.308447 v -2.263415 h -4.086572 v 2.263415 z" />
      <path
         inkscape:connector-curvature="0"
         id="path2067"
         style="font-size:12.69999981px;line-height:0;text-align:center;text-anchor:middle;stroke-width:0.07000434"
         d="M 62.607731,95.299247 V 89.92906 h 1.32085 v 4.365603 h 4.210596 v 1.004584 z" />
      <path
         inkscape:connector-curvature="0"
         id="path2069"
         style="font-size:12.69999981px;line-height:0;text-align:center;text-anchor:middle;stroke-width:0.07000434"
         d="M 70.263078,95.299247 V 92.887002 L 67.329924,89.92906 h 1.767334 l 1.916162,2.002968 1.940967,-2.002968 h 1.53789 l -2.920752,2.933132 v 2.437055 z" />
      <path
         inkscape:connector-curvature="0"
         id="path2071"
         style="font-size:12.69999981px;line-height:0;text-align:center;text-anchor:middle;stroke-width:0.07000434"
         d="m 81.16784,95.299247 v -6.554601 h 1.525489 v 6.554601 z" />
      <path
         inkscape:connector-curvature="0"
         id="path2073"
         style="font-size:12.69999981px;line-height:0;text-align:center;text-anchor:middle;stroke-width:0.07000434"
         d="M 85.576871,95.299247 V 89.92906 h 0.899169 l 4.557862,3.565649 V 89.92906 h 1.184423 v 5.370187 h -0.905371 l -4.545459,-3.621469 v 3.621469 z" />
      <path
         inkscape:connector-curvature="0"
         id="path2075"
         style="font-size:12.69999981px;line-height:0;text-align:center;text-anchor:middle;stroke-width:0.07000434"
         d="M 94.630581,95.299247 V 89.92906 h 5.698879 v 0.961174 h -4.378029 v 1.401461 h 2.356445 v 0.998384 h -2.356445 v 2.009168 z" />
      <path
         inkscape:connector-curvature="0"
         id="path2077"
         style="font-size:12.69999981px;line-height:0;text-align:center;text-anchor:middle;stroke-width:0.07000434"
         d="m 102.80372,94.269853 h 4.32842 v -3.354809 h -4.32842 z m -1.30844,-3.075762 q 0,-0.731734 0.28525,-0.998384 0.28525,-0.266647 1.11001,-0.266647 h 4.15478 q 0.83096,0 1.11001,0.266647 0.28526,0.26665 0.28526,0.998384 v 2.833925 q 0,0.737924 -0.29146,1.004574 -0.28525,0.266657 -1.10381,0.266657 h -4.15478 q -0.82476,0 -1.11001,-0.266657 -0.28525,-0.26665 -0.28525,-1.004574 z" />
      <path
         inkscape:connector-curvature="0"
         id="path2079"
         style="font-size:12.69999981px;line-height:0;text-align:center;text-anchor:middle;stroke-width:0.07000434"
         d="m 116.86178,89.89185 h -4.29121 v 1.407661 h 4.08657 q 0.96118,0 1.29604,0.328657 0.34107,0.32866 0.34107,1.221624 v 0.899164 q 0,0.892967 -0.34107,1.221624 -0.33486,0.328667 -1.29604,0.328667 h -4.04937 q -0.96118,0 -1.30224,-0.328667 -0.33487,-0.328657 -0.33487,-1.221624 v -0.179827 l 1.34566,-0.27905 v 0.775137 h 4.63227 v -1.494471 h -4.08657 q -0.95498,0 -1.28984,-0.32866 -0.33486,-0.328657 -0.33486,-1.221624 v -0.725534 q 0,-0.892964 0.33486,-1.221624 0.33486,-0.328657 1.28984,-0.328657 h 3.72071 q 0.92397,0 1.27124,0.316257 0.35346,0.31626 0.35346,1.122404 v 0.13642 l -1.34565,0.316257 z" />
      <path
         inkscape:connector-curvature="0"
         id="path2081"
         style="font-size:12.69999981px;line-height:0;text-align:center;text-anchor:middle;stroke-width:0.07000434"
         d="M 120.97316,95.299247 V 89.92906 h 5.76089 v 0.948774 h -4.44004 v 1.172014 h 2.58588 v 0.923974 h -2.58588 v 1.320841 h 4.50825 v 1.004584 z" />
      <path
         inkscape:connector-curvature="0"
         id="path2083"
         style="font-size:12.69999981px;line-height:0;text-align:center;text-anchor:middle;stroke-width:0.07000434"
         d="m 133.3941,90.915044 h -3.52846 v 3.354809 h 3.52846 v -1.141004 l 1.32085,0.26665 v 0.632517 q 0,0.731724 -0.29145,1.004574 -0.29146,0.266657 -1.11621,0.266657 h -3.35484 q -0.81235,0 -1.10381,-0.266657 -0.29145,-0.26665 -0.29145,-1.004574 v -2.833925 q 0,-0.731734 0.28525,-0.998384 0.29146,-0.266647 1.11001,-0.266647 h 3.35484 q 0.83095,0 1.11621,0.266647 0.29145,0.26665 0.29145,0.998384 v 0.520897 l -1.32085,0.19223 z" />
      <path
         inkscape:connector-curvature="0"
         id="path2085"
         style="font-size:12.69999981px;line-height:0;text-align:center;text-anchor:middle;stroke-width:0.07000434"
         d="m 142.24938,95.299247 v -6.554601 h 1.23403 l 3.08819,3.962526 3.01997,-3.962526 h 1.22163 v 6.554601 h -1.41387 v -4.049346 q 0,-0.11782 0.0124,-0.297657 0.0186,-0.17983 0.0434,-0.40307 -0.12402,0.25425 -0.21704,0.42168 -0.093,0.161227 -0.16743,0.266647 l -2.46187,3.274202 h -0.30385 l -2.46807,-3.286602 q -0.13643,-0.18604 -0.23565,-0.347267 -0.093,-0.16743 -0.15503,-0.32246 0.0186,0.20464 0.0248,0.37207 0.0124,0.167427 0.0124,0.322457 v 4.049346 z" />
      <path
         inkscape:connector-curvature="0"
         id="path2087"
         style="font-size:12.69999981px;line-height:0;text-align:center;text-anchor:middle;stroke-width:0.07000434"
         d="M 153.54171,95.299247 V 89.92906 h 5.76089 v 0.948774 h -4.44004 v 1.172014 h 2.58588 v 0.923974 h -2.58588 v 1.320841 h 4.50825 v 1.004584 z" />
      <path
         inkscape:connector-curvature="0"
         id="path2089"
         style="font-size:12.69999981px;line-height:0;text-align:center;text-anchor:middle;stroke-width:0.07000434"
         d="M 161.25597,95.299247 V 89.92906 h 5.76089 v 0.948774 h -4.44004 v 1.172014 h 2.58589 v 0.923974 h -2.58589 v 1.320841 h 4.50825 v 1.004584 z" />
      <path
         inkscape:connector-curvature="0"
         id="path2091"
         style="font-size:12.69999981px;line-height:0;text-align:center;text-anchor:middle;stroke-width:0.07000434"
         d="m 172.17004,90.890234 v 4.409013 h -1.30845 V 90.890234 H 168.2695 V 89.92906 h 6.49883 v 0.961174 z" />
      <path
         inkscape:connector-curvature="0"
         id="path2093"
         style="font-size:12.69999981px;line-height:0;text-align:center;text-anchor:middle;stroke-width:0.07000434"
         d="m 177.76349,89.92906 v 4.365603 h 3.73931 V 89.92906 h 1.32085 v 4.098956 q 0,0.731724 -0.29766,1.004574 -0.29145,0.266657 -1.11621,0.266657 h -3.55327 q -0.81855,0 -1.11001,-0.266657 -0.28525,-0.26665 -0.28525,-1.004574 V 89.92906 Z" />
      <path
         inkscape:connector-curvature="0"
         id="path2095"
         style="font-size:12.69999981px;line-height:0;text-align:center;text-anchor:middle;stroke-width:0.07000434"
         d="M 185.2173,95.299247 V 89.92906 h 4.83692 q 0.66973,0 0.96118,0.248047 0.29766,0.24184 0.29766,0.793747 v 1.190611 q 0,0.551907 -0.29766,0.799947 -0.29766,0.241847 -0.96118,0.241847 h -3.54707 v 2.095988 z m 4.27881,-4.446213 h -2.98896 v 1.426251 h 2.98896 q 0.34107,0 0.46509,-0.0992 0.13023,-0.0992 0.13023,-0.334867 v -0.558097 q 0,-0.23565 -0.13023,-0.334867 -0.12402,-0.0992 -0.46509,-0.0992 z" />
      <path
         inkscape:connector-curvature="0"
         id="path2097"
         style="font-size:12.69999981px;line-height:0;text-align:center;text-anchor:middle;stroke-width:0.07000434"
         d="m 30.907341,109.76302 v -5.37022 h 5.698876 v 0.96118 H 32.22819 v 1.40147 h 2.356445 v 0.99839 H 32.22819 v 2.00918 z" />
      <path
         inkscape:connector-curvature="0"
         id="path2099"
         style="font-size:12.69999981px;line-height:0;text-align:center;text-anchor:middle;stroke-width:0.07000434"
         d="m 39.080485,108.73362 h 4.328418 v -3.35483 h -4.328418 z m -1.308447,-3.07578 q 0,-0.73174 0.285254,-0.99839 0.285253,-0.26665 1.110009,-0.26665 h 4.154785 q 0.830957,0 1.11001,0.26665 0.285254,0.26665 0.285254,0.99839 v 2.83394 q 0,0.73794 -0.291455,1.00459 -0.285254,0.26665 -1.103809,0.26665 h -4.154785 q -0.824756,0 -1.110009,-0.26665 -0.285254,-0.26665 -0.285254,-1.00459 z" />
      <path
         inkscape:connector-curvature="0"
         id="path2101"
         style="font-size:12.69999981px;line-height:0;text-align:center;text-anchor:middle;stroke-width:0.07000434"
         d="m 51.259586,105.31678 h -2.988965 v 1.48828 h 2.988965 q 0.341064,0 0.465088,-0.0992 0.130224,-0.0992 0.130224,-0.33486 v -0.62012 q 0,-0.23564 -0.130224,-0.33486 -0.124024,-0.0992 -0.465088,-0.0992 z m -4.278809,4.44624 v -5.37022 h 4.836914 q 0.663526,0 0.961182,0.24805 0.297656,0.24185 0.297656,0.79375 v 1.26504 q 0,0.5457 -0.297656,0.78755 -0.297656,0.24184 -0.961182,0.24184 h -0.737939 l 2.554883,2.03399 H 51.75568 l -2.251026,-2.03399 h -1.234033 v 2.03399 z" />
      <path
         inkscape:connector-curvature="0"
         id="path2103"
         style="font-size:12.69999981px;line-height:0;text-align:center;text-anchor:middle;stroke-width:0.07000434"
         d="m 65.900553,103.20838 q 0.886768,0 1.190625,0.27285 0.310059,0.27285 0.310059,1.01079 v 0.59531 q 0,0.57051 -0.279053,0.85577 -0.279053,0.28525 -0.979785,0.41547 0.725537,0.0806 1.066601,0.39688 0.341065,0.31626 0.341065,0.91157 v 0.68833 q 0,0.79995 -0.353467,1.10381 -0.347266,0.30386 -1.246436,0.30386 h -4.185791 q -0.892968,0 -1.240234,-0.29766 -0.347266,-0.30386 -0.347266,-1.11001 v -0.68833 q 0,-0.58911 0.341065,-0.90537 0.341064,-0.32246 1.054199,-0.40308 -0.694531,-0.13642 -0.979785,-0.42168 -0.279053,-0.28525 -0.279053,-0.84956 v -0.59531 q 0,-0.73794 0.303858,-1.01079 0.310058,-0.27285 1.196826,-0.27285 z m -0.508496,1.11621 h -3.057178 q -0.378271,0 -0.508496,0.12402 -0.130224,0.11783 -0.130224,0.47749 v 0.32867 q 0,0.35346 0.130224,0.47749 0.130225,0.11782 0.508496,0.11782 h 3.057178 q 0.37207,0 0.496094,-0.11782 0.130224,-0.11783 0.130224,-0.47749 v -0.32867 q 0,-0.36587 -0.130224,-0.48369 -0.124024,-0.11782 -0.496094,-0.11782 z m 0.142627,2.59209 H 62.17985 q -0.37207,0 -0.496094,0.11782 -0.124023,0.11782 -0.124023,0.48369 v 0.47749 q 0,0.35967 0.117822,0.47749 0.117822,0.11163 0.502295,0.11163 h 3.354834 q 0.378271,0 0.496094,-0.11163 0.124023,-0.11782 0.124023,-0.47749 v -0.47749 q 0,-0.36587 -0.124023,-0.48369 -0.124024,-0.11782 -0.496094,-0.11782 z" />
      <path
         inkscape:connector-curvature="0"
         id="path2105"
         style="font-size:12.69999981px;line-height:0;text-align:center;text-anchor:middle;stroke-width:0.07000434"
         d="m 77.192887,109.76302 v -2.93316 l -3.404444,-3.62148 h 2.033985 l 2.251025,2.51767 2.257227,-2.51767 h 1.792138 l -3.392041,3.58428 v 2.97036 z" />
      <path
         inkscape:connector-curvature="0"
         id="path2107"
         style="font-size:12.69999981px;line-height:0;text-align:center;text-anchor:middle;stroke-width:0.07000434"
         d="m 82.485588,109.76302 v -5.37022 h 5.760888 v 0.94878 h -4.440039 v 1.17202 h 2.585889 v 0.92398 h -2.585889 v 1.32085 h 4.508252 v 1.00459 z" />
      <path
         inkscape:connector-curvature="0"
         id="path2109"
         style="font-size:12.69999981px;line-height:0;text-align:center;text-anchor:middle;stroke-width:0.07000434"
         d="m 89.371989,109.76302 3.187402,-5.37022 h 1.258838 l 3.237012,5.37022 h -1.469678 l -0.675928,-1.17822 h -3.553271 l -0.675928,1.17822 z m 2.54248,-2.15801 h 2.461866 l -1.252637,-2.23862 z" />
      <path
         inkscape:connector-curvature="0"
         id="path2111"
         style="font-size:12.69999981px;line-height:0;text-align:center;text-anchor:middle;stroke-width:0.07000434"
         d="m 102.6797,105.31678 h -2.988963 v 1.48828 h 2.988963 q 0.34107,0 0.46509,-0.0992 0.13022,-0.0992 0.13022,-0.33486 v -0.62012 q 0,-0.23564 -0.13022,-0.33486 -0.12402,-0.0992 -0.46509,-0.0992 z m -4.278806,4.44624 v -5.37022 h 4.836916 q 0.66352,0 0.96118,0.24805 0.29766,0.24185 0.29766,0.79375 v 1.26504 q 0,0.5457 -0.29766,0.78755 -0.29766,0.24184 -0.96118,0.24184 h -0.73794 l 2.55488,2.03399 h -1.87895 l -2.25103,-2.03399 h -1.234033 v 2.03399 z" />
      <path
         inkscape:connector-curvature="0"
         id="path2113"
         style="font-size:12.69999981px;line-height:0;text-align:center;text-anchor:middle;stroke-width:0.07000434"
         d="m 111.62179,105.35398 h -3.6959 v 1.13482 h 3.49746 q 0.82476,0 1.11001,0.26665 0.28525,0.26045 0.28525,0.99839 v 0.73794 q 0,0.73794 -0.29145,1.00459 -0.29146,0.26665 -1.10381,0.26665 h -3.48506 q -0.83096,0 -1.12861,-0.26665 -0.29146,-0.26665 -0.29146,-1.00459 v -0.14883 l 1.16582,-0.21704 v 0.63252 h 3.95015 v -1.22783 h -3.47886 q -0.82475,0 -1.11621,-0.26665 -0.29145,-0.27286 -0.29145,-1.00459 v -0.60152 q 0,-0.72554 0.29145,-0.99219 0.29146,-0.27285 1.11621,-0.27285 h 3.1874 q 0.81236,0 1.11001,0.26045 0.30386,0.25425 0.30386,0.90537 v 0.13023 l -1.13481,0.24184 z" />
      <path
         inkscape:connector-curvature="0"
         id="path2115"
         style="font-size:12.69999981px;line-height:0;text-align:center;text-anchor:middle;stroke-width:0.07000434"
         d="m 125.4132,104.34319 h -3.42925 v 1.82315 h 3.42925 q 0.39687,0 0.5395,-0.11162 0.14883,-0.11783 0.14883,-0.40928 v -0.78755 q 0,-0.28525 -0.14883,-0.39687 -0.14263,-0.11783 -0.5395,-0.11783 z m -4.92993,5.41983 v -6.55464 h 5.60585 q 0.78135,0 1.12862,0.30386 0.35346,0.29765 0.35346,0.96738 v 1.53789 q 0,0.66353 -0.35346,0.96738 -0.34727,0.30386 -1.12862,0.30386 h -0.85576 l 3.02617,2.47427 h -2.18901 l -2.6417,-2.47427 h -1.44487 v 2.47427 z" />
      <path
         inkscape:connector-curvature="0"
         id="path2117"
         style="font-size:12.69999981px;line-height:0;text-align:center;text-anchor:middle;stroke-width:0.07000434"
         d="m 131.29191,104.3928 v 4.36563 h 3.7393 v -4.36563 h 1.32085 v 4.09898 q 0,0.73174 -0.29765,1.00459 -0.29146,0.26665 -1.11621,0.26665 h -3.55327 q -0.81856,0 -1.11001,-0.26665 -0.28526,-0.26665 -0.28526,-1.00459 v -4.09898 z" />
      <path
         inkscape:connector-curvature="0"
         id="path2119"
         style="font-size:12.69999981px;line-height:0;text-align:center;text-anchor:middle;stroke-width:0.07000434"
         d="m 138.75812,109.76302 v -5.37022 h 0.89917 l 4.55786,3.56568 v -3.56568 h 1.18442 v 5.37022 h -0.90537 l -4.54546,-3.62149 v 3.62149 z" />
      <path
         inkscape:connector-curvature="0"
         id="path2121"
         style="font-size:12.69999981px;line-height:0;text-align:center;text-anchor:middle;stroke-width:0.07000434"
         d="m 147.81183,109.76302 v -5.37022 h 0.89917 l 4.55786,3.56568 v -3.56568 h 1.18442 v 5.37022 h -0.90537 l -4.54546,-3.62149 v 3.62149 z" />
      <path
         inkscape:connector-curvature="0"
         id="path2123"
         style="font-size:12.69999981px;line-height:0;text-align:center;text-anchor:middle;stroke-width:0.07000434"
         d="m 156.86554,109.76302 v -5.37022 h 1.30225 v 5.37022 z" />
      <path
         inkscape:connector-curvature="0"
         id="path2125"
         style="font-size:12.69999981px;line-height:0;text-align:center;text-anchor:middle;stroke-width:0.07000434"
         d="m 160.56144,109.76302 v -5.37022 h 0.89917 l 4.55786,3.56568 v -3.56568 h 1.18442 v 5.37022 h -0.90537 l -4.54546,-3.62149 v 3.62149 z" />
      <path
         inkscape:connector-curvature="0"
         id="path2127"
         style="font-size:12.69999981px;line-height:0;text-align:center;text-anchor:middle;stroke-width:0.07000434"
         d="m 174.87994,105.37879 h -4.08657 v 3.35483 h 4.08657 v -1.14101 h -2.1332 v -0.95498 h 3.41685 v 1.85415 q 0,0.73794 -0.29146,1.00459 -0.28525,0.26665 -1.10381,0.26665 h -3.88813 q -0.81856,0 -1.11001,-0.26665 -0.28525,-0.26665 -0.28525,-1.00459 v -2.83394 q 0,-0.73174 0.28525,-0.99839 0.29145,-0.26665 1.11001,-0.26665 h 3.88813 q 0.81236,0 1.10381,0.26045 0.29146,0.26045 0.29146,0.94258 v 0.14263 l -1.28365,0.21704 z" />
    </g>
    <text
       id="text2159"
       y="30.696873"
       x="159.01459"
       style="font-style:normal;font-variant:normal;font-weight:normal;font-stretch:normal;font-size:22.57777786px;line-height:1.25;font-family:'BankGothic Md BT';-inkscape-font-specification:'BankGothic Md BT';font-variant-ligatures:normal;font-variant-caps:normal;font-variant-numeric:normal;font-feature-settings:normal;text-align:start;letter-spacing:0px;word-spacing:0px;writing-mode:lr-tb;text-anchor:start;stroke-width:0.07000434;fill:#a0a0a0;fill-opacity:1;"
       xml:space="preserve"
       inkscape:export-filename="/home/jferg/infinity_no_text.png"
       inkscape:export-xdpi="298.50699"
       inkscape:export-ydpi="298.50699"><tspan
         style="font-style:normal;font-variant:normal;font-weight:normal;font-stretch:normal;font-size:9.87777805px;font-family:Hexa;-inkscape-font-specification:Hexa;stroke-width:0.07000434;fill:#a0a0a0;fill-opacity:1;"
         y="30.696873"
         x="159.01459"
         id="tspan2157"
         sodipodi:role="line">Infinity</tspan></text>
    <g
       aria-label="Destroy No Data  ⬢  Maintain No Persistence  ⬢  Above All: Do No Harm"
       style="font-style:normal;font-variant:normal;font-weight:normal;font-stretch:normal;font-size:22.57777786px;line-height:1.25;font-family:'BankGothic Md BT';-inkscape-font-specification:'BankGothic Md BT';font-variant-ligatures:normal;font-variant-caps:normal;font-variant-numeric:normal;font-feature-settings:normal;text-align:start;letter-spacing:0px;word-spacing:0px;writing-mode:lr-tb;text-anchor:start;stroke-width:0.07000434"
       id="text2163">
      <path
         d="m 79.143488,186.25257 h 0.876432 q 0.700043,0 0.992187,-0.21773 0.292145,-0.21773 0.292145,-0.71934 0,-0.44648 -0.242535,-0.67524 -0.242535,-0.23151 -0.71658,-0.23151 h -1.201649 z m -0.677995,0.54846 v -2.91318 h 1.874132 q 0.802018,0 1.231966,0.37483 0.432704,0.37483 0.432704,1.06384 0,0.4079 -0.168121,0.73588 -0.16812,0.32521 -0.474045,0.51263 -0.190169,0.11851 -0.474045,0.17363 -0.28112,0.0524 -0.722092,0.0524 z"
         style="font-size:5.64444447px;text-align:center;text-anchor:middle;stroke-width:0.07000434"
         id="path5967"
         inkscape:connector-curvature="0" />
      <path
         d="m 83.037824,186.80103 v -2.38677 h 2.560395 v 0.42168 h -1.973351 v 0.5209 h 1.149284 v 0.41066 h -1.149284 v 0.58704 h 2.003668 v 0.44649 z"
         style="font-size:5.64444447px;text-align:center;text-anchor:middle;stroke-width:0.07000434"
         id="path5969"
         inkscape:connector-curvature="0" />
      <path
         d="m 88.671244,184.84146 h -1.642621 v 0.50436 h 1.554427 q 0.366558,0 0.493337,0.11851 0.12678,0.11575 0.12678,0.44373 v 0.32797 q 0,0.32797 -0.129536,0.44648 -0.129535,0.11852 -0.490581,0.11852 h -1.548915 q -0.369314,0 -0.501606,-0.11852 -0.129536,-0.11851 -0.129536,-0.44648 v -0.0661 l 0.518143,-0.0965 v 0.28112 h 1.75562 v -0.5457 h -1.546159 q -0.366558,0 -0.496093,-0.11851 -0.129536,-0.12127 -0.129536,-0.44649 v -0.26734 q 0,-0.32246 0.129536,-0.44097 0.129535,-0.12127 0.496093,-0.12127 h 1.416624 q 0.361046,0 0.493337,0.11576 0.135048,0.113 0.135048,0.40239 v 0.0579 l -0.504362,0.10749 z"
         style="font-size:5.64444447px;text-align:center;text-anchor:middle;stroke-width:0.07000434"
         id="path5971"
         inkscape:connector-curvature="0" />
      <path
         d="m 91.636782,184.84146 v 1.95957 H 91.05525 v -1.95957 h -1.15204 v -0.4272 h 2.888368 v 0.4272 z"
         style="font-size:5.64444447px;text-align:center;text-anchor:middle;stroke-width:0.07000434"
         id="path5973"
         inkscape:connector-curvature="0" />
      <path
         d="m 95.44568,184.82492 h -1.328429 v 0.66146 h 1.328429 q 0.151584,0 0.206706,-0.0441 0.05788,-0.0441 0.05788,-0.14883 v -0.27561 q 0,-0.10473 -0.05788,-0.14882 -0.05512,-0.0441 -0.206706,-0.0441 z m -1.901693,1.97611 v -2.38677 h 2.14974 q 0.2949,0 0.427192,0.11025 0.132291,0.10748 0.132291,0.35277 v 0.56224 q 0,0.24254 -0.132291,0.35003 -0.132292,0.10748 -0.427192,0.10748 h -0.327973 l 1.135503,0.904 h -0.835091 l -1.000456,-0.904 h -0.548459 v 0.904 z"
         style="font-size:5.64444447px;text-align:center;text-anchor:middle;stroke-width:0.07000434"
         id="path5975"
         inkscape:connector-curvature="0" />
      <path
         d="m 97.738735,186.34352 h 1.923741 v -1.49104 h -1.923741 z m -0.581532,-1.36702 q 0,-0.32521 0.126779,-0.44373 0.12678,-0.11851 0.493338,-0.11851 h 1.846571 q 0.369314,0 0.493339,0.11851 0.12678,0.11852 0.12678,0.44373 v 1.25953 q 0,0.32797 -0.12954,0.44648 -0.126777,0.11852 -0.490579,0.11852 H 97.77732 q -0.366558,0 -0.493338,-0.11852 -0.126779,-0.11851 -0.126779,-0.44648 z"
         style="font-size:5.64444447px;text-align:center;text-anchor:middle;stroke-width:0.07000434"
         id="path5977"
         inkscape:connector-curvature="0" />
      <path
         d="m 101.97069,186.80103 v -1.07212 l -1.30362,-1.31465 h 0.78548 l 0.85162,0.89022 0.86266,-0.89022 h 0.6835 l -1.29811,1.30363 v 1.08314 z"
         style="font-size:5.64444447px;text-align:center;text-anchor:middle;stroke-width:0.07000434"
         id="path5979"
         inkscape:connector-curvature="0" />
      <path
         d="m 106.81449,186.80103 v -2.91318 h 0.46302 l 2.05053,1.71704 q 0.10473,0.0854 0.18465,0.16261 0.0799,0.0744 0.14607,0.15434 -0.0165,-0.24529 -0.022,-0.34727 -0.006,-0.10197 -0.006,-0.15709 v -1.52963 h 0.6091 v 2.91318 h -0.46302 l -2.13872,-1.79972 q -0.0772,-0.0689 -0.13505,-0.12403 -0.0579,-0.0551 -0.10748,-0.113 0.0138,0.13505 0.0193,0.25632 0.008,0.11851 0.008,0.20671 v 1.57372 z"
         style="font-size:5.64444447px;text-align:center;text-anchor:middle;stroke-width:0.07000434"
         id="path5981"
         inkscape:connector-curvature="0" />
      <path
         d="m 112.03726,186.34352 h 1.92374 v -1.49104 h -1.92374 z m -0.58153,-1.36702 q 0,-0.32521 0.12678,-0.44373 0.12678,-0.11851 0.49333,-0.11851 h 1.84658 q 0.36931,0 0.49333,0.11851 0.12678,0.11852 0.12678,0.44373 v 1.25953 q 0,0.32797 -0.12953,0.44648 -0.12678,0.11852 -0.49058,0.11852 h -1.84658 q -0.36655,0 -0.49333,-0.11852 -0.12678,-0.11851 -0.12678,-0.44648 z"
         style="font-size:5.64444447px;text-align:center;text-anchor:middle;stroke-width:0.07000434"
         id="path5983"
         inkscape:connector-curvature="0" />
      <path
         d="m 118.62153,186.25257 h 0.87643 q 0.70004,0 0.99219,-0.21773 0.29214,-0.21773 0.29214,-0.71934 0,-0.44648 -0.24253,-0.67524 -0.24254,-0.23151 -0.71658,-0.23151 h -1.20165 z m -0.678,0.54846 v -2.91318 h 1.87413 q 0.80202,0 1.23197,0.37483 0.4327,0.37483 0.4327,1.06384 0,0.4079 -0.16812,0.73588 -0.16812,0.32521 -0.47404,0.51263 -0.19017,0.11851 -0.47405,0.17363 -0.28112,0.0524 -0.72209,0.0524 z"
         style="font-size:5.64444447px;text-align:center;text-anchor:middle;stroke-width:0.07000434"
         id="path5985"
         inkscape:connector-curvature="0" />
      <path
         d="m 122.15206,186.80103 1.41662,-2.38677 h 0.55949 l 1.43867,2.38677 h -0.65319 l -0.30041,-0.52366 h -1.57923 l -0.30042,0.52366 z m 1.12999,-0.95912 h 1.09417 l -0.55673,-0.99494 z"
         style="font-size:5.64444447px;text-align:center;text-anchor:middle;stroke-width:0.07000434"
         id="path5987"
         inkscape:connector-curvature="0" />
      <path
         d="m 127.27836,184.84146 v 1.95957 h -0.58153 v -1.95957 h -1.15204 v -0.4272 h 2.88837 v 0.4272 z"
         style="font-size:5.64444447px;text-align:center;text-anchor:middle;stroke-width:0.07000434"
         id="path5989"
         inkscape:connector-curvature="0" />
      <path
         d="m 128.40697,186.80103 1.41663,-2.38677 h 0.55948 l 1.43867,2.38677 h -0.65319 l -0.30041,-0.52366 h -1.57923 l -0.30041,0.52366 z m 1.13,-0.95912 h 1.09416 l -0.55673,-0.99494 z"
         style="font-size:5.64444447px;text-align:center;text-anchor:middle;stroke-width:0.07000434"
         id="path5991"
         inkscape:connector-curvature="0" />
      <path
         d="m 102.75204,192.65755 v -2.37022 l 2.05052,-1.18236 2.05052,1.18236 v 2.37022 l -2.05052,1.18236 z"
         style="font-size:5.64444447px;text-align:center;text-anchor:middle;stroke-width:0.07000434"
         id="path5993"
         inkscape:connector-curvature="0" />
      <path
         d="m 66.360805,199.32436 v -2.91317 h 0.548459 l 1.372527,1.76113 1.342209,-1.76113 h 0.542947 v 2.91317 h -0.628386 v -1.79972 q 0,-0.0524 0.0055,-0.13229 0.0083,-0.0799 0.01929,-0.17914 -0.05512,0.11299 -0.09646,0.18741 -0.04134,0.0717 -0.07441,0.11851 l -1.094162,1.45521 h -0.135048 l -1.096918,-1.46072 q -0.06063,-0.0827 -0.104731,-0.15434 -0.04134,-0.0744 -0.0689,-0.14332 0.0083,0.0909 0.01102,0.16537 0.0055,0.0744 0.0055,0.14331 v 1.79972 z"
         style="font-size:5.64444447px;text-align:center;text-anchor:middle;stroke-width:0.07000434"
         id="path5995"
         inkscape:connector-curvature="0" />
      <path
         d="m 71.015819,199.32436 1.416623,-2.38676 h 0.559483 l 1.438672,2.38676 h -0.65319 l -0.300412,-0.52365 h -1.579232 l -0.300412,0.52365 z m 1.129991,-0.95911 h 1.094162 l -0.556727,-0.99495 z"
         style="font-size:5.64444447px;text-align:center;text-anchor:middle;stroke-width:0.07000434"
         id="path5997"
         inkscape:connector-curvature="0" />
      <path
         d="m 75.028666,199.32436 v -2.38676 h 0.578776 v 2.38676 z"
         style="font-size:5.64444447px;text-align:center;text-anchor:middle;stroke-width:0.07000434"
         id="path5999"
         inkscape:connector-curvature="0" />
      <path
         d="m 76.671288,199.32436 v -2.38676 h 0.399631 l 2.025716,1.58474 v -1.58474 h 0.52641 v 2.38676 h -0.402387 l -2.020204,-1.60955 v 1.60955 z"
         style="font-size:5.64444447px;text-align:center;text-anchor:middle;stroke-width:0.07000434"
         id="path6001"
         inkscape:connector-curvature="0" />
      <path
         d="m 82.117294,197.36479 v 1.95957 h -0.581532 v -1.95957 h -1.15204 v -0.42719 h 2.888368 v 0.42719 z"
         style="font-size:5.64444447px;text-align:center;text-anchor:middle;stroke-width:0.07000434"
         id="path6003"
         inkscape:connector-curvature="0" />
      <path
         d="m 83.245908,199.32436 1.416623,-2.38676 h 0.559484 l 1.438671,2.38676 h -0.65319 l -0.300412,-0.52365 h -1.579232 l -0.300412,0.52365 z m 1.129991,-0.95911 h 1.094162 l -0.556727,-0.99495 z"
         style="font-size:5.64444447px;text-align:center;text-anchor:middle;stroke-width:0.07000434"
         id="path6005"
         inkscape:connector-curvature="0" />
      <path
         d="m 87.254621,199.32436 v -2.38676 h 0.578776 v 2.38676 z"
         style="font-size:5.64444447px;text-align:center;text-anchor:middle;stroke-width:0.07000434"
         id="path6007"
         inkscape:connector-curvature="0" />
      <path
         d="m 88.897243,199.32436 v -2.38676 h 0.399631 l 2.025716,1.58474 V 196.9376 H 91.849 v 2.38676 h -0.402387 l -2.020204,-1.60955 v 1.60955 z"
         style="font-size:5.64444447px;text-align:center;text-anchor:middle;stroke-width:0.07000434"
         id="path6009"
         inkscape:connector-curvature="0" />
      <path
         d="m 95.310632,199.32436 v -2.91317 h 0.463021 l 2.050521,1.71703 q 0.104731,0.0854 0.184657,0.16261 0.07993,0.0744 0.146072,0.15434 -0.01654,-0.24529 -0.02205,-0.34726 -0.0055,-0.10198 -0.0055,-0.1571 v -1.52962 h 0.609092 v 2.91317 h -0.46302 l -2.138716,-1.79972 q -0.07717,-0.0689 -0.135047,-0.12402 -0.05788,-0.0551 -0.107487,-0.113 0.01378,0.13505 0.01929,0.25631 0.0083,0.11852 0.0083,0.20671 v 1.57372 z"
         style="font-size:5.64444447px;text-align:center;text-anchor:middle;stroke-width:0.07000434"
         id="path6011"
         inkscape:connector-curvature="0" />
      <path
         d="m 100.5334,198.86685 h 1.92374 v -1.49104 h -1.92374 z m -0.581534,-1.36701 q 0,-0.32522 0.126784,-0.44373 0.12678,-0.11851 0.49333,-0.11851 h 1.84657 q 0.36932,0 0.49334,0.11851 0.12678,0.11851 0.12678,0.44373 v 1.25952 q 0,0.32798 -0.12953,0.44649 -0.12678,0.11851 -0.49059,0.11851 h -1.84657 q -0.36655,0 -0.49333,-0.11851 -0.126784,-0.11851 -0.126784,-0.44649 z"
         style="font-size:5.64444447px;text-align:center;text-anchor:middle;stroke-width:0.07000434"
         id="path6013"
         inkscape:connector-curvature="0" />
      <path
         d="m 108.63075,196.91555 h -1.52411 v 0.7717 h 1.52411 q 0.17639,0 0.23978,-0.0496 0.0661,-0.0524 0.0661,-0.1819 v -0.31144 q 0,-0.12678 -0.0661,-0.17639 -0.0634,-0.0524 -0.23978,-0.0524 z m -2.19108,2.40881 v -2.91317 h 2.49149 q 0.34727,0 0.50161,0.13505 0.15709,0.13229 0.15709,0.42994 v 0.65044 q 0,0.2949 -0.15709,0.42994 -0.15434,0.1323 -0.50161,0.1323 h -1.82452 v 1.1355 z"
         style="font-size:5.64444447px;text-align:center;text-anchor:middle;stroke-width:0.07000434"
         id="path6015"
         inkscape:connector-curvature="0" />
      <path
         d="m 110.42771,199.32436 v -2.38676 h 2.5604 v 0.42168 h -1.97335 v 0.5209 h 1.14928 v 0.41065 h -1.14928 v 0.58705 h 2.00366 v 0.44648 z"
         style="font-size:5.64444447px;text-align:center;text-anchor:middle;stroke-width:0.07000434"
         id="path6017"
         inkscape:connector-curvature="0" />
      <path
         d="m 115.75796,197.34825 h -1.32843 v 0.66146 h 1.32843 q 0.15159,0 0.20671,-0.0441 0.0579,-0.0441 0.0579,-0.14882 v -0.27561 q 0,-0.10473 -0.0579,-0.14883 -0.0551,-0.0441 -0.20671,-0.0441 z m -1.90169,1.97611 v -2.38676 h 2.14974 q 0.2949,0 0.42719,0.11024 0.13229,0.10749 0.13229,0.35278 v 0.56224 q 0,0.24253 -0.13229,0.35002 -0.13229,0.10749 -0.42719,0.10749 h -0.32797 l 1.1355,0.90399 h -0.83509 l -1.00046,-0.90399 h -0.54846 v 0.90399 z"
         style="font-size:5.64444447px;text-align:center;text-anchor:middle;stroke-width:0.07000434"
         id="path6019"
         inkscape:connector-curvature="0" />
      <path
         d="m 119.73222,197.36479 h -1.64262 v 0.50436 h 1.55443 q 0.36656,0 0.49334,0.11851 0.12678,0.11576 0.12678,0.44373 v 0.32797 q 0,0.32798 -0.12954,0.44649 -0.12953,0.11851 -0.49058,0.11851 h -1.54891 q -0.36932,0 -0.50161,-0.11851 -0.12954,-0.11851 -0.12954,-0.44649 v -0.0661 l 0.51815,-0.0965 v 0.28112 h 1.75562 v -0.54571 h -1.54616 q -0.36656,0 -0.4961,-0.11851 -0.12953,-0.12127 -0.12953,-0.44648 v -0.26734 q 0,-0.32246 0.12953,-0.44097 0.12954,-0.12127 0.4961,-0.12127 h 1.41662 q 0.36105,0 0.49334,0.11575 0.13505,0.113 0.13505,0.40239 v 0.0579 l -0.50437,0.10748 z"
         style="font-size:5.64444447px;text-align:center;text-anchor:middle;stroke-width:0.07000434"
         id="path6021"
         inkscape:connector-curvature="0" />
      <path
         d="m 121.27563,199.32436 v -2.38676 h 0.57877 v 2.38676 z"
         style="font-size:5.64444447px;text-align:center;text-anchor:middle;stroke-width:0.07000434"
         id="path6023"
         inkscape:connector-curvature="0" />
      <path
         d="m 125.12311,197.36479 h -1.64262 v 0.50436 h 1.55442 q 0.36656,0 0.49334,0.11851 0.12678,0.11576 0.12678,0.44373 v 0.32797 q 0,0.32798 -0.12953,0.44649 -0.12954,0.11851 -0.49059,0.11851 H 123.486 q -0.36931,0 -0.50161,-0.11851 -0.12953,-0.11851 -0.12953,-0.44649 v -0.0661 l 0.51814,-0.0965 v 0.28112 h 1.75562 v -0.54571 h -1.54616 q -0.36656,0 -0.49609,-0.11851 -0.12954,-0.12127 -0.12954,-0.44648 v -0.26734 q 0,-0.32246 0.12954,-0.44097 0.12953,-0.12127 0.49609,-0.12127 h 1.41663 q 0.36104,0 0.49333,0.11575 0.13505,0.113 0.13505,0.40239 v 0.0579 l -0.50436,0.10748 z"
         style="font-size:5.64444447px;text-align:center;text-anchor:middle;stroke-width:0.07000434"
         id="path6025"
         inkscape:connector-curvature="0" />
      <path
         d="m 128.08865,197.36479 v 1.95957 h -0.58153 v -1.95957 h -1.15204 v -0.42719 h 2.88836 v 0.42719 z"
         style="font-size:5.64444447px;text-align:center;text-anchor:middle;stroke-width:0.07000434"
         id="path6027"
         inkscape:connector-curvature="0" />
      <path
         d="m 129.99585,199.32436 v -2.38676 h 2.5604 v 0.42168 h -1.97335 v 0.5209 h 1.14928 v 0.41065 h -1.14928 v 0.58705 h 2.00367 v 0.44648 z"
         style="font-size:5.64444447px;text-align:center;text-anchor:middle;stroke-width:0.07000434"
         id="path6029"
         inkscape:connector-curvature="0" />
      <path
         d="m 133.42441,199.32436 v -2.38676 h 0.39963 l 2.02572,1.58474 v -1.58474 h 0.52641 v 2.38676 h -0.40239 l -2.0202,-1.60955 v 1.60955 z"
         style="font-size:5.64444447px;text-align:center;text-anchor:middle;stroke-width:0.07000434"
         id="path6031"
         inkscape:connector-curvature="0" />
      <path
         d="m 139.54014,197.37581 h -1.5682 v 1.49104 h 1.5682 v -0.50712 l 0.58705,0.11851 v 0.28112 q 0,0.32522 -0.12954,0.44649 -0.12953,0.11851 -0.49609,0.11851 h -1.49104 q -0.36105,0 -0.49058,-0.11851 -0.12954,-0.11851 -0.12954,-0.44649 v -1.25952 q 0,-0.32522 0.12678,-0.44373 0.12954,-0.11851 0.49334,-0.11851 h 1.49104 q 0.36931,0 0.49609,0.11851 0.12954,0.11851 0.12954,0.44373 v 0.23151 l -0.58705,0.0854 z"
         style="font-size:5.64444447px;text-align:center;text-anchor:middle;stroke-width:0.07000434"
         id="path6033"
         inkscape:connector-curvature="0" />
      <path
         d="m 141.0863,199.32436 v -2.38676 h 2.5604 v 0.42168 h -1.97335 v 0.5209 h 1.14928 v 0.41065 h -1.14928 v 0.58705 h 2.00367 v 0.44648 z"
         style="font-size:5.64444447px;text-align:center;text-anchor:middle;stroke-width:0.07000434"
         id="path6035"
         inkscape:connector-curvature="0" />
      <path
         d="M 102.75204,206.23923 V 203.869 l 2.05052,-1.18236 2.05052,1.18236 v 2.37023 l -2.05052,1.18235 z"
         style="font-size:5.64444447px;text-align:center;text-anchor:middle;stroke-width:0.07000434"
         id="path6037"
         inkscape:connector-curvature="0" />
      <path
         d="m 59.985313,213.56888 h 1.595079 l -0.785482,-1.48139 z m -1.62953,1.45383 2.060167,-3.64146 h 0.816488 l 2.087727,3.64146 h -0.950846 l -0.437527,-0.79581 h -2.308214 l -0.423747,0.79581 z"
         style="font-size:7.05555534px;text-align:center;text-anchor:middle;stroke-width:0.07000434"
         id="path6039"
         inkscape:connector-curvature="0" />
      <path
         d="m 64.229671,215.02271 v -2.98345 h 2.680284 q 0.375515,0 0.54088,0.13781 0.165364,0.13435 0.165364,0.44097 v 0.35829 q 0,0.20326 -0.130913,0.33417 -0.130914,0.13092 -0.378961,0.1757 0.251492,0.0413 0.389296,0.19293 0.141249,0.14814 0.141249,0.37551 v 0.38241 q 0,0.29283 -0.230822,0.44097 -0.230821,0.14469 -0.695909,0.14469 z m 2.346109,-2.49769 h -1.62953 v 0.70625 h 1.62953 q 0.189481,0 0.258383,-0.0482 0.0689,-0.0482 0.0689,-0.16536 v -0.2825 q 0,-0.11713 -0.0689,-0.16192 -0.06546,-0.0482 -0.258383,-0.0482 z m 0,1.19889 h -1.62953 v 0.76137 h 1.62953 q 0.206706,0 0.279053,-0.0586 0.07579,-0.0586 0.07579,-0.2067 v -0.22738 q 0,-0.14814 -0.07579,-0.2067 -0.07235,-0.062 -0.279053,-0.062 z"
         style="font-size:7.05555534px;text-align:center;text-anchor:middle;stroke-width:0.07000434"
         id="path6041"
         inkscape:connector-curvature="0" />
      <path
         d="m 69.528227,214.45083 h 2.404677 v -1.8638 h -2.404677 z m -0.726915,-1.70877 q 0,-0.40652 0.158475,-0.55466 0.158474,-0.14814 0.616672,-0.14814 h 2.308214 q 0.461642,0 0.616672,0.14814 0.158474,0.14814 0.158474,0.55466 v 1.57441 q 0,0.40997 -0.16192,0.55811 -0.158474,0.14813 -0.613226,0.14813 h -2.308214 q -0.458198,0 -0.616672,-0.14813 -0.158475,-0.14814 -0.158475,-0.55811 z"
         style="font-size:7.05555534px;text-align:center;text-anchor:middle;stroke-width:0.07000434"
         id="path6043"
         inkscape:connector-curvature="0" />
      <path
         d="m 75.312543,215.02271 -1.80523,-2.98345 h 0.823378 l 1.26435,2.16352 1.192003,-2.16352 h 0.754476 l -1.729438,2.98345 z"
         style="font-size:7.05555534px;text-align:center;text-anchor:middle;stroke-width:0.07000434"
         id="path6045"
         inkscape:connector-curvature="0" />
      <path
         d="m 78.382123,215.02271 v -2.98345 h 3.200494 v 0.5271 h -2.466689 v 0.65112 h 1.436605 v 0.51332 h -1.436605 v 0.73381 h 2.504585 v 0.5581 z"
         style="font-size:7.05555534px;text-align:center;text-anchor:middle;stroke-width:0.07000434"
         id="path6047"
         inkscape:connector-curvature="0" />
      <path
         d="m 86.59523,213.56888 h 1.595079 l -0.785482,-1.48139 z m -1.62953,1.45383 2.060167,-3.64146 h 0.816487 l 2.087728,3.64146 h -0.950846 l -0.437527,-0.79581 h -2.308214 l -0.423747,0.79581 z"
         style="font-size:7.05555534px;text-align:center;text-anchor:middle;stroke-width:0.07000434"
         id="path6049"
         inkscape:connector-curvature="0" />
      <path
         d="m 90.839589,215.02271 v -2.98345 h 0.733805 v 2.42535 h 2.33922 v 0.5581 z"
         style="font-size:7.05555534px;text-align:center;text-anchor:middle;stroke-width:0.07000434"
         id="path6051"
         inkscape:connector-curvature="0" />
      <path
         d="m 94.739434,215.02271 v -2.98345 h 0.733806 v 2.42535 h 2.339219 v 0.5581 z"
         style="font-size:7.05555534px;text-align:center;text-anchor:middle;stroke-width:0.07000434"
         id="path6053"
         inkscape:connector-curvature="0" />
      <path
         d="m 99.393759,212.03237 h 0.127469 q 0.09302,0 0.130913,0.0551 0.0379,0.0517 0.0379,0.20326 v 0.57189 q 0,0.16536 -0.04134,0.2136 -0.04134,0.0482 -0.254937,0.0482 h -0.630452 q -0.09302,0 -0.130914,-0.0551 -0.0379,-0.0551 -0.0379,-0.20671 v -0.57189 q 0,-0.16192 0.04134,-0.21015 0.04134,-0.0482 0.254937,-0.0482 z m 0,1.89825 h 0.127469 q 0.09302,0 0.130913,0.0551 0.0379,0.0517 0.0379,0.20326 v 0.57189 q 0,0.16536 -0.04134,0.21359 -0.04134,0.0482 -0.254937,0.0482 h -0.630452 q -0.09302,0 -0.130914,-0.0551 -0.0379,-0.0551 -0.0379,-0.2067 v -0.57189 q 0,-0.16192 0.04134,-0.21015 0.04134,-0.0482 0.254937,-0.0482 z"
         style="font-size:7.05555534px;text-align:center;text-anchor:middle;stroke-width:0.07000434"
         id="path6055"
         inkscape:connector-curvature="0" />
      <path
         d="m 104.82323,214.33714 h 1.09554 q 0.87506,0 1.24024,-0.27216 0.36518,-0.27216 0.36518,-0.89917 0,-0.55811 -0.30317,-0.84405 -0.30317,-0.28939 -0.89573,-0.28939 h -1.50206 z m -0.84749,0.68557 v -3.64146 h 2.34266 q 1.00253,0 1.53996,0.46853 0.54088,0.46853 0.54088,1.32981 0,0.50987 -0.21015,0.91984 -0.21015,0.40652 -0.59256,0.64079 -0.23771,0.14814 -0.59255,0.21704 -0.3514,0.0654 -0.90262,0.0654 z"
         style="font-size:7.05555534px;text-align:center;text-anchor:middle;stroke-width:0.07000434"
         id="path6057"
         inkscape:connector-curvature="0" />
      <path
         d="m 110.34572,214.45083 h 2.40468 v -1.8638 h -2.40468 z m -0.72692,-1.70877 q 0,-0.40652 0.15848,-0.55466 0.15847,-0.14814 0.61667,-0.14814 h 2.30821 q 0.46165,0 0.61668,0.14814 0.15847,0.14814 0.15847,0.55466 v 1.57441 q 0,0.40997 -0.16192,0.55811 -0.15847,0.14813 -0.61323,0.14813 h -2.30821 q -0.4582,0 -0.61667,-0.14813 -0.15848,-0.14814 -0.15848,-0.55811 z"
         style="font-size:7.05555534px;text-align:center;text-anchor:middle;stroke-width:0.07000434"
         id="path6059"
         inkscape:connector-curvature="0" />
      <path
         d="m 117.72167,215.02271 v -3.64146 h 0.57877 l 2.56315,2.14629 q 0.13092,0.1068 0.23083,0.20326 0.0999,0.093 0.18259,0.19293 -0.0207,-0.30661 -0.0276,-0.43408 -0.007,-0.12747 -0.007,-0.19637 v -1.91203 h 0.76137 v 3.64146 H 121.425 l -2.67339,-2.24964 q -0.0965,-0.0861 -0.16881,-0.15503 -0.0724,-0.0689 -0.13436,-0.14125 0.0172,0.16881 0.0241,0.32039 0.0103,0.14814 0.0103,0.25839 v 1.96714 z"
         style="font-size:7.05555534px;text-align:center;text-anchor:middle;stroke-width:0.07000434"
         id="path6061"
         inkscape:connector-curvature="0" />
      <path
         d="m 124.25012,214.45083 h 2.40468 v -1.8638 h -2.40468 z m -0.72691,-1.70877 q 0,-0.40652 0.15847,-0.55466 0.15848,-0.14814 0.61667,-0.14814 h 2.30822 q 0.46164,0 0.61667,0.14814 0.15848,0.14814 0.15848,0.55466 v 1.57441 q 0,0.40997 -0.16192,0.55811 -0.15848,0.14813 -0.61323,0.14813 h -2.30822 q -0.45819,0 -0.61667,-0.14813 -0.15847,-0.14814 -0.15847,-0.55811 z"
         style="font-size:7.05555534px;text-align:center;text-anchor:middle;stroke-width:0.07000434"
         id="path6063"
         inkscape:connector-curvature="0" />
      <path
         d="m 131.63296,215.02271 v -3.64146 h 0.84749 v 1.41249 h 2.64584 v -1.41249 h 0.85438 v 3.64146 h -0.85438 v -1.56751 h -2.64584 v 1.56751 z"
         style="font-size:7.05555534px;text-align:center;text-anchor:middle;stroke-width:0.07000434"
         id="path6065"
         inkscape:connector-curvature="0" />
      <path
         d="m 137.12789,215.02271 1.77078,-2.98345 h 0.69935 l 1.79834,2.98345 h -0.81649 l -0.37551,-0.65456 h -1.97404 l -0.37552,0.65456 z m 1.41249,-1.19889 h 1.3677 l -0.69591,-1.24368 z"
         style="font-size:7.05555534px;text-align:center;text-anchor:middle;stroke-width:0.07000434"
         id="path6067"
         inkscape:connector-curvature="0" />
      <path
         d="m 144.52106,212.55258 h -1.66053 v 0.82682 h 1.66053 q 0.18948,0 0.25839,-0.0551 0.0723,-0.0551 0.0723,-0.18603 v -0.34451 q 0,-0.13092 -0.0723,-0.18604 -0.0689,-0.0551 -0.25839,-0.0551 z m -2.37711,2.47013 v -2.98345 h 2.68717 q 0.36863,0 0.53399,0.13781 0.16537,0.13435 0.16537,0.44097 v 0.7028 q 0,0.30317 -0.16537,0.43752 -0.16536,0.13436 -0.53399,0.13436 h -0.40996 l 1.41938,1.12999 h -1.04387 l -1.25057,-1.12999 h -0.68557 v 1.12999 z"
         style="font-size:7.05555534px;text-align:center;text-anchor:middle;stroke-width:0.07000434"
         id="path6069"
         inkscape:connector-curvature="0" />
      <path
         d="m 146.73282,215.02271 v -2.98345 h 0.58222 l 1.46072,1.77078 1.45383,-1.77078 h 0.58566 v 2.98345 h -0.67523 v -2.05327 l -1.33326,1.69498 h -0.14125 l -1.35047,-1.64675 v 2.00504 z"
         style="font-size:7.05555534px;text-align:center;text-anchor:middle;stroke-width:0.07000434"
         id="path6071"
         inkscape:connector-curvature="0" />
    </g>
    <flowRoot
       style="font-style:normal;font-variant:normal;font-weight:normal;font-stretch:normal;font-size:22.57777786px;line-height:1.25;font-family:'BankGothic Md BT';-inkscape-font-specification:'BankGothic Md BT';font-variant-ligatures:normal;font-variant-caps:normal;font-variant-numeric:normal;font-feature-settings:normal;text-align:start;letter-spacing:0px;word-spacing:0px;writing-mode:lr-tb;text-anchor:start;stroke-width:0.07000434"
       id="flowRoot2169"
       xml:space="preserve"><flowRegion
         id="flowRegion2171"
         style="stroke-width:0.07000434"><rect
           y="148.17188"
           x="116.68125"
           height="55.430206"
           width="99.351044"
           id="rect2173"
           style="stroke-width:0.01852198" /></flowRegion><flowPara
         id="flowPara2175"
         style="stroke-width:0.07000434" /></flowRoot>    <g
       transform="matrix(-0.08680555,0,0,-0.08680555,163.05394,174.85084)"
       inkscape:label="ink_ext_XXXXXX"
       id="g842">
      <path
         d="m 307.12169,581.66878 c -3.00454,1.73364 -6.70971,1.73364 -9.71425,0 L 55.043299,441.74581 c -3.00552,-1.7369 -4.85745,-4.94674 -4.85745,-8.41728 V 170.89718 c 0,-3.90395 2.33813,-7.42988 5.93935,-8.95171 3.59991,-1.51856 7.75738,-0.73321 10.55662,1.99108 l 66.848111,65.11903 7.82745,44.71943 39.60356,-27.33741 c 2.6236,3.363 8.29084,11.25888 11.69816,20.73199 0.70389,1.965 0.72018,4.10924 0.0359,6.07751 -2.26057,6.50441 -4.44522,14.15589 -6.06285,22.886 -0.81468,4.39927 -0.3451,15.79828 0.59798,28.35413 l -51.67615,7.16267 c -0.95579,0.13361 -1.66228,0.94829 -1.66228,1.90962 v 3.53897 c 0,5.03472 3.68008,9.31668 8.66233,10.07596 l 38.93032,5.9211 c 2.36388,0.35846 4.32009,2.00411 5.08035,4.26892 l 33.40906,99.23133 c 1.69453,5.03146 6.25023,8.54762 11.54565,8.90608 l 41.96255,2.85139 c 4.2233,0.2835 8.45312,-0.3161 12.42876,-1.75971 L 314.783,456.10373 c 5.70276,-2.0758 11.70532,-3.21636 17.7698,-3.37603 l 48.34965,-1.29372 c 3.18377,-0.088 6.10359,-1.78578 7.74924,-4.51333 l 8.22176,-13.61167 c 1.66194,-2.75688 2.7862,-5.8103 3.30108,-8.9843 l 17.20605,-105.82372 c 0.22811,-1.39473 1.20573,-2.54832 2.54506,-2.99802 l 48.99813,-16.46958 c 3.42166,-1.15033 6.21764,-3.66932 7.72317,-6.94759 l 3.0078,-6.56958 c 0.15968,-0.34217 0.12058,-0.73973 -0.10428,-1.03628 -0.22485,-0.2998 -0.58982,-0.45622 -0.96132,-0.40734 l -68.53091,9.50895 c -0.0912,-6.55003 -0.42363,-11.57824 -1.02324,-13.67033 -1.40125,-4.90112 -3.73449,-8.90935 -4.71211,-10.47679 -0.29002,-0.45948 -0.35846,-1.01021 -0.189,-1.52834 l 13.52369,-41.6432 c 0.22485,-0.69411 0.0326,-1.44362 -0.49207,-1.93894 l -8.43031,-8.00994 c -1.20573,-1.14055 -2.83509,-1.73038 -4.50355,-1.61633 l -12.56563,0.88638 c -0.48555,0.0261 -0.9157,-0.30632 -1.00369,-0.77884 -0.57679,-3.08927 -2.45056,-13.94081 -1.09819,-19.05048 0.2216,-0.83098 -0.18249,-1.70757 -0.96784,-2.07255 -2.54506,-1.18617 -4.9891,-2.12469 -5.93413,-2.47989 -0.23463,-0.088 -0.35846,-0.33565 -0.29002,-0.58005 l 3.03061,-10.42791 c 0.11079,-0.3943 -0.10102,-0.8049 -0.48555,-0.93199 l -6.70971,-2.23549 c -0.25744,-0.0912 -0.44645,-0.31283 -0.47903,-0.58331 l -2.80902,-23.51493 c -0.0717,-0.62242 -0.46926,-1.16336 -1.04279,-1.42732 l -20.15845,-9.22218 c -0.6159,-0.28351 -1.30675,-0.36824 -1.96827,-0.22159 -3.50312,0.75602 -15.6549,4.14835 -36.61825,17.87734 -4.39276,2.87745 -10.10855,2.75688 -14.38074,-0.29328 -2.41471,-1.73038 -5.08035,-3.5846 -7.48202,-5.23351 l 55.26465,-39.09162 -58.50056,-2.58417 c -0.41712,0.013 -0.82446,-0.1499 -1.11449,-0.45622 -0.29002,-0.30958 -0.43015,-0.72669 -0.38778,-1.14707 l 0.0684,-0.65174 c 0.12709,-1.21225 -0.26396,-2.42123 -1.07864,-3.33693 -0.82119,-0.90267 -1.9813,-1.41755 -3.20332,-1.41755 -0.35846,0 -0.69411,-0.17597 -0.90592,-0.46925 -0.21182,-0.29003 -0.26722,-0.66804 -0.15642,-1.00369 l 0.55398,-1.65217 c 0.4106,-1.23506 0.29654,-2.56787 -0.30958,-3.705169 -0.60938,-1.137291 -1.65217,-1.978041 -2.89374,-2.323465 l -6.20461,-1.717346 c -1.40125,-0.394306 -2.30717,-1.753192 -2.12143,-3.193547 l 26.20338,-78.065929 c 0.92874,-2.760137 3.04691,-4.9630333 5.77446,-5.9960477 2.72755,-1.0297559 5.77119,-0.7820931 8.2967,0.6745554 L 549.48583,145.0653 c 3.00454,1.73364 4.8555,4.94348 4.8555,8.41401 v 279.84922 c 0,3.47054 -1.85096,6.68038 -4.8555,8.41728 L 307.12169,581.66878"
         style="fill:#231f20;fill-opacity:1;fill-rule:nonzero;stroke:none;stroke-width:0.32587215"
         id="path846"
         inkscape:connector-curvature="0" />
    </g>
    <g
       transform="matrix(0.08680555,0,0,-0.08680555,52.889776,174.25623)"
       inkscape:label="ink_ext_XXXXXX"
       id="g990">
      <path
         sodipodi:nodetypes="cccsscccccssssscsssccsscccccccccccccccccccccccsssscczzzczsscccccccccscccccccccccsscc"
         d="m 258.75471,574.81892 c -3.00337,1.73363 -6.70707,1.73363 -9.71043,0 L 6.7751669,434.89594 c -3.0043398,-1.73691 -4.855545,-4.94675 -4.855545,-8.41729 V 164.04729 c 0,-3.90396 2.337217,-7.42988 5.9370179,-8.95171 3.5984972,-1.51857 7.7543432,-0.7332 10.5524862,1.99107 l 66.821899,65.11905 7.824365,44.71943 39.58805,-27.33741 c 2.62257,3.36299 8.30031,11.25432 11.69358,20.73198 1.57179,4.39015 5.36089,6.82936 -5.98315,9.67304 -2.80578,0.70333 -12.96968,4.7614 -5.32435,12.61929 4.99754,5.13646 0.35653,11.40573 -22.19914,4.52059 -24.018315,-7.33163 -31.664823,-2.49137 -32.676307,-34.79009 -0.564755,-18.03373 -16.90962,-43.21458 -65.579029,-47.54648 41.229167,10.57003 32.680644,61.40449 31.959724,67.02497 -7.636857,59.53876 35.669976,43.88592 39.467531,42.45018 37.033271,-14.00114 52.609031,-7.55536 55.498161,-6.97096 5.77355,1.16786 11.36617,-0.66259 1.22842,12.4165 l -53.4746,5.08334 c -0.955406,0.13352 -1.661616,0.94828 -1.661616,1.9096 v 3.53897 c 0,5.03473 3.678638,9.31668 8.658927,10.07596 l 38.915059,5.9211 c 2.36295,0.35847 4.31839,2.00411 5.07835,4.26892 l 33.39596,99.23135 c 1.69388,5.03147 6.24778,8.54761 11.54112,8.90609 l 41.94611,2.85138 c 4.22164,0.28351 8.4498,-0.31609 12.42388,-1.75971 l 28.86095,-10.48983 c 5.70052,-2.07581 11.70073,-3.21636 17.76283,-3.37604 l 48.33069,-1.29371 c 3.18253,-0.088 6.10121,-1.78578 7.74621,-4.51334 l 8.21853,-13.61168 c 1.66129,-2.75688 2.78511,-5.81029 3.29977,-8.98429 l 17.19932,-105.82371 c 0.22801,-1.39475 1.20524,-2.54834 2.54407,-2.99803 l 48.97891,-16.46958 c 3.42032,-1.15034 6.2152,-3.66932 7.72014,-6.94759 l 3.00663,-6.5696 c 0.1596,-0.34216 0.12047,-0.73971 -0.10427,-1.03627 -0.22478,-0.29979 -0.58962,-0.45623 -0.96096,-0.40733 l -68.749,9.60084 c -0.0913,-6.55003 -0.39283,-11.5476 -0.99219,-13.63971 -1.40071,-4.90111 -3.70244,-7.92913 -4.67966,-9.49659 -0.28991,-0.45947 -0.002,-2.08592 -0.006,-2.63106 -0.059,-10.91116 5.1988,-25.99997 7.75998,-31.32955 6.82186,-14.19566 7.79028,-19.35535 2.96344,-22.22295 -9.24763,-5.49398 -24.79414,-0.0271 -25.20729,-7.97402 -0.20469,-3.93732 1.21447,-6.18909 3.94699,-8.43721 4.66643,-2.781 -2.8438,-8.67294 -11.40272,-6.84836 -0.23454,-0.088 0.0128,-0.95739 1.50713,-2.9193 1.49435,-1.96191 3.87216,-4.07578 3.99247,-6.09235 0.12033,-2.01658 -3.21713,-3.92418 -5.03317,-4.65916 -1.81603,-0.735 -0.0592,0.26937 -4.71401,-1.30604 -1.9602,-0.90153 -1.69196,-5.65982 -1.79011,-8.17219 -0.0981,-2.51237 0.57442,-15.05628 -7.2271,-19.1516 -7.03899,-3.69504 -12.48725,-6.02439 -18.5675,-5.20427 -6.08023,0.82012 -14.88327,2.64742 -35.83839,16.3764 -4.39105,2.87745 -9.46159,2.72624 -13.73211,-0.32391 -2.41375,-1.73038 -5.07834,-3.5846 -7.47908,-5.23351 l 55.24298,-39.09161 -58.47763,-2.58417 c -0.41694,0.0137 -0.82413,-0.14992 -1.11404,-0.45622 -0.28991,-0.30958 -0.42999,-0.72672 -0.38764,-1.14708 l 0.0684,-0.65175 c 0.12714,-1.21224 -0.26386,-2.42123 -1.07821,-3.33693 -0.82087,-0.90266 -1.98052,-1.417539 -3.20206,-1.417539 -0.35833,0 -0.69384,-0.175978 -0.90558,-0.469266 -0.21173,-0.290017 -0.2671,-0.668033 -0.15637,-1.003686 l 0.55377,-1.652156 c 0.41042,-1.235058 0.29643,-2.567875 -0.30946,-3.705174 -0.60915,-1.137288 -1.65152,-1.978049 -2.89261,-2.323461 l -6.20217,-1.717343 c -1.4007,-0.394308 -2.30627,-1.753198 -2.12059,-3.193545 L 250.11891,6.7423211 c 0.92837,-2.7601439 3.04573,-4.9630312 5.7722,-5.99605122 2.72648,-1.02975404 5.76893,-0.78209364 8.29345,0.67454762 L 501.02378,138.21541 c 3.00338,1.73364 4.8536,4.94347 4.8536,8.41401 v 279.84923 c 0,3.47054 -1.85022,6.68038 -4.8536,8.41729 L 258.7547,574.81892"
         style="fill:#000000;fill-opacity:1;fill-rule:nonzero;stroke:none;stroke-width:0.32580826"
         id="path994"
         inkscape:connector-curvature="0" />
    </g>
  </g>
</svg>
