<?xml version="1.0" encoding="UTF-8" standalone="no"?>
<!-- Created with Inkscape (http://www.inkscape.org/) -->

<svg
   xmlns:dc="http://purl.org/dc/elements/1.1/"
   xmlns:cc="http://creativecommons.org/ns#"
   xmlns:rdf="http://www.w3.org/1999/02/22-rdf-syntax-ns#"
   xmlns:svg="http://www.w3.org/2000/svg"
   xmlns="http://www.w3.org/2000/svg"
   xmlns:xlink="http://www.w3.org/1999/xlink"
   xmlns:sodipodi="http://sodipodi.sourceforge.net/DTD/sodipodi-0.dtd"
   xmlns:inkscape="http://www.inkscape.org/namespaces/inkscape"
   version="1.1"
   id="svg982"
   xml:space="preserve"
   width="6.999413in"
   height="8in"
   viewBox="0 0 671.94365 768"
   sodipodi:docname="Rainbow_Alice.svg"
   inkscape:version="0.92.3 (2405546, 2018-03-11)"><metadata
     id="metadata988"><rdf:RDF><cc:Work
         rdf:about=""><dc:format>image/svg+xml</dc:format><dc:type
           rdf:resource="http://purl.org/dc/dcmitype/StillImage" /><dc:title></dc:title></cc:Work></rdf:RDF></metadata><defs
     id="defs986"><linearGradient
       inkscape:collect="always"
       xlink:href="#linearGradient2447-2"
       id="linearGradient874"
       x1="252.29475"
       y1="2.4454067"
       x2="252.29475"
       y2="576.30981"
       gradientUnits="userSpaceOnUse" /><linearGradient
       inkscape:collect="always"
       id="linearGradient2447-2"><stop
         style="stop-color:#512886;stop-opacity:1"
         offset="0"
         id="stop2443" /><stop
         id="stop2466"
         offset="0.17"
         style="stop-color:#512886;stop-opacity:1" /><stop
         id="stop2458"
         offset="0.17"
         style="stop-color:#0043ff;stop-opacity:1" /><stop
         style="stop-color:#0027ff;stop-opacity:1"
         offset="0.34"
         id="stop2468" /><stop
         style="stop-color:#4dbd38;stop-opacity:1"
         offset="0.34"
         id="stop2460" /><stop
         id="stop2470"
         offset="0.50999999"
         style="stop-color:#2da040;stop-opacity:1" /><stop
         id="stop2462"
         offset="0.50999999"
         style="stop-color:#fbca0f;stop-opacity:1" /><stop
         style="stop-color:#fbca0f;stop-opacity:1"
         offset="0.68000001"
         id="stop2472" /><stop
         style="stop-color:#f7970f;stop-opacity:1"
         offset="0.68000001"
         id="stop2464" /><stop
         id="stop2474"
         offset="0.85000002"
         style="stop-color:#f7970f;stop-opacity:1" /><stop
         style="stop-color:#ff0052;stop-opacity:1"
         offset="0.85000002"
         id="stop2476" /><stop
         style="stop-color:#ff0000;stop-opacity:1"
         offset="1"
         id="stop2445" /></linearGradient></defs><sodipodi:namedview
     pagecolor="#ffffff"
     bordercolor="#666666"
     borderopacity="1"
     objecttolerance="10"
     gridtolerance="10"
     guidetolerance="10"
     inkscape:pageopacity="0"
     inkscape:pageshadow="2"
     inkscape:window-width="3840"
     inkscape:window-height="2049"
     id="namedview984"
     showgrid="false"
     inkscape:zoom="1.1919192"
     inkscape:cx="273.7391"
     inkscape:cy="544.63644"
     inkscape:window-x="0"
     inkscape:window-y="55"
     inkscape:window-maximized="1"
     inkscape:current-layer="g990"
     units="in" /><g
     id="g990"
     inkscape:groupmode="layer"
     inkscape:label="ink_ext_XXXXXX"
     transform="matrix(1.3333333,0,0,-1.3333333,-2.5594958,768.15884)"><path
       inkscape:connector-curvature="0"
       id="path994"
       style="fill:url(#linearGradient874);fill-opacity:1;fill-rule:nonzero;stroke:none;stroke-width:0.32580826"
       d="m 258.75471,574.81892 c -3.00337,1.73363 -6.70707,1.73363 -9.71043,0 L 6.7751669,434.89594 c -3.0043398,-1.73691 -4.855545,-4.94675 -4.855545,-8.41729 V 164.04729 c 0,-3.90396 2.337217,-7.42988 5.9370179,-8.95171 3.5984972,-1.51857 7.7543432,-0.7332 10.5524862,1.99107 l 66.821899,65.11905 7.824365,44.71943 39.58805,-27.33741 c 2.62257,3.36299 8.30031,11.25432 11.69358,20.73198 1.57179,4.39015 5.36089,6.82936 -5.98315,9.67304 -2.80578,0.70333 -12.96968,4.7614 -5.32435,12.61929 4.99754,5.13646 0.35653,11.40573 -22.19914,4.52059 -24.018315,-7.33163 -31.664823,-2.49137 -32.676307,-34.79009 -0.564755,-18.03373 -16.90962,-43.21458 -65.579029,-47.54648 41.229167,10.57003 32.680644,61.40449 31.959724,67.02497 -7.636857,59.53876 35.669976,43.88592 39.467531,42.45018 37.033271,-14.00114 52.609031,-7.55536 55.498161,-6.97096 5.77355,1.16786 11.36617,-0.66259 1.22842,12.4165 l -53.4746,5.08334 c -0.955406,0.13352 -1.661616,0.94828 -1.661616,1.9096 v 3.53897 c 0,5.03473 3.678638,9.31668 8.658927,10.07596 l 38.915059,5.9211 c 2.36295,0.35847 4.31839,2.00411 5.07835,4.26892 l 33.39596,99.23135 c 1.69388,5.03147 6.24778,8.54761 11.54112,8.90609 l 41.94611,2.85138 c 4.22164,0.28351 8.4498,-0.31609 12.42388,-1.75971 l 28.86095,-10.48983 c 5.70052,-2.07581 11.70073,-3.21636 17.76283,-3.37604 l 48.33069,-1.29371 c 3.18253,-0.088 6.10121,-1.78578 7.74621,-4.51334 l 8.21853,-13.61168 c 1.66129,-2.75688 2.78511,-5.81029 3.29977,-8.98429 l 17.19932,-105.82371 c 0.22801,-1.39475 1.20524,-2.54834 2.54407,-2.99803 l 48.97891,-16.46958 c 3.42032,-1.15034 6.2152,-3.66932 7.72014,-6.94759 l 3.00663,-6.5696 c 0.1596,-0.34216 0.12047,-0.73971 -0.10427,-1.03627 -0.22478,-0.29979 -0.58962,-0.45623 -0.96096,-0.40733 l -68.749,9.60084 c -0.0913,-6.55003 -0.39283,-11.5476 -0.99219,-13.63971 -1.40071,-4.90111 -3.70244,-7.92913 -4.67966,-9.49659 -0.28991,-0.45947 -0.002,-2.08592 -0.006,-2.63106 -0.059,-10.91116 5.1988,-25.99997 7.75998,-31.32955 6.82186,-14.19566 7.79028,-19.35535 2.96344,-22.22295 -9.24763,-5.49398 -24.79414,-0.0271 -25.20729,-7.97402 -0.20469,-3.93732 1.21447,-6.18909 3.94699,-8.43721 4.66643,-2.781 -2.8438,-8.67294 -11.40272,-6.84836 -0.23454,-0.088 0.0128,-0.95739 1.50713,-2.9193 1.49435,-1.96191 3.87216,-4.07578 3.99247,-6.09235 0.12033,-2.01658 -3.21713,-3.92418 -5.03317,-4.65916 -1.81603,-0.735 -0.0592,0.26937 -4.71401,-1.30604 -1.9602,-0.90153 -1.69196,-5.65982 -1.79011,-8.17219 -0.0981,-2.51237 0.57442,-15.05628 -7.2271,-19.1516 -7.03899,-3.69504 -12.48725,-6.02439 -18.5675,-5.20427 -6.08023,0.82012 -14.88327,2.64742 -35.83839,16.3764 -4.39105,2.87745 -9.46159,2.72624 -13.73211,-0.32391 -2.41375,-1.73038 -5.07834,-3.5846 -7.47908,-5.23351 l 55.24298,-39.09161 -58.47763,-2.58417 c -0.41694,0.0137 -0.82413,-0.14992 -1.11404,-0.45622 -0.28991,-0.30958 -0.42999,-0.72672 -0.38764,-1.14708 l 0.0684,-0.65175 c 0.12714,-1.21224 -0.26386,-2.42123 -1.07821,-3.33693 -0.82087,-0.90266 -1.98052,-1.417539 -3.20206,-1.417539 -0.35833,0 -0.69384,-0.175978 -0.90558,-0.469266 -0.21173,-0.290017 -0.2671,-0.668033 -0.15637,-1.003686 l 0.55377,-1.652156 c 0.41042,-1.235058 0.29643,-2.567875 -0.30946,-3.705174 -0.60915,-1.137288 -1.65152,-1.978049 -2.89261,-2.323461 l -6.20217,-1.717343 c -1.4007,-0.394308 -2.30627,-1.753198 -2.12059,-3.193545 L 250.11891,6.7423211 c 0.92837,-2.7601439 3.04573,-4.9630312 5.7722,-5.99605122 2.72648,-1.02975404 5.76893,-0.78209364 8.29345,0.67454762 L 501.02378,138.21541 c 3.00338,1.73364 4.8536,4.94347 4.8536,8.41401 v 279.84923 c 0,3.47054 -1.85022,6.68038 -4.8536,8.41729 L 258.7547,574.81892"
       sodipodi:nodetypes="cccsscccccssssscsssccsscccccccccccccccccccccccsssscczzzczsscccccccccscccccccccccsscc" /></g></svg>