<?xml version="1.0" encoding="UTF-8" standalone="no"?>
<!-- Created with Inkscape (http://www.inkscape.org/) -->

<svg
   xmlns:dc="http://purl.org/dc/elements/1.1/"
   xmlns:cc="http://creativecommons.org/ns#"
   xmlns:rdf="http://www.w3.org/1999/02/22-rdf-syntax-ns#"
   xmlns:svg="http://www.w3.org/2000/svg"
   xmlns="http://www.w3.org/2000/svg"
   xmlns:sodipodi="http://sodipodi.sourceforge.net/DTD/sodipodi-0.dtd"
   xmlns:inkscape="http://www.inkscape.org/namespaces/inkscape"
   version="1.1"
   id="svg815"
   xml:space="preserve"
   width="3.5in"
   height="2.5in"
   viewBox="0 0 336.00001 240.00001"
   sodipodi:docname="SecKC_Hoodie_Front.svg"
   inkscape:version="0.92.4 (5da689c313, 2019-01-14)"
   inkscape:export-filename="/home/jferg/hoodie_left_breast.png"
   inkscape:export-xdpi="599.93164"
   inkscape:export-ydpi="599.93164"><metadata
     id="metadata821"><rdf:RDF><cc:Work
         rdf:about=""><dc:format>image/svg+xml</dc:format><dc:type
           rdf:resource="http://purl.org/dc/dcmitype/StillImage" /><dc:title></dc:title></cc:Work></rdf:RDF></metadata><defs
     id="defs819" /><sodipodi:namedview
     pagecolor="#ffffff"
     bordercolor="#666666"
     borderopacity="1"
     objecttolerance="10"
     gridtolerance="10"
     guidetolerance="10"
     inkscape:pageopacity="0"
     inkscape:pageshadow="2"
     inkscape:window-width="3832"
     inkscape:window-height="2093"
     id="namedview817"
     showgrid="false"
     inkscape:zoom="6.2675374"
     inkscape:cx="142.92351"
     inkscape:cy="122.74372"
     inkscape:window-x="0"
     inkscape:window-y="28"
     inkscape:window-maximized="0"
     inkscape:current-layer="g823"
     units="in" /><g
     id="g823"
     inkscape:groupmode="layer"
     inkscape:label="ink_ext_XXXXXX"
     transform="matrix(1.3333333,0,0,-1.3333333,-309.93333,595.21333)"><g
       id="g850"
       transform="matrix(0.47463828,0,0,0.47463828,176.03918,157.40149)"
       style="fill:#000000;fill-opacity:1"><path
         d="m 239.947,285.559 c 0,0 6.6,-6.028 13.934,-6.028 2.932,0 6.109,1.141 6.109,4.645 0,6.926 -26.236,6.679 -26.234,24.606 0,10.757 9.042,17.844 20.612,17.844 12.552,0 18.741,-6.6 18.741,-6.6 l -6.028,-11.652 c 0,0 -5.868,5.134 -12.874,5.134 -2.932,0 -6.193,-1.302 -6.193,-4.563 0,-7.332 26.237,-6.028 26.238,-24.443 -0.001,-9.695 -7.415,-18.091 -20.534,-18.091 -13.69,0 -21.268,8.312 -21.268,8.312 l 7.497,10.836"
         style="fill:#000000;fill-opacity:1;fill-rule:nonzero;stroke:none;stroke-width:0.1"
         id="path829"
         inkscape:connector-curvature="0" /><path
         d="m 295.023,325.648 36.502,0.002 0.001,-12.223 h -22.245 v -10.594 h 17.763 V 290.61 h -17.763 l -0.002,-10.999 h 23.388 v -12.223 h -37.645 l 0.001,58.26"
         style="fill:#000000;fill-opacity:1;fill-rule:nonzero;stroke:none;stroke-width:0.1"
         id="path831"
         inkscape:connector-curvature="0" /><path
         d="m 380.02,326.626 c 14.421,0 21.834,-8.228 21.834,-8.228 l -6.597,-10.757 c 0,0 -6.522,5.946 -14.588,5.946 -11.162,0 -16.459,-8.229 -16.459,-16.619 0,-8.638 5.707,-17.517 16.459,-17.517 8.802,0 15.484,7.168 15.484,7.168 l 7.332,-10.429 c 0,0 -8.228,-9.779 -23.465,-9.779 -18.254,0 -30.56,12.958 -30.56,30.232 0,16.944 13.039,29.983 30.56,29.983"
         style="fill:#000000;fill-opacity:1;fill-rule:nonzero;stroke:none;stroke-width:0.1"
         id="path833"
         inkscape:connector-curvature="0" /><path
         d="m 422.164,325.648 14.26,0.002 v -22.491 h 5.867 l 12.062,22.491 h 15.317 l -15.725,-27.868 v -0.163 l 16.623,-30.231 h -15.973 l -12.304,23.631 h -5.867 v -23.631 h -14.26 v 58.26"
         style="fill:#000000;fill-opacity:1;fill-rule:nonzero;stroke:none;stroke-width:0.1"
         id="path835"
         inkscape:connector-curvature="0" /><path
         d="m 513.837,326.626 c 14.421,0 21.838,-8.228 21.838,-8.228 l -6.601,-10.757 c 0,0 -6.517,5.947 -14.586,5.946 -11.162,0 -16.462,-8.229 -16.462,-16.619 0,-8.638 5.706,-17.517 16.464,-17.517 8.797,0 15.481,7.168 15.481,7.168 l 7.336,-10.429 c 0,0 -8.233,-9.779 -23.47,-9.78 -18.253,0 -30.554,12.959 -30.554,30.233 0,16.944 13.034,29.983 30.554,29.983"
         style="fill:#000000;fill-opacity:1;fill-rule:nonzero;stroke:none;stroke-width:0.1"
         id="path837"
         inkscape:connector-curvature="0" /></g><path
       inkscape:connector-curvature="0"
       id="path994"
       style="fill:#000000;fill-opacity:1;fill-rule:nonzero;stroke:none;stroke-width:0.06108908"
       d="m 300.02172,446.22461 c -0.56313,0.32506 -1.25757,0.32506 -1.8207,0 l -45.42549,-26.23557 c -0.56331,-0.32568 -0.91042,-0.92752 -0.91042,-1.57824 v -49.20592 c 0,-0.73199 0.43822,-1.39311 1.11319,-1.67845 0.67472,-0.28473 1.45395,-0.13747 1.97859,0.37334 l 12.52913,12.20982 1.46706,8.3849 7.42277,-5.12577 c 0.49172,0.63056 1.5563,2.11019 2.19254,3.88725 0.29471,0.82315 1.00517,1.2805 -1.12184,1.8137 -0.52608,0.13187 -2.43182,0.89276 -0.99832,2.36612 0.93704,0.96308 0.0668,2.13857 -4.16234,0.84761 -4.50343,-1.37469 -5.93716,-0.46713 -6.12681,-6.52315 -0.10589,-3.38132 -3.17055,-8.10274 -12.29607,-8.91497 7.73047,1.98188 6.12762,11.51335 5.99245,12.56719 -1.43192,11.16352 6.68813,8.22861 7.40016,7.95941 6.94375,-2.62521 9.8642,-1.41662 10.40591,-1.30706 1.08254,0.21898 2.13117,-0.12423 0.23033,2.32811 l -10.02649,0.95312 c -0.17914,0.025 -0.31155,0.17781 -0.31155,0.35805 v 0.66355 c 0,0.94402 0.68974,1.74688 1.62355,1.88925 l 7.29658,1.11021 c 0.44305,0.0672 0.80969,0.37577 0.95219,0.80042 l 6.26175,18.60589 c 0.3176,0.9434 1.17145,1.60269 2.16396,1.66989 l 7.8649,0.53464 c 0.79155,0.0532 1.58434,-0.0593 2.32948,-0.32995 l 5.41143,-1.96684 c 1.06885,-0.38922 2.19388,-0.60307 3.33053,-0.63301 l 9.06201,-0.24257 c 0.59672,-0.0165 1.14398,-0.33483 1.45242,-0.84625 l 1.54097,-2.55219 c 0.31149,-0.51692 0.52221,-1.08943 0.61871,-1.68456 l 3.22487,-19.84196 c 0.0428,-0.26152 0.22598,-0.47781 0.47702,-0.56213 l 9.18355,-3.08805 c 0.6413,-0.21569 1.16534,-0.688 1.44753,-1.30267 l 0.56374,-1.2318 c 0.0299,-0.0642 0.0226,-0.1387 -0.0195,-0.1943 -0.0421,-0.0562 -0.11056,-0.0855 -0.18018,-0.0764 l -12.89045,1.80016 c -0.0171,-1.22813 -0.0737,-2.16518 -0.18603,-2.55745 -0.26264,-0.91895 -0.69421,-1.48671 -0.87745,-1.78061 -0.0543,-0.0861 -3.7e-4,-0.39111 -8.6e-4,-0.49332 -0.0111,-2.04585 0.97479,-4.875 1.455,-5.8743 1.2791,-2.66169 1.46068,-3.62913 0.55565,-4.16681 -1.73394,-1.03012 -4.6489,-0.005 -4.72637,-1.49513 -0.0384,-0.73824 0.22771,-1.16045 0.74006,-1.58197 0.87495,-0.52145 -0.53321,-1.62618 -2.13801,-1.28407 -0.044,-0.0165 0.003,-0.17951 0.28258,-0.54737 0.28019,-0.36786 0.72603,-0.76421 0.74859,-1.14232 0.0226,-0.37811 -0.60321,-0.73578 -0.94372,-0.87359 -0.3405,-0.13781 -0.0111,0.0505 -0.88388,-0.24488 -0.36753,-0.16904 -0.31724,-1.06122 -0.33564,-1.53229 -0.0184,-0.47107 0.1077,-2.82306 -1.35508,-3.59093 -1.31981,-0.69282 -2.34136,-1.12957 -3.48141,-0.9758 -1.14004,0.15377 -2.79062,0.49639 -6.71971,3.07057 -0.82332,0.53953 -1.77405,0.51118 -2.57477,-0.0607 -0.45257,-0.32444 -0.95219,-0.67211 -1.40232,-0.98128 l 10.35806,-7.32969 -10.96456,-0.48453 c -0.0782,0.003 -0.15453,-0.0281 -0.20888,-0.0855 -0.0543,-0.058 -0.0806,-0.13626 -0.0726,-0.21508 l 0.0129,-0.1222 c 0.0239,-0.2273 -0.0495,-0.45398 -0.20216,-0.62567 -0.15391,-0.16926 -0.37135,-0.26579 -0.60039,-0.26579 -0.0672,0 -0.13009,-0.033 -0.16979,-0.088 -0.0397,-0.0544 -0.0501,-0.12525 -0.0293,-0.18818 l 0.10383,-0.30979 c 0.077,-0.23157 0.0556,-0.48147 -0.058,-0.69472 -0.11421,-0.21324 -0.30966,-0.37088 -0.54237,-0.43564 l -1.1629,-0.32201 c -0.26263,-0.0739 -0.43242,-0.32872 -0.39761,-0.59879 l 4.91129,-14.63737 c 0.17408,-0.51753 0.57107,-0.93057 1.08229,-1.12426 0.51121,-0.19308 1.08168,-0.14664 1.55502,0.12648 l 44.40739,25.649 c 0.56313,0.32505 0.91005,0.9269 0.91005,1.57762 v 52.47177 c 0,0.65073 -0.34692,1.25257 -0.91005,1.57825 l -45.42562,26.2356"
       sodipodi:nodetypes="cccsscccccssssscsssccsscccccccccccccccccccccccsssscczzzczsscccccccccscccccccccccsscc" /><path
       inkscape:connector-curvature="0"
       id="path846"
       style="fill:#000000;fill-opacity:1;fill-rule:nonzero;stroke:none;stroke-width:0.0611011"
       d="m 416.70634,446.02188 c 0.56334,0.32507 1.25807,0.32507 1.82142,0 l 45.44333,-26.23558 c 0.56355,-0.32567 0.91077,-0.92751 0.91077,-1.57825 v -49.20593 c 0,-0.732 -0.43839,-1.39311 -1.11362,-1.67845 -0.67498,-0.28472 -1.45451,-0.13748 -1.97937,0.37333 l -12.53404,12.20984 -1.46765,8.3849 -7.42567,-5.12578 c -0.49194,0.63057 -1.55454,2.11104 -2.19341,3.88726 -0.13198,0.36843 -0.13503,0.77048 -0.008,1.13953 0.42385,1.21957 0.83347,2.65424 1.13679,4.29113 0.15275,0.82486 0.0648,2.96219 -0.11214,5.31641 l 9.68928,1.343 c 0.17921,0.0251 0.31168,0.1778 0.31168,0.35805 v 0.66357 c 0,0.94401 -0.69001,1.74687 -1.62419,1.88924 l -7.29944,1.1102 c -0.44324,0.0673 -0.81002,0.37578 -0.95257,0.80044 l -6.2642,18.60589 c -0.31773,0.9434 -1.17193,1.60267 -2.16483,1.66989 l -7.86798,0.53464 c -0.79187,0.0531 -1.58495,-0.0593 -2.33039,-0.32996 l -5.41356,-1.96684 c -1.06928,-0.3892 -2.19475,-0.60306 -3.33184,-0.633 l -9.06558,-0.24257 c -0.59695,-0.0165 -1.14441,-0.33484 -1.45298,-0.84626 l -1.54159,-2.55219 c -0.3116,-0.51692 -0.5224,-1.08943 -0.61893,-1.68456 l -3.22615,-19.84197 c -0.0427,-0.26151 -0.22608,-0.47781 -0.4772,-0.56213 l -9.18716,-3.08805 c -0.64157,-0.21569 -1.16581,-0.688 -1.4481,-1.30267 l -0.56396,-1.2318 c -0.0299,-0.0641 -0.0226,-0.1387 0.0195,-0.1943 0.0422,-0.0563 0.11063,-0.0855 0.18026,-0.0764 l 12.84955,1.78294 c 0.0171,-1.22813 0.0794,-2.17093 0.19186,-2.5632 0.26274,-0.91895 0.70021,-1.6705 0.88352,-1.9644 0.0544,-0.0862 0.0673,-0.18941 0.0355,-0.28655 l -2.53569,-7.80812 c -0.0422,-0.13014 -0.006,-0.27067 0.0923,-0.36355 l 1.58068,-1.50187 c 0.22607,-0.21384 0.53158,-0.32444 0.84441,-0.30306 l 2.35606,0.1662 c 0.091,0.005 0.17169,-0.0574 0.18819,-0.14604 0.10821,-0.57923 0.45949,-2.6139 0.20591,-3.57197 -0.0416,-0.15581 0.0342,-0.32016 0.18147,-0.3886 0.47721,-0.22241 0.93546,-0.39839 1.11266,-0.46498 0.044,-0.0165 0.0673,-0.063 0.0544,-0.10872 l -0.56825,-1.95523 c -0.0208,-0.0739 0.019,-0.15092 0.091,-0.17476 l 1.25807,-0.41914 c 0.0483,-0.0171 0.0838,-0.0587 0.0898,-0.10936 l 0.52669,-4.40905 c 0.0134,-0.1167 0.0879,-0.21812 0.19553,-0.26762 l 3.77971,-1.72916 c 0.11544,-0.0531 0.24502,-0.0691 0.36905,-0.0416 0.65684,0.14176 2.9353,0.77783 6.86593,3.35201 0.82365,0.53952 1.89535,0.51692 2.6964,-0.055 0.45275,-0.32444 0.95256,-0.67211 1.40287,-0.98128 l -10.36213,-7.32968 10.96887,-0.48454 c 0.0782,0.003 0.15459,-0.0281 0.20896,-0.0855 0.0544,-0.058 0.0806,-0.13626 0.0727,-0.21507 l -0.0128,-0.12216 c -0.0238,-0.22728 0.0495,-0.45398 0.20225,-0.62568 0.15397,-0.16924 0.37149,-0.26578 0.60061,-0.26578 0.0673,0 0.13015,-0.0329 0.16987,-0.0879 0.0397,-0.0544 0.0502,-0.1252 0.0293,-0.18819 l -0.10391,-0.30978 c -0.077,-0.23158 -0.0556,-0.48147 0.058,-0.69472 0.11429,-0.21324 0.30978,-0.37088 0.54256,-0.43565 l 1.16337,-0.32201 c 0.26273,-0.0739 0.43261,-0.32871 0.39777,-0.59879 l -4.91314,-14.63737 c -0.17413,-0.51752 -0.57129,-0.93057 -1.0827,-1.12426 -0.51142,-0.19309 -1.08211,-0.14665 -1.55564,0.12646 l -44.42477,25.64902 c -0.56335,0.32507 -0.91041,0.92691 -0.91041,1.57763 v 52.4718 c 0,0.65073 0.34706,1.25258 0.91041,1.57823 l 45.44334,26.2356" /></g></svg>