<?xml version="1.0" encoding="UTF-8" standalone="no"?>
<!-- Created with Inkscape (http://www.inkscape.org/) -->

<svg
   xmlns:dc="http://purl.org/dc/elements/1.1/"
   xmlns:cc="http://creativecommons.org/ns#"
   xmlns:rdf="http://www.w3.org/1999/02/22-rdf-syntax-ns#"
   xmlns:svg="http://www.w3.org/2000/svg"
   xmlns="http://www.w3.org/2000/svg"
   xmlns:xlink="http://www.w3.org/1999/xlink"
   xmlns:sodipodi="http://sodipodi.sourceforge.net/DTD/sodipodi-0.dtd"
   xmlns:inkscape="http://www.inkscape.org/namespaces/inkscape"
   version="1.1"
   id="svg834"
   xml:space="preserve"
   width="672.20703"
   height="897.24066"
   viewBox="0 0 672.20704 897.24066"
   sodipodi:docname="SecKCnicorn-Glasses-Headphones.svg"
   inkscape:version="0.92.4 (5da689c313, 2019-01-14)"
   inkscape:export-filename="/home/jferg/Documents/SecKC/Swag/Images/SecKCnicorn-Glasses-Headphones.png"
   inkscape:export-xdpi="298.50699"
   inkscape:export-ydpi="298.50699"><metadata
     id="metadata840"><rdf:RDF><cc:Work
         rdf:about=""><dc:format>image/svg+xml</dc:format><dc:type
           rdf:resource="http://purl.org/dc/dcmitype/StillImage" /><dc:title></dc:title></cc:Work></rdf:RDF></metadata><defs
     id="defs838"><linearGradient
       id="linearGradient2447-2"
       inkscape:collect="always"><stop
         id="stop2443"
         offset="0"
         style="stop-color:#512886;stop-opacity:1" /><stop
         style="stop-color:#512886;stop-opacity:1"
         offset="0.17"
         id="stop2466" /><stop
         style="stop-color:#0043ff;stop-opacity:1"
         offset="0.17"
         id="stop2458" /><stop
         id="stop2468"
         offset="0.34"
         style="stop-color:#0027ff;stop-opacity:1" /><stop
         id="stop2460"
         offset="0.34"
         style="stop-color:#4dbd38;stop-opacity:1" /><stop
         style="stop-color:#2da040;stop-opacity:1"
         offset="0.50999999"
         id="stop2470" /><stop
         style="stop-color:#fbca0f;stop-opacity:1"
         offset="0.50999999"
         id="stop2462" /><stop
         id="stop2472"
         offset="0.68000001"
         style="stop-color:#fbca0f;stop-opacity:1" /><stop
         id="stop2464"
         offset="0.68000001"
         style="stop-color:#f7970f;stop-opacity:1" /><stop
         style="stop-color:#f7970f;stop-opacity:1"
         offset="0.85000002"
         id="stop2474" /><stop
         id="stop2476"
         offset="0.85000002"
         style="stop-color:#ff0052;stop-opacity:1" /><stop
         id="stop2445"
         offset="1"
         style="stop-color:#ff0000;stop-opacity:1" /></linearGradient><linearGradient
       inkscape:collect="always"
       xlink:href="#linearGradient2447-2"
       id="linearGradient5228"
       x1="336.84378"
       y1="766.59967"
       x2="336.84378"
       y2="0.820544"
       gradientUnits="userSpaceOnUse" /></defs><sodipodi:namedview
     pagecolor="#ffffff"
     bordercolor="#666666"
     borderopacity="1"
     objecttolerance="10"
     gridtolerance="10"
     guidetolerance="10"
     inkscape:pageopacity="0"
     inkscape:pageshadow="2"
     inkscape:window-width="3832"
     inkscape:window-height="2093"
     id="namedview836"
     showgrid="false"
     inkscape:zoom="1.1079546"
     inkscape:cx="143.48981"
     inkscape:cy="466.63652"
     inkscape:window-x="0"
     inkscape:window-y="28"
     inkscape:window-maximized="0"
     inkscape:current-layer="g842"
     fit-margin-top="0"
     fit-margin-left="0"
     fit-margin-right="0"
     fit-margin-bottom="0" /><g
     id="g842"
     inkscape:groupmode="layer"
     inkscape:label="ink_ext_XXXXXX"
     transform="matrix(1.3333333,0,0,-1.3333333,-66.914464,777.29199)"><path
       style="fill:url(#linearGradient5228);fill-opacity:1;fill-rule:nonzero;stroke:none;stroke-width:0.43449619"
       d="m 336.10547,0 c -2.23657,0 -4.47354,0.57861503 -6.47656,1.734375 L 6.4765625,188.29688 C 2.4692026,190.61274 0,194.8941 0,199.52148 v 312.06641 c 10.111261,-3.38666 19.498703,-8.04213 29.703125,-14.66992 9.993533,-6.49076 23.451267,-18.02334 31.056641,-26.61524 l 1.351562,-1.52734 -7.470703,-2.54297 c -21.141466,-7.19734 -35.306557,-18.28936 -38.402344,-30.07031 -0.902948,-3.43629 -0.879741,-3.70207 0.296875,-3.4082 2.76177,0.68973 11.701177,1.57521 16.097656,1.59375 14.279093,0.0603 27.63144,-5.14896 37.320313,-14.5586 4.439693,-4.31178 9.742699,-11.74355 12.009766,-16.83203 1.297186,-2.91157 1.367688,-3.54954 0.486328,-4.4043 -1.86568,-1.80934 -6.636849,-2.7566 -14.978516,-2.97656 -11.37862,-0.30002 -17.058389,-0.93855 -20.976562,-2.35547 -3.08028,-1.11397 -4.015624,-2.48992 -1.90625,-2.80468 0.47972,-0.0716 5.448215,-3.08503 11.041015,-6.69727 5.592773,-3.61227 12.114968,-7.49588 14.494141,-8.62891 5.5416,-2.63905 14.102243,-4.55643 19.162109,-4.29296 2.171707,0.11302 4.04389,0.0649 4.160156,-0.10547 0.116267,-0.17036 -0.365445,-1.32172 -1.070312,-2.56055 -2.06448,-3.62839 -7.046977,-6.46574 -18.21875,-10.37305 -14.410633,-5.04009 -13.946132,-4.66317 -9.884766,-8.05273 11.75036,-9.80668 29.079842,-16.08147 47.677736,-17.26367 5.03903,-0.3203 9.25554,-0.71828 9.36914,-0.88477 0.11363,-0.16647 -0.37122,-1.91651 -1.07813,-3.88867 -2.30769,-6.43829 -8.57326,-9.99775 -23.035152,-13.08594 -7.455693,-1.59208 -7.750028,-1.2184 4.701172,-5.94922 18.85415,-7.16358 32.78613,-7.45931 49.65625,-1.05469 l 5.87305,2.22852 0.33789,-1.75781 c 0.69538,-3.60831 -4.18748,-14.15 -12.12305,-26.17188 -2.18459,-3.30948 -3.68727,-6.05946 -3.33984,-6.11133 0.34745,-0.0519 3.99328,-0.0925 8.10156,-0.0898 23.8072,0.0131 43.53291,3.92895 54.25586,10.77149 l 4.4707,2.85156 1.86719,-3.05274 c 2.96035,-4.84442 2.46499,-9.75588 -1.66797,-16.55078 -2.93592,-4.82685 -9.9662,-11.00561 -17.23828,-15.15039 -1.74765,-0.9961 -1.66144,-1.02439 4.43164,-1.51758 18.69048,-1.51292 41.32454,5.01798 62.8457,18.13477 3.62756,2.21092 6.75273,3.9956 6.94532,3.9668 0.94149,-0.14048 -1.69492,-12.69595 -4.65625,-22.17383 l -0.96094,-3.07227 2.83984,1.64844 c 4.62555,2.68527 7.99027,5.40635 19.4668,15.74609 14.13432,12.7342 20.77919,17.24994 27.56445,18.73047 2.98574,0.65152 2.98631,0.65063 2.28321,-0.84961 -6.79607,-14.5009 -7.60071,-24.98396 -3.10352,-40.45508 3.65341,-12.56841 12.04268,-27.33428 22.43945,-39.49414 4.83254,-5.652 4.66681,-5.6568 9.5293,0.25 5.79796,7.04314 11.29615,19.89106 15.67969,36.63672 1.2567,4.80079 2.62463,11.01227 3.04101,13.80274 l 0.75781,5.07226 5.98829,-0.89648 c 3.29358,-0.49425 7.87517,-1.38032 10.18164,-1.96875 l 4.19336,-1.07031 0.30859,-3.2461 c 0.37589,-3.9592 2.53969,-8.99163 5.07422,-11.80078 4.63145,-5.13324 12.96978,-9.72163 22.00781,-12.10937 l 4.24024,-1.1211 0.0469,-2.60937 c 0.0759,-4.20303 1.81288,-9.94531 3.95898,-13.08985 4.29811,-6.29777 13.35102,-11.04057 24.15235,-12.65234 l 5.72265,-0.85352 0.53126,-4.07812 c 1.01065,-7.75193 5.71891,-15.34851 12.52539,-20.20899 3.2398,-2.31415 4.34245,-2.73399 7.92773,-3.01953 l 4.16602,-0.33203 0.42382,-2.95117 c 0.25734,-1.78684 1.61151,-4.70349 3.42774,-7.38672 4.02048,-5.9397 8.24228,-8.34504 18.11328,-10.32031 l 7.17383,-1.43555 0.25976,-3.20508 c 0.56464,-6.9599 7.76458,-14.29905 18.80469,-19.16992 6.09557,-2.68933 14.66151,-5.2328 14.78711,-4.39062 0.17939,1.2021 -4.21724,14.77422 -6.11328,18.87109 -4.04444,8.73892 -10.10009,15.38772 -14.66797,16.10938 -1.12916,0.17836 -1.87134,0.76081 -1.99414,1.56445 -1.93795,12.67947 -7.34858,19.94203 -16.7168,22.43945 -2.11406,0.56356 -3.80488,1.28392 -3.75781,1.59961 0.0471,0.31575 -1.38025,2.88139 -3.17187,5.70313 -3.59119,5.65593 -8.2072,9.61579 -13.67579,11.72851 -3.18458,1.2303 -3.34721,1.42169 -3.70703,4.35157 -1.22701,9.99131 -7.3191,20.82643 -13.87304,24.67578 -2.00459,1.17737 -5.00531,2.5244 -6.66797,2.99414 -2.90686,0.82122 -3.03298,0.96916 -3.3086,3.82422 -1.04414,10.81606 -7.25307,19.15026 -17.69531,23.7539 l -4.54102,2.00196 0.34961,4.85742 c 0.87538,12.16616 -2.88633,19.23931 -13.33984,25.08789 -5.63889,3.15486 -7.79833,6.66818 -8.06836,13.125 -0.22132,5.29252 1.06402,9.11032 7.78906,23.14648 17.5246,36.57639 43.60764,69.39639 83.34961,104.87891 4.05002,3.61597 13.54435,11.92595 21.09766,18.46484 35.90641,31.08404 46.89777,42.95636 54.49414,58.86133 3.06188,6.41088 5.29486,16.57446 5.08984,23.1582 -0.3834,12.31186 -9.14439,30.34001 -17.90625,36.84375 -2.02816,1.50547 -5.589,4.94489 -7.91211,7.64453 -4.9949,5.80456 -12.18701,11.3242 -17.82226,13.67579 -5.24824,2.19109 -13.15152,3.36313 -18.30664,2.71679 -9.25124,-1.15988 -20.51463,-7.12619 -28.95703,-15.33984 -2.52951,-2.46097 -5.29189,-5.12638 -6.13867,-5.92188 -1.1016,-1.0349 -3.43248,-1.67844 -8.19141,-2.26367 -8.66299,-1.06534 -18.18235,-3.37518 -26.83789,-6.51172 -6.81126,-2.46821 -16.24589,-6.8977 -17.16016,-8.05664 -0.25336,-0.32117 -5.32551,0.14205 -11.27148,1.0293 -17.39319,2.59541 -33.39395,2.47256 -47.49219,-0.36524 -8.50935,-1.71282 -14.16837,-3.70792 -21.19336,-7.4707 -4.86437,-2.60548 -14.17596,-9.93602 -14.38281,-11.32226 -0.0491,-0.32895 -0.35012,-0.55919 -0.66797,-0.51172 -0.7032,0.10492 -5.06213,17.71539 -6.88867,27.83203 -9.44006,52.28541 -5.94921,101.67123 10.02148,141.80078 1.39927,3.51591 2.56119,6.50331 2.58203,6.64063 8.64178,21.1252 -0.7207,51.92773 -0.7207,51.92773 3.11431,1.997 9.61312,1.60626 12.98047,-0.33594 l 315.9082,-182.39258 c 4.00606,-2.31152 6.47461,-6.59137 6.47461,-11.21875 v -373.1309 c 0,-4.62738 -2.46855,-8.90874 -6.47461,-11.2246 L 342.58203,1.734375 C 340.579,0.57861503 338.34204,0 336.10547,0 Z"
       transform="matrix(0.75000002,0,0,-0.75000002,50.185849,582.96901)"
       id="path846"
       inkscape:connector-curvature="0"
       sodipodi:nodetypes="sccscccccccccccccccccccsscccscccccccccccccccccccccscccccccccccccccccccccssccccccccccccccccccccscccsccccscscccscccscccccssccs" /><path
       style="fill:#000000;stroke-width:0.24968182"
       d="m 366.71959,263.13202 c 0.40658,0.50883 0.73926,1.02758 0.73926,1.15278 0,0.1252 0.61631,0.60968 1.3696,1.07664 6.58195,4.08008 11.81262,17.70932 13.1531,34.27219 0.29699,3.66941 0.32125,9.60131 0.0401,9.79226 -0.11284,0.0766 -0.27376,1.82076 -0.3576,3.87589 -0.23683,5.80372 -0.82542,11.49138 -1.8222,17.60805 -0.28148,1.72739 -0.56826,3.50644 -0.63724,3.95344 -0.10319,0.66844 -0.0364,0.83835 0.37649,0.95697 1.13627,0.32651 0.21317,2.60865 -1.19239,2.94787 -0.75215,0.18152 -2.83131,-0.30733 -2.83131,-0.66572 0,-0.10921 0.37139,-0.27514 0.82533,-0.36871 0.45392,-0.0936 0.88633,-0.27862 0.96092,-0.41123 0.0746,-0.13259 -0.20202,-0.11177 -0.61469,0.0463 -0.48477,0.18569 -2.0892,0.24045 -4.53382,0.15474 -3.00189,-0.10525 -3.78351,-0.0625 -3.78351,0.20658 0,0.55024 -1.19861,1.42412 -1.95331,1.42412 -0.80324,0 -1.4638,-0.34356 -2.30137,-1.19695 -0.32445,-0.33056 -1.29527,-0.80515 -2.15733,-1.05464 -3.40459,-0.9853 -6.02083,-3.01177 -8.41651,-6.51918 -3.5072,-5.13479 -5.48855,-10.74506 -6.92748,-19.61558 -0.35841,-2.20941 -0.1925,-3.08456 0.53981,-2.84708 0.20588,0.0668 0.10641,-0.0492 -0.22112,-0.2575 -0.44843,-0.28534 -2.18327,-0.44142 -7.02626,-0.63212 -5.78845,-0.22793 -6.46063,-0.21135 -6.72953,0.16595 -0.26868,0.37703 -0.28411,0.37312 -0.15356,-0.0389 0.1237,-0.39031 -0.008,-0.45842 -0.89265,-0.46067 -0.57077,-0.002 -3.66383,-0.11623 -6.87349,-0.25507 -9.448,-0.40871 -37.12784,-1.39673 -51.44956,-1.83647 -4.78171,-0.14683 -11.96321,-0.38394 -15.95889,-0.52692 -3.99567,-0.14298 -9.23502,-0.2629 -11.643,-0.26648 -7.40961,-0.011 -17.41959,-1.09409 -21.81392,-2.36021 -7.7069,-2.22056 -11.03968,-5.08274 -23.6033,-20.27045 -10.2239,-12.35929 -10.25772,-12.4058 -9.9909,-13.7406 0.20461,-1.02364 1.23336,-2.09629 1.99756,-2.08282 1.5267,0.0269 1.93442,0.46085 11.30115,12.0284 2.62263,3.23886 6.49139,7.78054 8.59724,10.09263 8.36689,9.18635 10.15507,9.90847 28.46316,11.4944 2.5444,0.22041 4.67826,0.45797 4.74193,0.52793 0.0636,0.07 0.25776,-0.002 0.43135,-0.16064 0.32247,-0.29407 0.67422,-0.28564 29.02587,0.69532 11.4475,0.39607 26.26159,0.95544 37.51529,1.41653 3.47166,0.14225 8.13426,0.32227 10.36137,0.40006 2.22711,0.0778 5.4159,0.2157 7.08623,0.30647 2.57934,0.14017 3.03695,0.10714 3.03695,-0.21913 0,-0.27768 0.19739,-0.35232 0.71217,-0.26931 0.39165,0.0632 0.66023,0.20709 0.59684,0.31983 -0.22,0.39111 0.65103,0.5217 3.65296,0.54765 1.65962,0.0143 4.37549,0.10267 6.03531,0.1963 1.65978,0.0936 2.97375,0.12215 2.91992,0.0634 -0.0539,-0.0587 0.0137,-0.25465 0.15025,-0.43536 0.17153,-0.22711 0.17333,-1.44694 0.006,-3.94996 -1.04179,-15.56838 -0.16451,-22.92851 3.42278,-28.71623 2.19579,-3.5427 6.33424,-6.03177 10.39044,-6.24931 1.17542,-0.063 1.73324,-0.22831 2.23541,-0.66234 0.42093,-0.36384 1.00145,-0.57835 1.56508,-0.57835 0.72745,0 1.03506,0.17403 1.63524,0.92515 z"
       id="path4261"
       inkscape:connector-curvature="0" /><g
       id="g5341"
       transform="matrix(0.62295621,0,0,-0.62295621,137.73872,400.70843)"><g
         id="g5339"><path
           d="m 157.193,297.598 c 40.684,0 73.788,-33.104 73.788,-73.794 0,-33.844 -22.935,-62.37 -54.055,-71.031 -6.292,-1.75 -12.889,-2.762 -19.733,-2.762 v 0 c -6.846,0 -13.443,1.007 -19.737,2.762 -31.123,8.661 -54.057,37.187 -54.057,71.031 0,40.684 33.103,73.794 73.794,73.794 z m 0,-108.037 c 18.884,0 34.237,15.358 34.237,34.243 0,18.885 -15.354,34.243 -34.237,34.243 -18.882,0 -34.243,-15.358 -34.243,-34.243 0,-18.885 15.361,-34.243 34.243,-34.243 z"
           id="path5327"
           inkscape:connector-curvature="0" /><path
           d="m 157.193,255.396 c 17.419,0 31.586,-14.173 31.586,-31.592 0,-17.419 -14.167,-31.592 -31.586,-31.592 -17.42,0 -31.592,14.173 -31.592,31.592 0,17.419 14.172,31.592 31.592,31.592 z"
           id="path5329"
           inkscape:connector-curvature="0" /><path
           d="m 157.193,314.385 c 50.025,0 90.58,-40.555 90.58,-90.581 0,-28.816 -13.504,-54.438 -34.476,-71.031 h 0.104 c 0,0 -18.869,-16.681 -18.869,-41.645 h -1.745 c -2.252,1.225 -4.8,1.988 -7.539,1.988 h -28.055 -26.735 c -2.742,0 -5.287,-0.764 -7.539,-1.988 h -3.065 c 0,24.964 -18.867,41.645 -18.867,41.645 h 0.101 c -20.977,16.593 -34.476,42.214 -34.476,71.031 -0.006,50.026 40.552,90.581 90.581,90.581 z M 122.626,152.773 c 10.462,-5.111 22.16,-8.065 34.567,-8.065 v 0 c 12.401,0 24.104,2.954 34.563,8.065 26.315,12.855 44.526,39.823 44.526,71.031 0,43.615 -35.475,79.096 -79.09,79.096 -43.618,0 -79.096,-35.48 -79.096,-79.096 10e-4,-31.208 18.215,-58.176 44.53,-71.031 z"
           id="path5331"
           inkscape:connector-curvature="0" /><path
           d="M 195.852,2.651 C 195.852,1.188 194.666,0 193.201,0 h -70.696 c -1.463,0 -2.651,1.188 -2.651,2.651 V 14.53 h 75.999 V 2.651 Z"
           id="path5333"
           inkscape:connector-curvature="0" /><rect
           x="119.853"
           y="19.827"
           width="75.999001"
           height="23.198"
           id="rect5335" /><path
           d="m 130.458,107.814 h 54.79 c 5.856,0 10.604,-4.746 10.604,-10.605 V 80.479 76.588 68.71 48.328 h -75.999 v 20.381 7.868 3.896 16.73 c 0,5.865 4.746,10.611 10.605,10.611 z"
           id="path5337"
           inkscape:connector-curvature="0" /></g></g><g
       transform="matrix(1.510706,0,0,1.510706,-278.08319,-492.42869)"
       id="g850"><path
         d="m 239.947,285.559 c 0,0 6.6,-6.028 13.934,-6.028 2.932,0 6.109,1.141 6.109,4.645 0,6.926 -26.236,6.679 -26.234,24.606 0,10.757 9.042,17.844 20.612,17.844 12.552,0 18.741,-6.6 18.741,-6.6 l -6.028,-11.652 c 0,0 -5.868,5.134 -12.874,5.134 -2.932,0 -6.193,-1.302 -6.193,-4.563 0,-7.332 26.237,-6.028 26.238,-24.443 -0.001,-9.695 -7.415,-18.091 -20.534,-18.091 -13.69,0 -21.268,8.312 -21.268,8.312 l 7.497,10.836"
         style="fill:#231f20;fill-opacity:1;fill-rule:nonzero;stroke:none;stroke-width:0.1"
         id="path829"
         inkscape:connector-curvature="0" /><path
         d="m 295.023,325.648 36.502,0.002 0.001,-12.223 h -22.245 v -10.594 h 17.763 V 290.61 h -17.763 l -0.002,-10.999 h 23.388 v -12.223 h -37.645 l 0.001,58.26"
         style="fill:#231f20;fill-opacity:1;fill-rule:nonzero;stroke:none;stroke-width:0.1"
         id="path831"
         inkscape:connector-curvature="0" /><path
         d="m 380.02,326.626 c 14.421,0 21.834,-8.228 21.834,-8.228 l -6.597,-10.757 c 0,0 -6.522,5.946 -14.588,5.946 -11.162,0 -16.459,-8.229 -16.459,-16.619 0,-8.638 5.707,-17.517 16.459,-17.517 8.802,0 15.484,7.168 15.484,7.168 l 7.332,-10.429 c 0,0 -8.228,-9.779 -23.465,-9.779 -18.254,0 -30.56,12.958 -30.56,30.232 0,16.944 13.039,29.983 30.56,29.983"
         style="fill:#231f20;fill-opacity:1;fill-rule:nonzero;stroke:none;stroke-width:0.1"
         id="path833"
         inkscape:connector-curvature="0" /><path
         d="m 422.164,325.648 14.26,0.002 v -22.491 h 5.867 l 12.062,22.491 h 15.317 l -15.725,-27.868 v -0.163 l 16.623,-30.231 h -15.973 l -12.304,23.631 h -5.867 v -23.631 h -14.26 v 58.26"
         style="fill:#231f20;fill-opacity:1;fill-rule:nonzero;stroke:none;stroke-width:0.1"
         id="path835"
         inkscape:connector-curvature="0" /><path
         d="m 513.837,326.626 c 14.421,0 21.838,-8.228 21.838,-8.228 l -6.601,-10.757 c 0,0 -6.517,5.947 -14.586,5.946 -11.162,0 -16.462,-8.229 -16.462,-16.619 0,-8.638 5.706,-17.517 16.464,-17.517 8.797,0 15.481,7.168 15.481,7.168 l 7.336,-10.429 c 0,0 -8.233,-9.779 -23.47,-9.78 -18.253,0 -30.554,12.959 -30.554,30.233 0,16.944 13.034,29.983 30.554,29.983"
         style="fill:#231f20;fill-opacity:1;fill-rule:nonzero;stroke:none;stroke-width:0.1"
         id="path837"
         inkscape:connector-curvature="0" /></g></g></svg>