<?xml version="1.0" encoding="UTF-8" standalone="no"?>
<!-- Created with Inkscape (http://www.inkscape.org/) -->

<svg
   xmlns:dc="http://purl.org/dc/elements/1.1/"
   xmlns:cc="http://creativecommons.org/ns#"
   xmlns:rdf="http://www.w3.org/1999/02/22-rdf-syntax-ns#"
   xmlns:svg="http://www.w3.org/2000/svg"
   xmlns="http://www.w3.org/2000/svg"
   xmlns:sodipodi="http://sodipodi.sourceforge.net/DTD/sodipodi-0.dtd"
   xmlns:inkscape="http://www.inkscape.org/namespaces/inkscape"
   version="1.1"
   id="svg834"
   xml:space="preserve"
   width="672.20728"
   height="768"
   viewBox="0 0 672.20728 768"
   sodipodi:docname="SecKCnicorn.svg"
   inkscape:version="0.92.4 (5da689c313, 2019-01-14)"><metadata
     id="metadata840"><rdf:RDF><cc:Work
         rdf:about=""><dc:format>image/svg+xml</dc:format><dc:type
           rdf:resource="http://purl.org/dc/dcmitype/StillImage" /><dc:title></dc:title></cc:Work></rdf:RDF></metadata><defs
     id="defs838" /><sodipodi:namedview
     pagecolor="#ffffff"
     bordercolor="#666666"
     borderopacity="1"
     objecttolerance="10"
     gridtolerance="10"
     guidetolerance="10"
     inkscape:pageopacity="0"
     inkscape:pageshadow="2"
     inkscape:window-width="3832"
     inkscape:window-height="2093"
     id="namedview836"
     showgrid="false"
     inkscape:zoom="1.1079546"
     inkscape:cx="246.8334"
     inkscape:cy="337.39586"
     inkscape:window-x="0"
     inkscape:window-y="28"
     inkscape:window-maximized="0"
     inkscape:current-layer="g842" /><g
     id="g842"
     inkscape:groupmode="layer"
     inkscape:label="ink_ext_XXXXXX"
     transform="matrix(1.3333333,0,0,-1.3333333,-66.914464,777.29199)"><path
       style="fill:#000000;fill-opacity:1;fill-rule:nonzero;stroke:none;stroke-width:0.43449619"
       d="m 336.10547,0 c -2.23657,0 -4.47354,0.57861503 -6.47656,1.734375 L 6.4765625,188.29688 C 2.4692026,190.61274 0,194.8941 0,199.52148 v 312.06641 c 10.111261,-3.38666 19.498703,-8.04213 29.703125,-14.66992 9.993533,-6.49076 23.451267,-18.02334 31.056641,-26.61524 l 1.351562,-1.52734 -7.470703,-2.54297 c -21.141466,-7.19734 -35.306557,-18.28936 -38.402344,-30.07031 -0.902948,-3.43629 -0.879741,-3.70207 0.296875,-3.4082 2.76177,0.68973 11.701177,1.57521 16.097656,1.59375 14.279093,0.0603 27.63144,-5.14896 37.320313,-14.5586 4.439693,-4.31178 9.742699,-11.74355 12.009766,-16.83203 1.297186,-2.91157 1.367688,-3.54954 0.486328,-4.4043 -1.86568,-1.80934 -6.636849,-2.7566 -14.978516,-2.97656 -11.37862,-0.30002 -17.058389,-0.93855 -20.976562,-2.35547 -3.08028,-1.11397 -4.015624,-2.48992 -1.90625,-2.80468 0.47972,-0.0716 5.448215,-3.08503 11.041015,-6.69727 5.592773,-3.61227 12.114968,-7.49588 14.494141,-8.62891 5.5416,-2.63905 14.102243,-4.55643 19.162109,-4.29296 2.171707,0.11302 4.04389,0.0649 4.160156,-0.10547 0.116267,-0.17036 -0.365445,-1.32172 -1.070312,-2.56055 -2.06448,-3.62839 -7.046977,-6.46574 -18.21875,-10.37305 -14.410633,-5.04009 -13.946132,-4.66317 -9.884766,-8.05273 11.75036,-9.80668 29.079842,-16.08147 47.677736,-17.26367 5.03903,-0.3203 9.25554,-0.71828 9.36914,-0.88477 0.11363,-0.16647 -0.37122,-1.91651 -1.07813,-3.88867 -2.30769,-6.43829 -8.57326,-9.99775 -23.035152,-13.08594 -7.455693,-1.59208 -7.750028,-1.2184 4.701172,-5.94922 18.85415,-7.16358 32.78613,-7.45931 49.65625,-1.05469 l 5.87305,2.22852 0.33789,-1.75781 c 0.69538,-3.60831 -4.18748,-14.15 -12.12305,-26.17188 -2.18459,-3.30948 -3.68727,-6.05946 -3.33984,-6.11133 0.34745,-0.0519 3.99328,-0.0925 8.10156,-0.0898 23.8072,0.0131 43.53291,3.92895 54.25586,10.77149 l 4.4707,2.85156 1.86719,-3.05274 c 2.96035,-4.84442 2.46499,-9.75588 -1.66797,-16.55078 -2.93592,-4.82685 -9.9662,-11.00561 -17.23828,-15.15039 -1.74765,-0.9961 -1.66144,-1.02439 4.43164,-1.51758 18.69048,-1.51292 41.32454,5.01798 62.8457,18.13477 3.62756,2.21092 6.75273,3.9956 6.94532,3.9668 0.94149,-0.14048 -1.69492,-12.69595 -4.65625,-22.17383 l -0.96094,-3.07227 2.83984,1.64844 c 4.62555,2.68527 7.99027,5.40635 19.4668,15.74609 14.13432,12.7342 20.77919,17.24994 27.56445,18.73047 2.98574,0.65152 2.98631,0.65063 2.28321,-0.84961 -6.79607,-14.5009 -7.60071,-24.98396 -3.10352,-40.45508 3.65341,-12.56841 12.04268,-27.33428 22.43945,-39.49414 4.83254,-5.652 4.66681,-5.6568 9.5293,0.25 5.79796,7.04314 11.29615,19.89106 15.67969,36.63672 1.2567,4.80079 2.62463,11.01227 3.04101,13.80274 l 0.75781,5.07226 5.98829,-0.89648 c 3.29358,-0.49425 7.87517,-1.38032 10.18164,-1.96875 l 4.19336,-1.07031 0.30859,-3.2461 c 0.37589,-3.9592 2.53969,-8.99163 5.07422,-11.80078 4.63145,-5.13324 12.96978,-9.72163 22.00781,-12.10937 l 4.24024,-1.1211 0.0469,-2.60937 c 0.0759,-4.20303 1.81288,-9.94531 3.95898,-13.08985 4.29811,-6.29777 13.35102,-11.04057 24.15235,-12.65234 l 5.72265,-0.85352 0.53126,-4.07812 c 1.01065,-7.75193 5.71891,-15.34851 12.52539,-20.20899 3.2398,-2.31415 4.34245,-2.73399 7.92773,-3.01953 l 4.16602,-0.33203 0.42382,-2.95117 c 0.25734,-1.78684 1.61151,-4.70349 3.42774,-7.38672 4.02048,-5.9397 8.24228,-8.34504 18.11328,-10.32031 l 7.17383,-1.43555 0.25976,-3.20508 c 0.56464,-6.9599 7.76458,-14.29905 18.80469,-19.16992 6.09557,-2.68933 14.66151,-5.2328 14.78711,-4.39062 0.17939,1.2021 -4.21724,14.77422 -6.11328,18.87109 -4.04444,8.73892 -10.10009,15.38772 -14.66797,16.10938 -1.12916,0.17836 -1.87134,0.76081 -1.99414,1.56445 -1.93795,12.67947 -7.34858,19.94203 -16.7168,22.43945 -2.11406,0.56356 -3.80488,1.28392 -3.75781,1.59961 0.0471,0.31575 -1.38025,2.88139 -3.17187,5.70313 -3.59119,5.65593 -8.2072,9.61579 -13.67579,11.72851 -3.18458,1.2303 -3.34721,1.42169 -3.70703,4.35157 -1.22701,9.99131 -7.3191,20.82643 -13.87304,24.67578 -2.00459,1.17737 -5.00531,2.5244 -6.66797,2.99414 -2.90686,0.82122 -3.03298,0.96916 -3.3086,3.82422 -1.04414,10.81606 -7.25307,19.15026 -17.69531,23.7539 l -4.54102,2.00196 0.34961,4.85742 c 0.87538,12.16616 -2.88633,19.23931 -13.33984,25.08789 -5.63889,3.15486 -7.79833,6.66818 -8.06836,13.125 -0.22132,5.29252 1.06402,9.11032 7.78906,23.14648 17.5246,36.57639 43.60764,69.39639 83.34961,104.87891 4.05002,3.61597 13.54435,11.92595 21.09766,18.46484 35.90641,31.08404 46.89777,42.95636 54.49414,58.86133 3.06188,6.41088 5.29486,16.57446 5.08984,23.1582 -0.3834,12.31186 -9.14439,30.34001 -17.90625,36.84375 -2.02816,1.50547 -5.589,4.94489 -7.91211,7.64453 -4.9949,5.80456 -12.18701,11.3242 -17.82226,13.67579 -5.24824,2.19109 -13.15152,3.36313 -18.30664,2.71679 -9.25124,-1.15988 -20.51463,-7.12619 -28.95703,-15.33984 -2.52951,-2.46097 -5.29189,-5.12638 -6.13867,-5.92188 -1.1016,-1.0349 -3.43248,-1.67844 -8.19141,-2.26367 -8.66299,-1.06534 -18.18235,-3.37518 -26.83789,-6.51172 -6.81126,-2.46821 -16.24589,-6.8977 -17.16016,-8.05664 -0.25336,-0.32117 -5.32551,0.14205 -11.27148,1.0293 -17.39319,2.59541 -33.39395,2.47256 -47.49219,-0.36524 -8.50935,-1.71282 -14.16837,-3.70792 -21.19336,-7.4707 -4.86437,-2.60548 -14.17596,-9.93602 -14.38281,-11.32226 -0.0491,-0.32895 -0.35012,-0.55919 -0.66797,-0.51172 -0.7032,0.10492 -5.06213,17.71539 -6.88867,27.83203 -9.44006,52.28541 -5.94921,101.67123 10.02148,141.80078 1.39927,3.51591 2.56119,6.50331 2.58203,6.64063 8.64178,21.1252 -0.7207,51.92773 -0.7207,51.92773 3.11431,1.997 9.61312,1.60626 12.98047,-0.33594 l 315.9082,-182.39258 c 4.00606,-2.31152 6.47461,-6.59137 6.47461,-11.21875 v -373.1309 c 0,-4.62738 -2.46855,-8.90874 -6.47461,-11.2246 L 342.58203,1.734375 C 340.579,0.57861503 338.34204,0 336.10547,0 Z"
       transform="matrix(0.75000002,0,0,-0.75000002,50.185849,582.96901)"
       id="path846"
       inkscape:connector-curvature="0"
       sodipodi:nodetypes="sccscccccccccccccccccccsscccscccccccccccccccccccccscccccccccccccccccccccssccccccccccccccccccccscccsccccscscccscccscccccssccs" /></g></svg>