<?xml version="1.0" encoding="UTF-8" standalone="no"?>
<!-- Created with Inkscape (http://www.inkscape.org/) -->

<svg
   xmlns:dc="http://purl.org/dc/elements/1.1/"
   xmlns:cc="http://creativecommons.org/ns#"
   xmlns:rdf="http://www.w3.org/1999/02/22-rdf-syntax-ns#"
   xmlns:svg="http://www.w3.org/2000/svg"
   xmlns="http://www.w3.org/2000/svg"
   xmlns:sodipodi="http://sodipodi.sourceforge.net/DTD/sodipodi-0.dtd"
   xmlns:inkscape="http://www.inkscape.org/namespaces/inkscape"
   version="1.1"
   id="svg834"
   xml:space="preserve"
   width="672.20728"
   height="768"
   viewBox="0 0 672.20728 768"
   sodipodi:docname="SecKC_Bob.svg"
   inkscape:version="0.92.3 (2405546, 2018-03-11)"><metadata
     id="metadata840"><rdf:RDF><cc:Work
         rdf:about=""><dc:format>image/svg+xml</dc:format><dc:type
           rdf:resource="http://purl.org/dc/dcmitype/StillImage" /><dc:title></dc:title></cc:Work></rdf:RDF></metadata><defs
     id="defs838" /><sodipodi:namedview
     pagecolor="#ffffff"
     bordercolor="#666666"
     borderopacity="1"
     objecttolerance="10"
     gridtolerance="10"
     guidetolerance="10"
     inkscape:pageopacity="0"
     inkscape:pageshadow="2"
     inkscape:window-width="3840"
     inkscape:window-height="2049"
     id="namedview836"
     showgrid="false"
     inkscape:zoom="2.2159091"
     inkscape:cx="329.08554"
     inkscape:cy="386.708"
     inkscape:window-x="0"
     inkscape:window-y="55"
     inkscape:window-maximized="1"
     inkscape:current-layer="g842" /><g
     id="g842"
     inkscape:groupmode="layer"
     inkscape:label="ink_ext_XXXXXX"
     transform="matrix(1.3333333,0,0,-1.3333333,-66.914464,777.29199)"><path
       inkscape:connector-curvature="0"
       id="path846"
       style="fill:#231f20;fill-opacity:1;fill-rule:nonzero;stroke:none;stroke-width:0.32587215"
       d="m 307.12169,581.66878 c -3.00454,1.73364 -6.70971,1.73364 -9.71425,0 L 55.043299,441.74581 c -3.00552,-1.7369 -4.85745,-4.94674 -4.85745,-8.41728 V 170.89718 c 0,-3.90395 2.33813,-7.42988 5.93935,-8.95171 3.59991,-1.51856 7.75738,-0.73321 10.55662,1.99108 l 66.848111,65.11903 7.82745,44.71943 39.60356,-27.33741 c 2.6236,3.363 8.29084,11.25888 11.69816,20.73199 0.70389,1.965 0.72018,4.10924 0.0359,6.07751 -2.26057,6.50441 -4.44522,14.15589 -6.06285,22.886 -0.81468,4.39927 -0.3451,15.79828 0.59798,28.35413 l -51.67615,7.16267 c -0.95579,0.13361 -1.66228,0.94829 -1.66228,1.90962 v 3.53897 c 0,5.03472 3.68008,9.31668 8.66233,10.07596 l 38.93032,5.9211 c 2.36388,0.35846 4.32009,2.00411 5.08035,4.26892 l 33.40906,99.23133 c 1.69453,5.03146 6.25023,8.54762 11.54565,8.90608 l 41.96255,2.85139 c 4.2233,0.2835 8.45312,-0.3161 12.42876,-1.75971 L 314.783,456.10373 c 5.70276,-2.0758 11.70532,-3.21636 17.7698,-3.37603 l 48.34965,-1.29372 c 3.18377,-0.088 6.10359,-1.78578 7.74924,-4.51333 l 8.22176,-13.61167 c 1.66194,-2.75688 2.7862,-5.8103 3.30108,-8.9843 l 17.20605,-105.82372 c 0.22811,-1.39473 1.20573,-2.54832 2.54506,-2.99802 l 48.99813,-16.46958 c 3.42166,-1.15033 6.21764,-3.66932 7.72317,-6.94759 l 3.0078,-6.56958 c 0.15968,-0.34217 0.12058,-0.73973 -0.10428,-1.03628 -0.22485,-0.2998 -0.58982,-0.45622 -0.96132,-0.40734 l -68.53091,9.50895 c -0.0912,-6.55003 -0.42363,-11.57824 -1.02324,-13.67033 -1.40125,-4.90112 -3.73449,-8.90935 -4.71211,-10.47679 -0.29002,-0.45948 -0.35846,-1.01021 -0.189,-1.52834 l 13.52369,-41.6432 c 0.22485,-0.69411 0.0326,-1.44362 -0.49207,-1.93894 l -8.43031,-8.00994 c -1.20573,-1.14055 -2.83509,-1.73038 -4.50355,-1.61633 l -12.56563,0.88638 c -0.48555,0.0261 -0.9157,-0.30632 -1.00369,-0.77884 -0.57679,-3.08927 -2.45056,-13.94081 -1.09819,-19.05048 0.2216,-0.83098 -0.18249,-1.70757 -0.96784,-2.07255 -2.54506,-1.18617 -4.9891,-2.12469 -5.93413,-2.47989 -0.23463,-0.088 -0.35846,-0.33565 -0.29002,-0.58005 l 3.03061,-10.42791 c 0.11079,-0.3943 -0.10102,-0.8049 -0.48555,-0.93199 l -6.70971,-2.23549 c -0.25744,-0.0912 -0.44645,-0.31283 -0.47903,-0.58331 l -2.80902,-23.51493 c -0.0717,-0.62242 -0.46926,-1.16336 -1.04279,-1.42732 l -20.15845,-9.22218 c -0.6159,-0.28351 -1.30675,-0.36824 -1.96827,-0.22159 -3.50312,0.75602 -15.6549,4.14835 -36.61825,17.87734 -4.39276,2.87745 -10.10855,2.75688 -14.38074,-0.29328 -2.41471,-1.73038 -5.08035,-3.5846 -7.48202,-5.23351 l 55.26465,-39.09162 -58.50056,-2.58417 c -0.41712,0.013 -0.82446,-0.1499 -1.11449,-0.45622 -0.29002,-0.30958 -0.43015,-0.72669 -0.38778,-1.14707 l 0.0684,-0.65174 c 0.12709,-1.21225 -0.26396,-2.42123 -1.07864,-3.33693 -0.82119,-0.90267 -1.9813,-1.41755 -3.20332,-1.41755 -0.35846,0 -0.69411,-0.17597 -0.90592,-0.46925 -0.21182,-0.29003 -0.26722,-0.66804 -0.15642,-1.00369 l 0.55398,-1.65217 c 0.4106,-1.23506 0.29654,-2.56787 -0.30958,-3.705169 -0.60938,-1.137291 -1.65217,-1.978041 -2.89374,-2.323465 l -6.20461,-1.717346 c -1.40125,-0.394306 -2.30717,-1.753192 -2.12143,-3.193547 l 26.20338,-78.065929 c 0.92874,-2.760137 3.04691,-4.9630333 5.77446,-5.9960477 2.72755,-1.0297559 5.77119,-0.7820931 8.2967,0.6745554 L 549.48583,145.0653 c 3.00454,1.73364 4.8555,4.94348 4.8555,8.41401 v 279.84922 c 0,3.47054 -1.85096,6.68038 -4.8555,8.41728 L 307.12169,581.66878" /></g></svg>