  0
SECTION
  2
HEADER
  9
$ACADVER
  1
AC1014
  9
$HANDSEED
  5
FFFF
  9
$MEASUREMENT
 70
     1
  0
ENDSEC
  0
SECTION
  2
TABLES
  0
TABLE
  2
VPORT
  5
8
330
0
100
AcDbSymbolTable
 70
     4
  0
VPORT
  5
2E
330
8
100
AcDbSymbolTableRecord
100
AcDbViewportTableRecord
  2
*ACTIVE
 70
     0
 10
0.0
 20
0.0
 11
1.0
 21
1.0
 12
210.0
 22
148.5
 13
0.0
 23
0.0
 14
10.0
 24
10.0
 15
10.0
 25
10.0
 16
0.0
 26
0.0
 36
1.0
 17
0.0
 27
0.0
 37
0.0
 40
341.0
 41
1.24
 42
50.0
 43
0.0
 44
0.0
 50
0.0
 51
0.0
 71
     0
 72
   100
 73
     1
 74
     3
 75
     0
 76
     0
 77
     0
 78
     0
  0
ENDTAB
  0
TABLE
  2
LTYPE
  5
5
330
0
100
AcDbSymbolTable
 70
     1
  0
LTYPE
  5
14
330
5
100
AcDbSymbolTableRecord
100
AcDbLinetypeTableRecord
  2
BYBLOCK
 70
     0
  3

 72
    65
 73
     0
 40
0.0
  0
LTYPE
  5
15
330
5
100
AcDbSymbolTableRecord
100
AcDbLinetypeTableRecord
  2
BYLAYER
 70
     0
  3

 72
    65
 73
     0
 40
0.0
  0
LTYPE
  5
16
330
5
100
AcDbSymbolTableRecord
100
AcDbLinetypeTableRecord
  2
CONTINUOUS
 70
     0
  3
Solid line
 72
    65
 73
     0
 40
0.0
  0
ENDTAB
  0
TABLE
  2
LAYER
  5
2
100
AcDbSymbolTable
 70
2
  0
LAYER
  5
50
100
AcDbSymbolTableRecord
100
AcDbLayerTableRecord
  2
0
 70
0
  6
CONTINUOUS
  0
LAYER
  5
51
100
AcDbSymbolTableRecord
100
AcDbLayerTableRecord
  2
ink_ext_XXXXXX
 70
0
  6
CONTINUOUS
  0
ENDTAB
  0
TABLE
  2
STYLE
  5
3
330
0
100
AcDbSymbolTable
 70
     1
  0
STYLE
  5
11
330
3
100
AcDbSymbolTableRecord
100
AcDbTextStyleTableRecord
  2
STANDARD
 70
     0
 40
0.0
 41
1.0
 50
0.0
 71
     0
 42
2.5
  3
txt
  4

  0
ENDTAB
  0
TABLE
  2
VIEW
  5
6
330
0
100
AcDbSymbolTable
 70
     0
  0
ENDTAB
  0
TABLE
  2
UCS
  5
7
330
0
100
AcDbSymbolTable
 70
     0
  0
ENDTAB
  0
TABLE
  2
APPID
  5
9
330
0
100
AcDbSymbolTable
 70
     2
  0
APPID
  5
12
330
9
100
AcDbSymbolTableRecord
100
AcDbRegAppTableRecord
  2
ACAD
 70
     0
  0
ENDTAB
  0
TABLE
  2
DIMSTYLE
  5
A
330
0
100
AcDbSymbolTable
 70
     1
  0
DIMSTYLE
105
27
330
A
100
AcDbSymbolTableRecord
100
AcDbDimStyleTableRecord
  2
ISO-25
 70
     0
  3

  4

  5

  6

  7

 40
1.0
 41
2.5
 42
0.625
 43
3.75
 44
1.25
 45
0.0
 46
0.0
 47
0.0
 48
0.0
140
2.5
141
2.5
142
0.0
143
0.03937007874016
144
1.0
145
0.0
146
1.0
147
0.625
 71
     0
 72
     0
 73
     0
 74
     0
 75
     0
 76
     0
 77
     1
 78
     8
170
     0
171
     3
172
     1
173
     0
174
     0
175
     0
176
     0
177
     0
178
     0
270
     2
271
     2
272
     2
273
     2
274
     3
340
11
275
     0
280
     0
281
     0
282
     0
283
     0
284
     8
285
     0
286
     0
287
     3
288
     0
  0
ENDTAB
  0
TABLE
  2
BLOCK_RECORD
  5
1
330
0
100
AcDbSymbolTable
 70
     1
  0
BLOCK_RECORD
  5
1F
330
1
100
AcDbSymbolTableRecord
100
AcDbBlockTableRecord
  2
*MODEL_SPACE
  0
BLOCK_RECORD
  5
1B
330
1
100
AcDbSymbolTableRecord
100
AcDbBlockTableRecord
  2
*PAPER_SPACE
  0
ENDTAB
  0
ENDSEC
  0
SECTION
  2
BLOCKS
  0
BLOCK
  5
20
330
1F
100
AcDbEntity
  8
0
100
AcDbBlockBegin
  2
*MODEL_SPACE
 70
     0
 10
0.0
 20
0.0
 30
0.0
  3
*MODEL_SPACE
  1

  0
ENDBLK
  5
21
330
1F
100
AcDbEntity
  8
0
100
AcDbBlockEnd
  0
BLOCK
  5
1C
330
1B
100
AcDbEntity
 67
     1
  8
0
100
AcDbBlockBegin
  2
*PAPER_SPACE
  1

  0
ENDBLK
  5
1D
330
1B
100
AcDbEntity
 67
     1
  8
0
100
AcDbBlockEnd
  0
ENDSEC
  0
SECTION
  2
ENTITIES
  0
SPLINE
  5
100
100
AcDbEntity
  8
ink_ext_XXXXXX
 62
7
100
AcDbSpline
 70
8
 71
3
 72
8
 73
4
 74
0
 40
0
 40
0
 40
0
 40
0
 40
1
 40
1
 40
1
 40
1
 10
256.835082
 20
574.699776
 30
0.0
 10
253.831712
 20
576.433406
 30
0.0
 10
250.128012
 20
576.433406
 30
0.0
 10
247.124652
 20
574.699776
 30
0.0
  0
SPLINE
  5
101
100
AcDbEntity
  8
ink_ext_XXXXXX
 62
7
100
AcDbSpline
 70
8
 71
3
 72
8
 73
4
 74
0
 40
0
 40
0
 40
0
 40
0
 40
1
 40
1
 40
1
 40
1
 10
4.855545
 20
434.776799
 30
0.0
 10
1.851205
 20
433.039889
 30
0.0
 10
0.000000
 20
429.830049
 30
0.0
 10
0.000000
 20
426.359509
 30
0.0
  0
LWPOLYLINE
  5
102
100
AcDbEntity
  8
ink_ext_XXXXXX
 62
7
100
AcDbPolyline
 90
2
 70
0
 10
247.124652
 20
574.699776
 30
0.0
 10
4.855545
 20
434.776799
 30
0.0
  0
SPLINE
  5
103
100
AcDbEntity
  8
ink_ext_XXXXXX
 62
7
100
AcDbSpline
 70
8
 71
3
 72
8
 73
4
 74
0
 40
0
 40
0
 40
0
 40
0
 40
1
 40
1
 40
1
 40
1
 10
0.000000
 20
163.928156
 30
0.0
 10
0.000000
 20
160.024196
 30
0.0
 10
2.337217
 20
156.498276
 30
0.0
 10
5.937018
 20
154.976446
 30
0.0
  0
SPLINE
  5
104
100
AcDbEntity
  8
ink_ext_XXXXXX
 62
7
100
AcDbSpline
 70
8
 71
3
 72
8
 73
4
 74
0
 40
0
 40
0
 40
0
 40
0
 40
1
 40
1
 40
1
 40
1
 10
5.937018
 20
154.976446
 30
0.0
 10
9.535515
 20
153.457876
 30
0.0
 10
13.691361
 20
154.243246
 30
0.0
 10
16.489504
 20
156.967516
 30
0.0
  0
LWPOLYLINE
  5
105
100
AcDbEntity
  8
ink_ext_XXXXXX
 62
7
100
AcDbPolyline
 90
2
 70
0
 10
0.000000
 20
426.359509
 30
0.0
 10
0.000000
 20
163.928156
 30
0.0
  0
SPLINE
  5
106
100
AcDbEntity
  8
ink_ext_XXXXXX
 62
7
100
AcDbSpline
 70
8
 71
3
 72
8
 73
4
 74
0
 40
0
 40
0
 40
0
 40
0
 40
1
 40
1
 40
1
 40
1
 10
130.723815
 20
239.468584
 30
0.0
 10
133.346385
 20
242.831574
 30
0.0
 10
139.024125
 20
250.722904
 30
0.0
 10
142.417395
 20
260.200563
 30
0.0
  0
SPLINE
  5
107
100
AcDbEntity
  8
ink_ext_XXXXXX
 62
7
100
AcDbSpline
 70
8
 71
3
 72
8
 73
4
 74
0
 40
0
 40
0
 40
0
 40
0
 40
1
 40
1
 40
1
 40
1
 10
142.417395
 20
260.200563
 30
0.0
 10
143.989185
 20
264.590713
 30
0.0
 10
147.778284
 20
267.029923
 30
0.0
 10
136.434245
 20
269.873603
 30
0.0
  0
SPLINE
  5
108
100
AcDbEntity
  8
ink_ext_XXXXXX
 62
7
100
AcDbSpline
 70
8
 71
3
 72
8
 73
4
 74
0
 40
0
 40
0
 40
0
 40
0
 40
1
 40
1
 40
1
 40
1
 10
136.434245
 20
269.873603
 30
0.0
 10
133.628465
 20
270.576933
 30
0.0
 10
123.464565
 20
274.635003
 30
0.0
 10
131.109895
 20
282.492893
 30
0.0
  0
SPLINE
  5
109
100
AcDbEntity
  8
ink_ext_XXXXXX
 62
7
100
AcDbSpline
 70
8
 71
3
 72
8
 73
4
 74
0
 40
0
 40
0
 40
0
 40
0
 40
1
 40
1
 40
1
 40
1
 10
131.109895
 20
282.492893
 30
0.0
 10
136.107435
 20
287.629353
 30
0.0
 10
131.466425
 20
293.898623
 30
0.0
 10
108.910755
 20
287.013483
 30
0.0
  0
SPLINE
  5
10a
100
AcDbEntity
  8
ink_ext_XXXXXX
 62
7
100
AcDbSpline
 70
8
 71
3
 72
8
 73
4
 74
0
 40
0
 40
0
 40
0
 40
0
 40
1
 40
1
 40
1
 40
1
 10
108.910755
 20
287.013483
 30
0.0
 10
84.892441
 20
279.681853
 30
0.0
 10
77.245933
 20
284.522113
 30
0.0
 10
76.234449
 20
252.223394
 30
0.0
  0
SPLINE
  5
10b
100
AcDbEntity
  8
ink_ext_XXXXXX
 62
7
100
AcDbSpline
 70
8
 71
3
 72
8
 73
4
 74
0
 40
0
 40
0
 40
0
 40
0
 40
1
 40
1
 40
1
 40
1
 10
76.234449
 20
252.223394
 30
0.0
 10
75.669694
 20
234.189664
 30
0.0
 10
59.324830
 20
209.008815
 30
0.0
 10
10.655422
 20
204.676915
 30
0.0
  0
SPLINE
  5
10c
100
AcDbEntity
  8
ink_ext_XXXXXX
 62
7
100
AcDbSpline
 70
8
 71
3
 72
8
 73
4
 74
0
 40
0
 40
0
 40
0
 40
0
 40
1
 40
1
 40
1
 40
1
 10
10.655422
 20
204.676915
 30
0.0
 10
51.884588
 20
215.246945
 30
0.0
 10
43.336065
 20
266.081403
 30
0.0
 10
42.615145
 20
271.701883
 30
0.0
  0
SPLINE
  5
10d
100
AcDbEntity
  8
ink_ext_XXXXXX
 62
7
100
AcDbSpline
 70
8
 71
3
 72
8
 73
4
 74
0
 40
0
 40
0
 40
0
 40
0
 40
1
 40
1
 40
1
 40
1
 10
42.615145
 20
271.701883
 30
0.0
 10
34.978288
 20
331.240642
 30
0.0
 10
78.285120
 20
315.587802
 30
0.0
 10
82.082675
 20
314.152062
 30
0.0
  0
SPLINE
  5
10e
100
AcDbEntity
  8
ink_ext_XXXXXX
 62
7
100
AcDbSpline
 70
8
 71
3
 72
8
 73
4
 74
0
 40
0
 40
0
 40
0
 40
0
 40
1
 40
1
 40
1
 40
1
 10
82.082675
 20
314.152062
 30
0.0
 10
119.115945
 20
300.150922
 30
0.0
 10
134.691705
 20
306.596702
 30
0.0
 10
137.580835
 20
307.181102
 30
0.0
  0
SPLINE
  5
10f
100
AcDbEntity
  8
ink_ext_XXXXXX
 62
7
100
AcDbSpline
 70
8
 71
3
 72
8
 73
4
 74
0
 40
0
 40
0
 40
0
 40
0
 40
1
 40
1
 40
1
 40
1
 10
137.580835
 20
307.181102
 30
0.0
 10
143.354385
 20
308.348962
 30
0.0
 10
148.947004
 20
306.518512
 30
0.0
 10
138.809255
 20
319.597602
 30
0.0
  0
LWPOLYLINE
  5
110
100
AcDbEntity
  8
ink_ext_XXXXXX
 62
7
100
AcDbPolyline
 90
4
 70
0
 10
16.489504
 20
156.967516
 30
0.0
 10
83.311401
 20
222.086564
 30
0.0
 10
91.135766
 20
266.805993
 30
0.0
 10
130.723815
 20
239.468584
 30
0.0
  0
SPLINE
  5
111
100
AcDbEntity
  8
ink_ext_XXXXXX
 62
7
100
AcDbSpline
 70
8
 71
3
 72
8
 73
4
 74
0
 40
0
 40
0
 40
0
 40
0
 40
1
 40
1
 40
1
 40
1
 10
85.334656
 20
324.680942
 30
0.0
 10
84.379250
 20
324.814462
 30
0.0
 10
83.673040
 20
325.629222
 30
0.0
 10
83.673040
 20
326.590542
 30
0.0
  0
LWPOLYLINE
  5
112
100
AcDbEntity
  8
ink_ext_XXXXXX
 62
7
100
AcDbPolyline
 90
2
 70
0
 10
138.809255
 20
319.597602
 30
0.0
 10
85.334656
 20
324.680942
 30
0.0
  0
SPLINE
  5
113
100
AcDbEntity
  8
ink_ext_XXXXXX
 62
7
100
AcDbSpline
 70
8
 71
3
 72
8
 73
4
 74
0
 40
0
 40
0
 40
0
 40
0
 40
1
 40
1
 40
1
 40
1
 10
83.673040
 20
330.129512
 30
0.0
 10
83.673040
 20
335.164242
 30
0.0
 10
87.351678
 20
339.446192
 30
0.0
 10
92.331967
 20
340.205471
 30
0.0
  0
LWPOLYLINE
  5
114
100
AcDbEntity
  8
ink_ext_XXXXXX
 62
7
100
AcDbPolyline
 90
2
 70
0
 10
83.673040
 20
326.590542
 30
0.0
 10
83.673040
 20
330.129512
 30
0.0
  0
SPLINE
  5
115
100
AcDbEntity
  8
ink_ext_XXXXXX
 62
7
100
AcDbSpline
 70
8
 71
3
 72
8
 73
4
 74
0
 40
0
 40
0
 40
0
 40
0
 40
1
 40
1
 40
1
 40
1
 10
131.247025
 20
346.126571
 30
0.0
 10
133.609975
 20
346.485041
 30
0.0
 10
135.565415
 20
348.130681
 30
0.0
 10
136.325375
 20
350.395491
 30
0.0
  0
LWPOLYLINE
  5
116
100
AcDbEntity
  8
ink_ext_XXXXXX
 62
7
100
AcDbPolyline
 90
2
 70
0
 10
92.331967
 20
340.205471
 30
0.0
 10
131.247025
 20
346.126571
 30
0.0
  0
SPLINE
  5
117
100
AcDbEntity
  8
ink_ext_XXXXXX
 62
7
100
AcDbSpline
 70
8
 71
3
 72
8
 73
4
 74
0
 40
0
 40
0
 40
0
 40
0
 40
1
 40
1
 40
1
 40
1
 10
169.721334
 20
449.626839
 30
0.0
 10
171.415214
 20
454.658309
 30
0.0
 10
175.969114
 20
458.174449
 30
0.0
 10
181.262454
 20
458.532929
 30
0.0
  0
LWPOLYLINE
  5
118
100
AcDbEntity
  8
ink_ext_XXXXXX
 62
7
100
AcDbPolyline
 90
2
 70
0
 10
136.325375
 20
350.395491
 30
0.0
 10
169.721334
 20
449.626839
 30
0.0
  0
SPLINE
  5
119
100
AcDbEntity
  8
ink_ext_XXXXXX
 62
7
100
AcDbSpline
 70
8
 71
3
 72
8
 73
4
 74
0
 40
0
 40
0
 40
0
 40
0
 40
1
 40
1
 40
1
 40
1
 10
223.208563
 20
461.384308
 30
0.0
 10
227.430202
 20
461.667818
 30
0.0
 10
231.658362
 20
461.068218
 30
0.0
 10
235.632442
 20
459.624599
 30
0.0
  0
LWPOLYLINE
  5
11a
100
AcDbEntity
  8
ink_ext_XXXXXX
 62
7
100
AcDbPolyline
 90
2
 70
0
 10
181.262454
 20
458.532929
 30
0.0
 10
223.208563
 20
461.384308
 30
0.0
  0
SPLINE
  5
11b
100
AcDbEntity
  8
ink_ext_XXXXXX
 62
7
100
AcDbSpline
 70
8
 71
3
 72
8
 73
4
 74
0
 40
0
 40
0
 40
0
 40
0
 40
1
 40
1
 40
1
 40
1
 10
264.493391
 20
449.134769
 30
0.0
 10
270.193911
 20
447.058959
 30
0.0
 10
276.194121
 20
445.918409
 30
0.0
 10
282.256221
 20
445.758729
 30
0.0
  0
LWPOLYLINE
  5
11c
100
AcDbEntity
  8
ink_ext_XXXXXX
 62
7
100
AcDbPolyline
 90
2
 70
0
 10
235.632442
 20
459.624599
 30
0.0
 10
264.493391
 20
449.134769
 30
0.0
  0
SPLINE
  5
11d
100
AcDbEntity
  8
ink_ext_XXXXXX
 62
7
100
AcDbSpline
 70
8
 71
3
 72
8
 73
4
 74
0
 40
0
 40
0
 40
0
 40
0
 40
1
 40
1
 40
1
 40
1
 10
330.586910
 20
444.465019
 30
0.0
 10
333.769440
 20
444.377019
 30
0.0
 10
336.688120
 20
442.679239
 30
0.0
 10
338.333120
 20
439.951679
 30
0.0
  0
LWPOLYLINE
  5
11e
100
AcDbEntity
  8
ink_ext_XXXXXX
 62
7
100
AcDbPolyline
 90
2
 70
0
 10
282.256221
 20
445.758729
 30
0.0
 10
330.586910
 20
444.465019
 30
0.0
  0
SPLINE
  5
11f
100
AcDbEntity
  8
ink_ext_XXXXXX
 62
7
100
AcDbSpline
 70
8
 71
3
 72
8
 73
4
 74
0
 40
0
 40
0
 40
0
 40
0
 40
1
 40
1
 40
1
 40
1
 10
346.551649
 20
426.339999
 30
0.0
 10
348.212939
 20
423.583119
 30
0.0
 10
349.336759
 20
420.529709
 30
0.0
 10
349.851419
 20
417.355710
 30
0.0
  0
LWPOLYLINE
  5
120
100
AcDbEntity
  8
ink_ext_XXXXXX
 62
7
100
AcDbPolyline
 90
2
 70
0
 10
338.333120
 20
439.951679
 30
0.0
 10
346.551649
 20
426.339999
 30
0.0
  0
SPLINE
  5
121
100
AcDbEntity
  8
ink_ext_XXXXXX
 62
7
100
AcDbSpline
 70
8
 71
3
 72
8
 73
4
 74
0
 40
0
 40
0
 40
0
 40
0
 40
1
 40
1
 40
1
 40
1
 10
367.050739
 20
311.532002
 30
0.0
 10
367.278749
 20
310.137252
 30
0.0
 10
368.255979
 20
308.983662
 30
0.0
 10
369.594809
 20
308.533972
 30
0.0
  0
LWPOLYLINE
  5
122
100
AcDbEntity
  8
ink_ext_XXXXXX
 62
7
100
AcDbPolyline
 90
2
 70
0
 10
349.851419
 20
417.355710
 30
0.0
 10
367.050739
 20
311.532002
 30
0.0
  0
SPLINE
  5
123
100
AcDbEntity
  8
ink_ext_XXXXXX
 62
7
100
AcDbSpline
 70
8
 71
3
 72
8
 73
4
 74
0
 40
0
 40
0
 40
0
 40
0
 40
1
 40
1
 40
1
 40
1
 10
418.573718
 20
292.064393
 30
0.0
 10
421.994038
 20
290.914053
 30
0.0
 10
424.788917
 20
288.395073
 30
0.0
 10
426.293857
 20
285.116803
 30
0.0
  0
LWPOLYLINE
  5
124
100
AcDbEntity
  8
ink_ext_XXXXXX
 62
7
100
AcDbPolyline
 90
2
 70
0
 10
369.594809
 20
308.533972
 30
0.0
 10
418.573718
 20
292.064393
 30
0.0
  0
SPLINE
  5
125
100
AcDbEntity
  8
ink_ext_XXXXXX
 62
7
100
AcDbSpline
 70
8
 71
3
 72
8
 73
4
 74
0
 40
0
 40
0
 40
0
 40
0
 40
1
 40
1
 40
1
 40
1
 10
429.300487
 20
278.547203
 30
0.0
 10
429.460087
 20
278.205043
 30
0.0
 10
429.420957
 20
277.807493
 30
0.0
 10
429.196217
 20
277.510933
 30
0.0
  0
SPLINE
  5
126
100
AcDbEntity
  8
ink_ext_XXXXXX
 62
7
100
AcDbSpline
 70
8
 71
3
 72
8
 73
4
 74
0
 40
0
 40
0
 40
0
 40
0
 40
1
 40
1
 40
1
 40
1
 10
429.196217
 20
277.510933
 30
0.0
 10
428.971437
 20
277.211143
 30
0.0
 10
428.606597
 20
277.054703
 30
0.0
 10
428.235257
 20
277.103603
 30
0.0
  0
LWPOLYLINE
  5
127
100
AcDbEntity
  8
ink_ext_XXXXXX
 62
7
100
AcDbPolyline
 90
2
 70
0
 10
426.293857
 20
285.116803
 30
0.0
 10
429.300487
 20
278.547203
 30
0.0
  0
SPLINE
  5
128
100
AcDbEntity
  8
ink_ext_XXXXXX
 62
7
100
AcDbSpline
 70
8
 71
3
 72
8
 73
4
 74
0
 40
0
 40
0
 40
0
 40
0
 40
1
 40
1
 40
1
 40
1
 10
359.486259
 20
286.704443
 30
0.0
 10
359.394959
 20
280.154413
 30
0.0
 10
359.093429
 20
275.156843
 30
0.0
 10
358.494069
 20
273.064733
 30
0.0
  0
SPLINE
  5
129
100
AcDbEntity
  8
ink_ext_XXXXXX
 62
7
100
AcDbSpline
 70
8
 71
3
 72
8
 73
4
 74
0
 40
0
 40
0
 40
0
 40
0
 40
1
 40
1
 40
1
 40
1
 10
358.494069
 20
273.064733
 30
0.0
 10
357.093359
 20
268.163623
 30
0.0
 10
354.791629
 20
265.135603
 30
0.0
 10
353.814409
 20
263.568143
 30
0.0
  0
SPLINE
  5
12a
100
AcDbEntity
  8
ink_ext_XXXXXX
 62
7
100
AcDbSpline
 70
8
 71
3
 72
8
 73
4
 74
0
 40
0
 40
0
 40
0
 40
0
 40
1
 40
1
 40
1
 40
1
 10
353.814409
 20
263.568143
 30
0.0
 10
353.524499
 20
263.108673
 30
0.0
 10
353.812409
 20
261.482223
 30
0.0
 10
353.808409
 20
260.937083
 30
0.0
  0
SPLINE
  5
12b
100
AcDbEntity
  8
ink_ext_XXXXXX
 62
7
100
AcDbSpline
 70
8
 71
3
 72
8
 73
4
 74
0
 40
0
 40
0
 40
0
 40
0
 40
1
 40
1
 40
1
 40
1
 10
353.808409
 20
260.937083
 30
0.0
 10
353.749409
 20
250.025924
 30
0.0
 10
359.007209
 20
234.937114
 30
0.0
 10
361.568389
 20
229.607534
 30
0.0
  0
SPLINE
  5
12c
100
AcDbEntity
  8
ink_ext_XXXXXX
 62
7
100
AcDbSpline
 70
8
 71
3
 72
8
 73
4
 74
0
 40
0
 40
0
 40
0
 40
0
 40
1
 40
1
 40
1
 40
1
 10
361.568389
 20
229.607534
 30
0.0
 10
368.390249
 20
215.411875
 30
0.0
 10
369.358669
 20
210.252185
 30
0.0
 10
364.531829
 20
207.384585
 30
0.0
  0
SPLINE
  5
12d
100
AcDbEntity
  8
ink_ext_XXXXXX
 62
7
100
AcDbSpline
 70
8
 71
3
 72
8
 73
4
 74
0
 40
0
 40
0
 40
0
 40
0
 40
1
 40
1
 40
1
 40
1
 10
364.531829
 20
207.384585
 30
0.0
 10
355.284199
 20
201.890605
 30
0.0
 10
339.737690
 20
207.357485
 30
0.0
 10
339.324540
 20
199.410565
 30
0.0
  0
SPLINE
  5
12e
100
AcDbEntity
  8
ink_ext_XXXXXX
 62
7
100
AcDbSpline
 70
8
 71
3
 72
8
 73
4
 74
0
 40
0
 40
0
 40
0
 40
0
 40
1
 40
1
 40
1
 40
1
 10
339.324540
 20
199.410565
 30
0.0
 10
339.119850
 20
195.473245
 30
0.0
 10
340.539010
 20
193.221475
 30
0.0
 10
343.271530
 20
190.973355
 30
0.0
  0
SPLINE
  5
12f
100
AcDbEntity
  8
ink_ext_XXXXXX
 62
7
100
AcDbSpline
 70
8
 71
3
 72
8
 73
4
 74
0
 40
0
 40
0
 40
0
 40
0
 40
1
 40
1
 40
1
 40
1
 10
343.271530
 20
190.973355
 30
0.0
 10
347.937959
 20
188.192355
 30
0.0
 10
340.427730
 20
182.300415
 30
0.0
 10
331.868810
 20
184.124995
 30
0.0
  0
SPLINE
  5
130
100
AcDbEntity
  8
ink_ext_XXXXXX
 62
7
100
AcDbSpline
 70
8
 71
3
 72
8
 73
4
 74
0
 40
0
 40
0
 40
0
 40
0
 40
1
 40
1
 40
1
 40
1
 10
331.868810
 20
184.124995
 30
0.0
 10
331.634270
 20
184.036995
 30
0.0
 10
331.881610
 20
183.167605
 30
0.0
 10
333.375940
 20
181.205695
 30
0.0
  0
SPLINE
  5
131
100
AcDbEntity
  8
ink_ext_XXXXXX
 62
7
100
AcDbSpline
 70
8
 71
3
 72
8
 73
4
 74
0
 40
0
 40
0
 40
0
 40
0
 40
1
 40
1
 40
1
 40
1
 10
333.375940
 20
181.205695
 30
0.0
 10
334.870290
 20
179.243786
 30
0.0
 10
337.248100
 20
177.129916
 30
0.0
 10
337.368410
 20
175.113346
 30
0.0
  0
SPLINE
  5
132
100
AcDbEntity
  8
ink_ext_XXXXXX
 62
7
100
AcDbSpline
 70
8
 71
3
 72
8
 73
4
 74
0
 40
0
 40
0
 40
0
 40
0
 40
1
 40
1
 40
1
 40
1
 10
337.368410
 20
175.113346
 30
0.0
 10
337.488740
 20
173.096766
 30
0.0
 10
334.151280
 20
171.189166
 30
0.0
 10
332.335240
 20
170.454186
 30
0.0
  0
SPLINE
  5
133
100
AcDbEntity
  8
ink_ext_XXXXXX
 62
7
100
AcDbSpline
 70
8
 71
3
 72
8
 73
4
 74
0
 40
0
 40
0
 40
0
 40
0
 40
1
 40
1
 40
1
 40
1
 10
332.335240
 20
170.454186
 30
0.0
 10
330.519210
 20
169.719186
 30
0.0
 10
332.276040
 20
170.723556
 30
0.0
 10
327.621230
 20
169.148146
 30
0.0
  0
SPLINE
  5
134
100
AcDbEntity
  8
ink_ext_XXXXXX
 62
7
100
AcDbSpline
 70
8
 71
3
 72
8
 73
4
 74
0
 40
0
 40
0
 40
0
 40
0
 40
1
 40
1
 40
1
 40
1
 10
327.621230
 20
169.148146
 30
0.0
 10
325.661030
 20
168.246616
 30
0.0
 10
325.929270
 20
163.488326
 30
0.0
 10
325.831120
 20
160.975956
 30
0.0
  0
SPLINE
  5
135
100
AcDbEntity
  8
ink_ext_XXXXXX
 62
7
100
AcDbSpline
 70
8
 71
3
 72
8
 73
4
 74
0
 40
0
 40
0
 40
0
 40
0
 40
1
 40
1
 40
1
 40
1
 10
325.831120
 20
160.975956
 30
0.0
 10
325.733020
 20
158.463586
 30
0.0
 10
326.405540
 20
145.919676
 30
0.0
 10
318.604020
 20
141.824356
 30
0.0
  0
SPLINE
  5
136
100
AcDbEntity
  8
ink_ext_XXXXXX
 62
7
100
AcDbSpline
 70
8
 71
3
 72
8
 73
4
 74
0
 40
0
 40
0
 40
0
 40
0
 40
1
 40
1
 40
1
 40
1
 10
318.604020
 20
141.824356
 30
0.0
 10
311.565030
 20
138.129317
 30
0.0
 10
306.116770
 20
135.799967
 30
0.0
 10
300.036521
 20
136.620087
 30
0.0
  0
SPLINE
  5
137
100
AcDbEntity
  8
ink_ext_XXXXXX
 62
7
100
AcDbSpline
 70
8
 71
3
 72
8
 73
4
 74
0
 40
0
 40
0
 40
0
 40
0
 40
1
 40
1
 40
1
 40
1
 10
300.036521
 20
136.620087
 30
0.0
 10
293.956291
 20
137.440207
 30
0.0
 10
285.153251
 20
139.267507
 30
0.0
 10
264.198131
 20
152.996486
 30
0.0
  0
SPLINE
  5
138
100
AcDbEntity
  8
ink_ext_XXXXXX
 62
7
100
AcDbSpline
 70
8
 71
3
 72
8
 73
4
 74
0
 40
0
 40
0
 40
0
 40
0
 40
1
 40
1
 40
1
 40
1
 10
264.198131
 20
152.996486
 30
0.0
 10
259.807082
 20
155.873936
 30
0.0
 10
254.736542
 20
155.722726
 30
0.0
 10
250.466022
 20
152.672576
 30
0.0
  0
SPLINE
  5
139
100
AcDbEntity
  8
ink_ext_XXXXXX
 62
7
100
AcDbSpline
 70
8
 71
3
 72
8
 73
4
 74
0
 40
0
 40
0
 40
0
 40
0
 40
1
 40
1
 40
1
 40
1
 10
250.466022
 20
152.672576
 30
0.0
 10
248.052272
 20
150.942196
 30
0.0
 10
245.387682
 20
149.087976
 30
0.0
 10
242.986942
 20
147.439066
 30
0.0
  0
LWPOLYLINE
  5
13a
100
AcDbEntity
  8
ink_ext_XXXXXX
 62
7
100
AcDbPolyline
 90
2
 70
0
 10
428.235257
 20
277.103603
 30
0.0
 10
359.486259
 20
286.704443
 30
0.0
  0
SPLINE
  5
13b
100
AcDbEntity
  8
ink_ext_XXXXXX
 62
7
100
AcDbSpline
 70
8
 71
3
 72
8
 73
4
 74
0
 40
0
 40
0
 40
0
 40
0
 40
1
 40
1
 40
1
 40
1
 10
239.752292
 20
105.763287
 30
0.0
 10
239.335352
 20
105.776987
 30
0.0
 10
238.928162
 20
105.613367
 30
0.0
 10
238.638252
 20
105.307067
 30
0.0
  0
SPLINE
  5
13c
100
AcDbEntity
  8
ink_ext_XXXXXX
 62
7
100
AcDbSpline
 70
8
 71
3
 72
8
 73
4
 74
0
 40
0
 40
0
 40
0
 40
0
 40
1
 40
1
 40
1
 40
1
 10
238.638252
 20
105.307067
 30
0.0
 10
238.348342
 20
104.997487
 30
0.0
 10
238.208262
 20
104.580347
 30
0.0
 10
238.250612
 20
104.159987
 30
0.0
  0
LWPOLYLINE
  5
13d
100
AcDbEntity
  8
ink_ext_XXXXXX
 62
7
100
AcDbPolyline
 90
3
 70
0
 10
242.986942
 20
147.439066
 30
0.0
 10
298.229921
 20
108.347457
 30
0.0
 10
239.752292
 20
105.763287
 30
0.0
  0
SPLINE
  5
13e
100
AcDbEntity
  8
ink_ext_XXXXXX
 62
7
100
AcDbSpline
 70
8
 71
3
 72
8
 73
4
 74
0
 40
0
 40
0
 40
0
 40
0
 40
1
 40
1
 40
1
 40
1
 10
238.319012
 20
103.508237
 30
0.0
 10
238.446152
 20
102.295997
 30
0.0
 10
238.055152
 20
101.087007
 30
0.0
 10
237.240802
 20
100.171307
 30
0.0
  0
SPLINE
  5
13f
100
AcDbEntity
  8
ink_ext_XXXXXX
 62
7
100
AcDbSpline
 70
8
 71
3
 72
8
 73
4
 74
0
 40
0
 40
0
 40
0
 40
0
 40
1
 40
1
 40
1
 40
1
 10
237.240802
 20
100.171307
 30
0.0
 10
236.419932
 20
99.268648
 30
0.0
 10
235.260282
 20
98.753769
 30
0.0
 10
234.038742
 20
98.753769
 30
0.0
  0
SPLINE
  5
140
100
AcDbEntity
  8
ink_ext_XXXXXX
 62
7
100
AcDbSpline
 70
8
 71
3
 72
8
 73
4
 74
0
 40
0
 40
0
 40
0
 40
0
 40
1
 40
1
 40
1
 40
1
 10
234.038742
 20
98.753769
 30
0.0
 10
233.680412
 20
98.753769
 30
0.0
 10
233.344902
 20
98.577791
 30
0.0
 10
233.133162
 20
98.284503
 30
0.0
  0
SPLINE
  5
141
100
AcDbEntity
  8
ink_ext_XXXXXX
 62
7
100
AcDbSpline
 70
8
 71
3
 72
8
 73
4
 74
0
 40
0
 40
0
 40
0
 40
0
 40
1
 40
1
 40
1
 40
1
 10
233.133162
 20
98.284503
 30
0.0
 10
232.921432
 20
97.994486
 30
0.0
 10
232.866062
 20
97.616470
 30
0.0
 10
232.976792
 20
97.280817
 30
0.0
  0
LWPOLYLINE
  5
142
100
AcDbEntity
  8
ink_ext_XXXXXX
 62
7
100
AcDbPolyline
 90
2
 70
0
 10
238.250612
 20
104.159987
 30
0.0
 10
238.319012
 20
103.508237
 30
0.0
  0
SPLINE
  5
143
100
AcDbEntity
  8
ink_ext_XXXXXX
 62
7
100
AcDbSpline
 70
8
 71
3
 72
8
 73
4
 74
0
 40
0
 40
0
 40
0
 40
0
 40
1
 40
1
 40
1
 40
1
 10
233.530562
 20
95.628661
 30
0.0
 10
233.940982
 20
94.393603
 30
0.0
 10
233.826992
 20
93.060786
 30
0.0
 10
233.221102
 20
91.923487
 30
0.0
  0
SPLINE
  5
144
100
AcDbEntity
  8
ink_ext_XXXXXX
 62
7
100
AcDbSpline
 70
8
 71
3
 72
8
 73
4
 74
0
 40
0
 40
0
 40
0
 40
0
 40
1
 40
1
 40
1
 40
1
 10
233.221102
 20
91.923487
 30
0.0
 10
232.611952
 20
90.786199
 30
0.0
 10
231.569582
 20
89.945438
 30
0.0
 10
230.328492
 20
89.600026
 30
0.0
  0
LWPOLYLINE
  5
145
100
AcDbEntity
  8
ink_ext_XXXXXX
 62
7
100
AcDbPolyline
 90
2
 70
0
 10
232.976792
 20
97.280817
 30
0.0
 10
233.530562
 20
95.628661
 30
0.0
  0
SPLINE
  5
146
100
AcDbEntity
  8
ink_ext_XXXXXX
 62
7
100
AcDbSpline
 70
8
 71
3
 72
8
 73
4
 74
0
 40
0
 40
0
 40
0
 40
0
 40
1
 40
1
 40
1
 40
1
 10
224.126322
 20
87.882683
 30
0.0
 10
222.725623
 20
87.488375
 30
0.0
 10
221.820053
 20
86.129485
 30
0.0
 10
222.005733
 20
84.689138
 30
0.0
  0
LWPOLYLINE
  5
147
100
AcDbEntity
  8
ink_ext_XXXXXX
 62
7
100
AcDbPolyline
 90
2
 70
0
 10
230.328492
 20
89.600026
 30
0.0
 10
224.126322
 20
87.882683
 30
0.0
  0
SPLINE
  5
148
100
AcDbEntity
  8
ink_ext_XXXXXX
 62
7
100
AcDbSpline
 70
8
 71
3
 72
8
 73
4
 74
0
 40
0
 40
0
 40
0
 40
0
 40
1
 40
1
 40
1
 40
1
 10
248.199282
 20
6.623191
 30
0.0
 10
249.127652
 20
3.863047
 30
0.0
 10
251.245012
 20
1.660160
 30
0.0
 10
253.971482
 20
0.627140
 30
0.0
  0
SPLINE
  5
149
100
AcDbEntity
  8
ink_ext_XXXXXX
 62
7
100
AcDbSpline
 70
8
 71
3
 72
8
 73
4
 74
0
 40
0
 40
0
 40
0
 40
0
 40
1
 40
1
 40
1
 40
1
 10
253.971482
 20
0.627140
 30
0.0
 10
256.697962
 20
-0.402614
 30
0.0
 10
259.740412
 20
-0.154954
 30
0.0
 10
262.264932
 20
1.301687
 30
0.0
  0
LWPOLYLINE
  5
14a
100
AcDbEntity
  8
ink_ext_XXXXXX
 62
7
100
AcDbPolyline
 90
2
 70
0
 10
222.005733
 20
84.689138
 30
0.0
 10
248.199282
 20
6.623191
 30
0.0
  0
SPLINE
  5
14b
100
AcDbEntity
  8
ink_ext_XXXXXX
 62
7
100
AcDbSpline
 70
8
 71
3
 72
8
 73
4
 74
0
 40
0
 40
0
 40
0
 40
0
 40
1
 40
1
 40
1
 40
1
 10
499.104146
 20
138.096277
 30
0.0
 10
502.107526
 20
139.829917
 30
0.0
 10
503.957746
 20
143.039746
 30
0.0
 10
503.957746
 20
146.510286
 30
0.0
  0
LWPOLYLINE
  5
14c
100
AcDbEntity
  8
ink_ext_XXXXXX
 62
7
100
AcDbPolyline
 90
2
 70
0
 10
262.264932
 20
1.301687
 30
0.0
 10
499.104146
 20
138.096277
 30
0.0
  0
SPLINE
  5
14d
100
AcDbEntity
  8
ink_ext_XXXXXX
 62
7
100
AcDbSpline
 70
8
 71
3
 72
8
 73
4
 74
0
 40
0
 40
0
 40
0
 40
0
 40
1
 40
1
 40
1
 40
1
 10
503.957746
 20
426.359509
 30
0.0
 10
503.957746
 20
429.830049
 30
0.0
 10
502.107526
 20
433.039889
 30
0.0
 10
499.104146
 20
434.776799
 30
0.0
  0
LWPOLYLINE
  5
14e
100
AcDbEntity
  8
ink_ext_XXXXXX
 62
7
100
AcDbPolyline
 90
2
 70
0
 10
503.957746
 20
146.510286
 30
0.0
 10
503.957746
 20
426.359509
 30
0.0
  0
LWPOLYLINE
  5
14f
100
AcDbEntity
  8
ink_ext_XXXXXX
 62
7
100
AcDbPolyline
 90
2
 70
0
 10
499.104146
 20
434.776799
 30
0.0
 10
256.835072
 20
574.699776
 30
0.0
  0
ENDSEC
  0
SECTION
  2
OBJECTS
  0
DICTIONARY
  5
C
330
0
100
AcDbDictionary
  3
ACAD_GROUP
350
D
  3
ACAD_MLINESTYLE
350
17
  0
DICTIONARY
  5
D
330
C
100
AcDbDictionary
  0
DICTIONARY
  5
1A
330
C
100
AcDbDictionary
  0
DICTIONARY
  5
17
330
C
100
AcDbDictionary
  3
STANDARD
350
18
  0
DICTIONARY
  5
19
330
C
100
AcDbDictionary
  0
ENDSEC
  0
EOF
