<?xml version="1.0" encoding="UTF-8" standalone="no"?>
<!-- Created with Inkscape (http://www.inkscape.org/) -->

<svg
   xmlns:dc="http://purl.org/dc/elements/1.1/"
   xmlns:cc="http://creativecommons.org/ns#"
   xmlns:rdf="http://www.w3.org/1999/02/22-rdf-syntax-ns#"
   xmlns:svg="http://www.w3.org/2000/svg"
   xmlns="http://www.w3.org/2000/svg"
   xmlns:sodipodi="http://sodipodi.sourceforge.net/DTD/sodipodi-0.dtd"
   xmlns:inkscape="http://www.inkscape.org/namespaces/inkscape"
   version="1.1"
   id="svg815"
   xml:space="preserve"
   width="406.47598"
   height="80.287994"
   viewBox="0 0 406.47598 80.287994"
   sodipodi:docname="SecKC_Text.svg"
   inkscape:version="0.92.3 (2405546, 2018-03-11)"><metadata
     id="metadata821"><rdf:RDF><cc:Work
         rdf:about=""><dc:format>image/svg+xml</dc:format><dc:type
           rdf:resource="http://purl.org/dc/dcmitype/StillImage" /><dc:title></dc:title></cc:Work></rdf:RDF></metadata><defs
     id="defs819" /><sodipodi:namedview
     pagecolor="#ffffff"
     bordercolor="#666666"
     borderopacity="1"
     objecttolerance="10"
     gridtolerance="10"
     guidetolerance="10"
     inkscape:pageopacity="0"
     inkscape:pageshadow="2"
     inkscape:window-width="3840"
     inkscape:window-height="2049"
     id="namedview817"
     showgrid="false"
     inkscape:zoom="2.2159091"
     inkscape:cx="86.066674"
     inkscape:cy="40.786676"
     inkscape:window-x="0"
     inkscape:window-y="55"
     inkscape:window-maximized="1"
     inkscape:current-layer="g823" /><g
     id="g823"
     inkscape:groupmode="layer"
     inkscape:label="ink_ext_XXXXXX"
     transform="matrix(1.3333333,0,0,-1.3333333,-309.93333,435.50132)"><g
       id="g850"><path
         d="m 239.947,285.559 c 0,0 6.6,-6.028 13.934,-6.028 2.932,0 6.109,1.141 6.109,4.645 0,6.926 -26.236,6.679 -26.234,24.606 0,10.757 9.042,17.844 20.612,17.844 12.552,0 18.741,-6.6 18.741,-6.6 l -6.028,-11.652 c 0,0 -5.868,5.134 -12.874,5.134 -2.932,0 -6.193,-1.302 -6.193,-4.563 0,-7.332 26.237,-6.028 26.238,-24.443 -0.001,-9.695 -7.415,-18.091 -20.534,-18.091 -13.69,0 -21.268,8.312 -21.268,8.312 l 7.497,10.836"
         style="fill:#231f20;fill-opacity:1;fill-rule:nonzero;stroke:none;stroke-width:0.1"
         id="path829"
         inkscape:connector-curvature="0" /><path
         d="m 295.023,325.648 36.502,0.002 0.001,-12.223 h -22.245 v -10.594 h 17.763 V 290.61 h -17.763 l -0.002,-10.999 h 23.388 v -12.223 h -37.645 l 0.001,58.26"
         style="fill:#231f20;fill-opacity:1;fill-rule:nonzero;stroke:none;stroke-width:0.1"
         id="path831"
         inkscape:connector-curvature="0" /><path
         d="m 380.02,326.626 c 14.421,0 21.834,-8.228 21.834,-8.228 l -6.597,-10.757 c 0,0 -6.522,5.946 -14.588,5.946 -11.162,0 -16.459,-8.229 -16.459,-16.619 0,-8.638 5.707,-17.517 16.459,-17.517 8.802,0 15.484,7.168 15.484,7.168 l 7.332,-10.429 c 0,0 -8.228,-9.779 -23.465,-9.779 -18.254,0 -30.56,12.958 -30.56,30.232 0,16.944 13.039,29.983 30.56,29.983"
         style="fill:#231f20;fill-opacity:1;fill-rule:nonzero;stroke:none;stroke-width:0.1"
         id="path833"
         inkscape:connector-curvature="0" /><path
         d="m 422.164,325.648 14.26,0.002 v -22.491 h 5.867 l 12.062,22.491 h 15.317 l -15.725,-27.868 v -0.163 l 16.623,-30.231 h -15.973 l -12.304,23.631 h -5.867 v -23.631 h -14.26 v 58.26"
         style="fill:#231f20;fill-opacity:1;fill-rule:nonzero;stroke:none;stroke-width:0.1"
         id="path835"
         inkscape:connector-curvature="0" /><path
         d="m 513.837,326.626 c 14.421,0 21.838,-8.228 21.838,-8.228 l -6.601,-10.757 c 0,0 -6.517,5.947 -14.586,5.946 -11.162,0 -16.462,-8.229 -16.462,-16.619 0,-8.638 5.706,-17.517 16.464,-17.517 8.797,0 15.481,7.168 15.481,7.168 l 7.336,-10.429 c 0,0 -8.233,-9.779 -23.47,-9.78 -18.253,0 -30.554,12.959 -30.554,30.233 0,16.944 13.034,29.983 30.554,29.983"
         style="fill:#231f20;fill-opacity:1;fill-rule:nonzero;stroke:none;stroke-width:0.1"
         id="path837"
         inkscape:connector-curvature="0" /></g></g></svg>