  0
SECTION
  2
HEADER
  9
$ACADVER
  1
AC1014
  9
$HANDSEED
  5
FFFF
  9
$MEASUREMENT
 70
     1
  0
ENDSEC
  0
SECTION
  2
TABLES
  0
TABLE
  2
VPORT
  5
8
330
0
100
AcDbSymbolTable
 70
     4
  0
VPORT
  5
2E
330
8
100
AcDbSymbolTableRecord
100
AcDbViewportTableRecord
  2
*ACTIVE
 70
     0
 10
0.0
 20
0.0
 11
1.0
 21
1.0
 12
210.0
 22
148.5
 13
0.0
 23
0.0
 14
10.0
 24
10.0
 15
10.0
 25
10.0
 16
0.0
 26
0.0
 36
1.0
 17
0.0
 27
0.0
 37
0.0
 40
341.0
 41
1.24
 42
50.0
 43
0.0
 44
0.0
 50
0.0
 51
0.0
 71
     0
 72
   100
 73
     1
 74
     3
 75
     0
 76
     0
 77
     0
 78
     0
  0
ENDTAB
  0
TABLE
  2
LTYPE
  5
5
330
0
100
AcDbSymbolTable
 70
     1
  0
LTYPE
  5
14
330
5
100
AcDbSymbolTableRecord
100
AcDbLinetypeTableRecord
  2
BYBLOCK
 70
     0
  3

 72
    65
 73
     0
 40
0.0
  0
LTYPE
  5
15
330
5
100
AcDbSymbolTableRecord
100
AcDbLinetypeTableRecord
  2
BYLAYER
 70
     0
  3

 72
    65
 73
     0
 40
0.0
  0
LTYPE
  5
16
330
5
100
AcDbSymbolTableRecord
100
AcDbLinetypeTableRecord
  2
CONTINUOUS
 70
     0
  3
Solid line
 72
    65
 73
     0
 40
0.0
  0
ENDTAB
  0
TABLE
  2
LAYER
  5
2
100
AcDbSymbolTable
 70
2
  0
LAYER
  5
50
100
AcDbSymbolTableRecord
100
AcDbLayerTableRecord
  2
0
 70
0
  6
CONTINUOUS
  0
LAYER
  5
51
100
AcDbSymbolTableRecord
100
AcDbLayerTableRecord
  2
ink_ext_XXXXXX
 70
0
  6
CONTINUOUS
  0
ENDTAB
  0
TABLE
  2
STYLE
  5
3
330
0
100
AcDbSymbolTable
 70
     1
  0
STYLE
  5
11
330
3
100
AcDbSymbolTableRecord
100
AcDbTextStyleTableRecord
  2
STANDARD
 70
     0
 40
0.0
 41
1.0
 50
0.0
 71
     0
 42
2.5
  3
txt
  4

  0
ENDTAB
  0
TABLE
  2
VIEW
  5
6
330
0
100
AcDbSymbolTable
 70
     0
  0
ENDTAB
  0
TABLE
  2
UCS
  5
7
330
0
100
AcDbSymbolTable
 70
     0
  0
ENDTAB
  0
TABLE
  2
APPID
  5
9
330
0
100
AcDbSymbolTable
 70
     2
  0
APPID
  5
12
330
9
100
AcDbSymbolTableRecord
100
AcDbRegAppTableRecord
  2
ACAD
 70
     0
  0
ENDTAB
  0
TABLE
  2
DIMSTYLE
  5
A
330
0
100
AcDbSymbolTable
 70
     1
  0
DIMSTYLE
105
27
330
A
100
AcDbSymbolTableRecord
100
AcDbDimStyleTableRecord
  2
ISO-25
 70
     0
  3

  4

  5

  6

  7

 40
1.0
 41
2.5
 42
0.625
 43
3.75
 44
1.25
 45
0.0
 46
0.0
 47
0.0
 48
0.0
140
2.5
141
2.5
142
0.0
143
0.03937007874016
144
1.0
145
0.0
146
1.0
147
0.625
 71
     0
 72
     0
 73
     0
 74
     0
 75
     0
 76
     0
 77
     1
 78
     8
170
     0
171
     3
172
     1
173
     0
174
     0
175
     0
176
     0
177
     0
178
     0
270
     2
271
     2
272
     2
273
     2
274
     3
340
11
275
     0
280
     0
281
     0
282
     0
283
     0
284
     8
285
     0
286
     0
287
     3
288
     0
  0
ENDTAB
  0
TABLE
  2
BLOCK_RECORD
  5
1
330
0
100
AcDbSymbolTable
 70
     1
  0
BLOCK_RECORD
  5
1F
330
1
100
AcDbSymbolTableRecord
100
AcDbBlockTableRecord
  2
*MODEL_SPACE
  0
BLOCK_RECORD
  5
1B
330
1
100
AcDbSymbolTableRecord
100
AcDbBlockTableRecord
  2
*PAPER_SPACE
  0
ENDTAB
  0
ENDSEC
  0
SECTION
  2
BLOCKS
  0
BLOCK
  5
20
330
1F
100
AcDbEntity
  8
0
100
AcDbBlockBegin
  2
*MODEL_SPACE
 70
     0
 10
0.0
 20
0.0
 30
0.0
  3
*MODEL_SPACE
  1

  0
ENDBLK
  5
21
330
1F
100
AcDbEntity
  8
0
100
AcDbBlockEnd
  0
BLOCK
  5
1C
330
1B
100
AcDbEntity
 67
     1
  8
0
100
AcDbBlockBegin
  2
*PAPER_SPACE
  1

  0
ENDBLK
  5
1D
330
1B
100
AcDbEntity
 67
     1
  8
0
100
AcDbBlockEnd
  0
ENDSEC
  0
SECTION
  2
ENTITIES
  0
SPLINE
  5
100
100
AcDbEntity
  8
ink_ext_XXXXXX
 62
7
100
AcDbSpline
 70
8
 71
3
 72
8
 73
4
 74
0
 40
0
 40
0
 40
0
 40
0
 40
1
 40
1
 40
1
 40
1
 10
256.935834
 20
574.699773
 30
0.0
 10
253.931294
 20
576.433413
 30
0.0
 10
250.226124
 20
576.433413
 30
0.0
 10
247.221585
 20
574.699773
 30
0.0
  0
SPLINE
  5
101
100
AcDbEntity
  8
ink_ext_XXXXXX
 62
7
100
AcDbSpline
 70
8
 71
3
 72
8
 73
4
 74
0
 40
0
 40
0
 40
0
 40
0
 40
1
 40
1
 40
1
 40
1
 10
4.857450
 20
434.776806
 30
0.0
 10
1.851930
 20
433.039906
 30
0.0
 10
-0.000000
 20
429.830067
 30
0.0
 10
-0.000000
 20
426.359527
 30
0.0
  0
LWPOLYLINE
  5
102
100
AcDbEntity
  8
ink_ext_XXXXXX
 62
7
100
AcDbPolyline
 90
2
 70
0
 10
247.221585
 20
574.699773
 30
0.0
 10
4.857450
 20
434.776806
 30
0.0
  0
SPLINE
  5
103
100
AcDbEntity
  8
ink_ext_XXXXXX
 62
7
100
AcDbSpline
 70
8
 71
3
 72
8
 73
4
 74
0
 40
0
 40
0
 40
0
 40
0
 40
1
 40
1
 40
1
 40
1
 10
-0.000000
 20
163.928183
 30
0.0
 10
-0.000000
 20
160.024233
 30
0.0
 10
2.338130
 20
156.498303
 30
0.0
 10
5.939350
 20
154.976473
 30
0.0
  0
SPLINE
  5
104
100
AcDbEntity
  8
ink_ext_XXXXXX
 62
7
100
AcDbSpline
 70
8
 71
3
 72
8
 73
4
 74
0
 40
0
 40
0
 40
0
 40
0
 40
1
 40
1
 40
1
 40
1
 10
5.939350
 20
154.976473
 30
0.0
 10
9.539260
 20
153.457913
 30
0.0
 10
13.696729
 20
154.243263
 30
0.0
 10
16.495969
 20
156.967553
 30
0.0
  0
LWPOLYLINE
  5
105
100
AcDbEntity
  8
ink_ext_XXXXXX
 62
7
100
AcDbPolyline
 90
2
 70
0
 10
-0.000000
 20
426.359527
 30
0.0
 10
-0.000000
 20
163.928183
 30
0.0
  0
SPLINE
  5
106
100
AcDbEntity
  8
ink_ext_XXXXXX
 62
7
100
AcDbSpline
 70
8
 71
3
 72
8
 73
4
 74
0
 40
0
 40
0
 40
0
 40
0
 40
1
 40
1
 40
1
 40
1
 10
130.775087
 20
239.468601
 30
0.0
 10
133.398687
 20
242.831601
 30
0.0
 10
139.065927
 20
250.727481
 30
0.0
 10
142.473247
 20
260.200591
 30
0.0
  0
SPLINE
  5
107
100
AcDbEntity
  8
ink_ext_XXXXXX
 62
7
100
AcDbSpline
 70
8
 71
3
 72
8
 73
4
 74
0
 40
0
 40
0
 40
0
 40
0
 40
1
 40
1
 40
1
 40
1
 10
142.473247
 20
260.200591
 30
0.0
 10
143.177137
 20
262.165591
 30
0.0
 10
143.193427
 20
264.309831
 30
0.0
 10
142.509147
 20
266.278101
 30
0.0
  0
SPLINE
  5
108
100
AcDbEntity
  8
ink_ext_XXXXXX
 62
7
100
AcDbSpline
 70
8
 71
3
 72
8
 73
4
 74
0
 40
0
 40
0
 40
0
 40
0
 40
1
 40
1
 40
1
 40
1
 10
142.509147
 20
266.278101
 30
0.0
 10
140.248577
 20
272.782511
 30
0.0
 10
138.063927
 20
280.433990
 30
0.0
 10
136.446297
 20
289.164100
 30
0.0
  0
SPLINE
  5
109
100
AcDbEntity
  8
ink_ext_XXXXXX
 62
7
100
AcDbSpline
 70
8
 71
3
 72
8
 73
4
 74
0
 40
0
 40
0
 40
0
 40
0
 40
1
 40
1
 40
1
 40
1
 10
136.446297
 20
289.164100
 30
0.0
 10
135.631617
 20
293.563370
 30
0.0
 10
136.101197
 20
304.962380
 30
0.0
 10
137.044277
 20
317.518229
 30
0.0
  0
LWPOLYLINE
  5
10a
100
AcDbEntity
  8
ink_ext_XXXXXX
 62
7
100
AcDbPolyline
 90
4
 70
0
 10
16.495969
 20
156.967553
 30
0.0
 10
83.344079
 20
222.086582
 30
0.0
 10
91.171528
 20
266.806011
 30
0.0
 10
130.775087
 20
239.468601
 30
0.0
  0
SPLINE
  5
10b
100
AcDbEntity
  8
ink_ext_XXXXXX
 62
7
100
AcDbSpline
 70
8
 71
3
 72
8
 73
4
 74
0
 40
0
 40
0
 40
0
 40
0
 40
1
 40
1
 40
1
 40
1
 10
85.368129
 20
324.680899
 30
0.0
 10
84.412339
 20
324.814509
 30
0.0
 10
83.705849
 20
325.629189
 30
0.0
 10
83.705849
 20
326.590519
 30
0.0
  0
LWPOLYLINE
  5
10c
100
AcDbEntity
  8
ink_ext_XXXXXX
 62
7
100
AcDbPolyline
 90
2
 70
0
 10
137.044277
 20
317.518229
 30
0.0
 10
85.368129
 20
324.680899
 30
0.0
  0
SPLINE
  5
10d
100
AcDbEntity
  8
ink_ext_XXXXXX
 62
7
100
AcDbSpline
 70
8
 71
3
 72
8
 73
4
 74
0
 40
0
 40
0
 40
0
 40
0
 40
1
 40
1
 40
1
 40
1
 10
83.705849
 20
330.129489
 30
0.0
 10
83.705849
 20
335.164209
 30
0.0
 10
87.385929
 20
339.446169
 30
0.0
 10
92.368178
 20
340.205449
 30
0.0
  0
LWPOLYLINE
  5
10e
100
AcDbEntity
  8
ink_ext_XXXXXX
 62
7
100
AcDbPolyline
 90
2
 70
0
 10
83.705849
 20
326.590519
 30
0.0
 10
83.705849
 20
330.129489
 30
0.0
  0
SPLINE
  5
10f
100
AcDbEntity
  8
ink_ext_XXXXXX
 62
7
100
AcDbSpline
 70
8
 71
3
 72
8
 73
4
 74
0
 40
0
 40
0
 40
0
 40
0
 40
1
 40
1
 40
1
 40
1
 10
131.298497
 20
346.126549
 30
0.0
 10
133.662377
 20
346.485009
 30
0.0
 10
135.618587
 20
348.130659
 30
0.0
 10
136.378847
 20
350.395469
 30
0.0
  0
LWPOLYLINE
  5
110
100
AcDbEntity
  8
ink_ext_XXXXXX
 62
7
100
AcDbPolyline
 90
2
 70
0
 10
92.368178
 20
340.205449
 30
0.0
 10
131.298497
 20
346.126549
 30
0.0
  0
SPLINE
  5
111
100
AcDbEntity
  8
ink_ext_XXXXXX
 62
7
100
AcDbSpline
 70
8
 71
3
 72
8
 73
4
 74
0
 40
0
 40
0
 40
0
 40
0
 40
1
 40
1
 40
1
 40
1
 10
169.787907
 20
449.626796
 30
0.0
 10
171.482436
 20
454.658256
 30
0.0
 10
176.038136
 20
458.174416
 30
0.0
 10
181.333556
 20
458.532876
 30
0.0
  0
LWPOLYLINE
  5
112
100
AcDbEntity
  8
ink_ext_XXXXXX
 62
7
100
AcDbPolyline
 90
2
 70
0
 10
136.378847
 20
350.395469
 30
0.0
 10
169.787907
 20
449.626796
 30
0.0
  0
SPLINE
  5
113
100
AcDbEntity
  8
ink_ext_XXXXXX
 62
7
100
AcDbSpline
 70
8
 71
3
 72
8
 73
4
 74
0
 40
0
 40
0
 40
0
 40
0
 40
1
 40
1
 40
1
 40
1
 10
223.296105
 20
461.384266
 30
0.0
 10
227.519405
 20
461.667766
 30
0.0
 10
231.749225
 20
461.068166
 30
0.0
 10
235.724865
 20
459.624556
 30
0.0
  0
LWPOLYLINE
  5
114
100
AcDbEntity
  8
ink_ext_XXXXXX
 62
7
100
AcDbPolyline
 90
2
 70
0
 10
181.333556
 20
458.532876
 30
0.0
 10
223.296105
 20
461.384266
 30
0.0
  0
SPLINE
  5
115
100
AcDbEntity
  8
ink_ext_XXXXXX
 62
7
100
AcDbSpline
 70
8
 71
3
 72
8
 73
4
 74
0
 40
0
 40
0
 40
0
 40
0
 40
1
 40
1
 40
1
 40
1
 10
264.597144
 20
449.134726
 30
0.0
 10
270.299904
 20
447.058926
 30
0.0
 10
276.302464
 20
445.918366
 30
0.0
 10
282.366944
 20
445.758696
 30
0.0
  0
LWPOLYLINE
  5
116
100
AcDbEntity
  8
ink_ext_XXXXXX
 62
7
100
AcDbPolyline
 90
2
 70
0
 10
235.724865
 20
459.624556
 30
0.0
 10
264.597144
 20
449.134726
 30
0.0
  0
SPLINE
  5
117
100
AcDbEntity
  8
ink_ext_XXXXXX
 62
7
100
AcDbSpline
 70
8
 71
3
 72
8
 73
4
 74
0
 40
0
 40
0
 40
0
 40
0
 40
1
 40
1
 40
1
 40
1
 10
330.716592
 20
444.464976
 30
0.0
 10
333.900362
 20
444.376976
 30
0.0
 10
336.820182
 20
442.679196
 30
0.0
 10
338.465832
 20
439.951646
 30
0.0
  0
LWPOLYLINE
  5
118
100
AcDbEntity
  8
ink_ext_XXXXXX
 62
7
100
AcDbPolyline
 90
2
 70
0
 10
282.366944
 20
445.758696
 30
0.0
 10
330.716592
 20
444.464976
 30
0.0
  0
SPLINE
  5
119
100
AcDbEntity
  8
ink_ext_XXXXXX
 62
7
100
AcDbSpline
 70
8
 71
3
 72
8
 73
4
 74
0
 40
0
 40
0
 40
0
 40
0
 40
1
 40
1
 40
1
 40
1
 10
346.687592
 20
426.339977
 30
0.0
 10
348.349532
 20
423.583097
 30
0.0
 10
349.473792
 20
420.529677
 30
0.0
 10
349.988672
 20
417.355677
 30
0.0
  0
LWPOLYLINE
  5
11a
100
AcDbEntity
  8
ink_ext_XXXXXX
 62
7
100
AcDbPolyline
 90
2
 70
0
 10
338.465832
 20
439.951646
 30
0.0
 10
346.687592
 20
426.339977
 30
0.0
  0
SPLINE
  5
11b
100
AcDbEntity
  8
ink_ext_XXXXXX
 62
7
100
AcDbSpline
 70
8
 71
3
 72
8
 73
4
 74
0
 40
0
 40
0
 40
0
 40
0
 40
1
 40
1
 40
1
 40
1
 10
367.194722
 20
311.531960
 30
0.0
 10
367.422832
 20
310.137230
 30
0.0
 10
368.400452
 20
308.983640
 30
0.0
 10
369.739782
 20
308.533940
 30
0.0
  0
LWPOLYLINE
  5
11c
100
AcDbEntity
  8
ink_ext_XXXXXX
 62
7
100
AcDbPolyline
 90
2
 70
0
 10
349.988672
 20
417.355677
 30
0.0
 10
367.194722
 20
311.531960
 30
0.0
  0
SPLINE
  5
11d
100
AcDbEntity
  8
ink_ext_XXXXXX
 62
7
100
AcDbSpline
 70
8
 71
3
 72
8
 73
4
 74
0
 40
0
 40
0
 40
0
 40
0
 40
1
 40
1
 40
1
 40
1
 10
418.737910
 20
292.064360
 30
0.0
 10
422.159570
 20
290.914030
 30
0.0
 10
424.955550
 20
288.395040
 30
0.0
 10
426.461080
 20
285.116770
 30
0.0
  0
LWPOLYLINE
  5
11e
100
AcDbEntity
  8
ink_ext_XXXXXX
 62
7
100
AcDbPolyline
 90
2
 70
0
 10
369.739782
 20
308.533940
 30
0.0
 10
418.737910
 20
292.064360
 30
0.0
  0
SPLINE
  5
11f
100
AcDbEntity
  8
ink_ext_XXXXXX
 62
7
100
AcDbSpline
 70
8
 71
3
 72
8
 73
4
 74
0
 40
0
 40
0
 40
0
 40
0
 40
1
 40
1
 40
1
 40
1
 10
429.468880
 20
278.547190
 30
0.0
 10
429.628560
 20
278.205020
 30
0.0
 10
429.589460
 20
277.807460
 30
0.0
 10
429.364600
 20
277.510910
 30
0.0
  0
SPLINE
  5
120
100
AcDbEntity
  8
ink_ext_XXXXXX
 62
7
100
AcDbSpline
 70
8
 71
3
 72
8
 73
4
 74
0
 40
0
 40
0
 40
0
 40
0
 40
1
 40
1
 40
1
 40
1
 10
429.364600
 20
277.510910
 30
0.0
 10
429.139750
 20
277.211110
 30
0.0
 10
428.774780
 20
277.054690
 30
0.0
 10
428.403280
 20
277.103570
 30
0.0
  0
LWPOLYLINE
  5
121
100
AcDbEntity
  8
ink_ext_XXXXXX
 62
7
100
AcDbPolyline
 90
2
 70
0
 10
426.461080
 20
285.116770
 30
0.0
 10
429.468880
 20
278.547190
 30
0.0
  0
SPLINE
  5
122
100
AcDbEntity
  8
ink_ext_XXXXXX
 62
7
100
AcDbSpline
 70
8
 71
3
 72
8
 73
4
 74
0
 40
0
 40
0
 40
0
 40
0
 40
1
 40
1
 40
1
 40
1
 10
359.872372
 20
286.612520
 30
0.0
 10
359.781172
 20
280.062490
 30
0.0
 10
359.448742
 20
275.034280
 30
0.0
 10
358.849132
 20
272.942191
 30
0.0
  0
SPLINE
  5
123
100
AcDbEntity
  8
ink_ext_XXXXXX
 62
7
100
AcDbSpline
 70
8
 71
3
 72
8
 73
4
 74
0
 40
0
 40
0
 40
0
 40
0
 40
1
 40
1
 40
1
 40
1
 10
358.849132
 20
272.942191
 30
0.0
 10
357.447882
 20
268.041071
 30
0.0
 10
355.114642
 20
264.032841
 30
0.0
 10
354.137022
 20
262.465401
 30
0.0
  0
SPLINE
  5
124
100
AcDbEntity
  8
ink_ext_XXXXXX
 62
7
100
AcDbSpline
 70
8
 71
3
 72
8
 73
4
 74
0
 40
0
 40
0
 40
0
 40
0
 40
1
 40
1
 40
1
 40
1
 10
354.137022
 20
262.465401
 30
0.0
 10
353.847002
 20
262.005921
 30
0.0
 10
353.778562
 20
261.455191
 30
0.0
 10
353.948022
 20
260.937061
 30
0.0
  0
LWPOLYLINE
  5
125
100
AcDbEntity
  8
ink_ext_XXXXXX
 62
7
100
AcDbPolyline
 90
2
 70
0
 10
428.403280
 20
277.103570
 30
0.0
 10
359.872372
 20
286.612520
 30
0.0
  0
SPLINE
  5
126
100
AcDbEntity
  8
ink_ext_XXXXXX
 62
7
100
AcDbSpline
 70
8
 71
3
 72
8
 73
4
 74
0
 40
0
 40
0
 40
0
 40
0
 40
1
 40
1
 40
1
 40
1
 10
367.471712
 20
219.293862
 30
0.0
 10
367.696562
 20
218.599752
 30
0.0
 10
367.504312
 20
217.850242
 30
0.0
 10
366.979642
 20
217.354922
 30
0.0
  0
LWPOLYLINE
  5
127
100
AcDbEntity
  8
ink_ext_XXXXXX
 62
7
100
AcDbPolyline
 90
2
 70
0
 10
353.948022
 20
260.937061
 30
0.0
 10
367.471712
 20
219.293862
 30
0.0
  0
SPLINE
  5
128
100
AcDbEntity
  8
ink_ext_XXXXXX
 62
7
100
AcDbSpline
 70
8
 71
3
 72
8
 73
4
 74
0
 40
0
 40
0
 40
0
 40
0
 40
1
 40
1
 40
1
 40
1
 10
358.549332
 20
209.344982
 30
0.0
 10
357.343602
 20
208.204432
 30
0.0
 10
355.714242
 20
207.614602
 30
0.0
 10
354.045782
 20
207.728652
 30
0.0
  0
LWPOLYLINE
  5
129
100
AcDbEntity
  8
ink_ext_XXXXXX
 62
7
100
AcDbPolyline
 90
2
 70
0
 10
366.979642
 20
217.354922
 30
0.0
 10
358.549332
 20
209.344982
 30
0.0
  0
SPLINE
  5
12a
100
AcDbEntity
  8
ink_ext_XXXXXX
 62
7
100
AcDbSpline
 70
8
 71
3
 72
8
 73
4
 74
0
 40
0
 40
0
 40
0
 40
0
 40
1
 40
1
 40
1
 40
1
 10
341.480152
 20
208.615032
 30
0.0
 10
340.994602
 20
208.641132
 30
0.0
 10
340.564452
 20
208.308712
 30
0.0
 10
340.476462
 20
207.836192
 30
0.0
  0
SPLINE
  5
12b
100
AcDbEntity
  8
ink_ext_XXXXXX
 62
7
100
AcDbSpline
 70
8
 71
3
 72
8
 73
4
 74
0
 40
0
 40
0
 40
0
 40
0
 40
1
 40
1
 40
1
 40
1
 10
340.476462
 20
207.836192
 30
0.0
 10
339.899672
 20
204.746922
 30
0.0
 10
338.025902
 20
193.895382
 30
0.0
 10
339.378272
 20
188.785713
 30
0.0
  0
SPLINE
  5
12c
100
AcDbEntity
  8
ink_ext_XXXXXX
 62
7
100
AcDbSpline
 70
8
 71
3
 72
8
 73
4
 74
0
 40
0
 40
0
 40
0
 40
0
 40
1
 40
1
 40
1
 40
1
 10
339.378272
 20
188.785713
 30
0.0
 10
339.599872
 20
187.954733
 30
0.0
 10
339.195782
 20
187.078143
 30
0.0
 10
338.410432
 20
186.713163
 30
0.0
  0
SPLINE
  5
12d
100
AcDbEntity
  8
ink_ext_XXXXXX
 62
7
100
AcDbSpline
 70
8
 71
3
 72
8
 73
4
 74
0
 40
0
 40
0
 40
0
 40
0
 40
1
 40
1
 40
1
 40
1
 10
338.410432
 20
186.713163
 30
0.0
 10
335.865372
 20
185.526993
 30
0.0
 10
333.421332
 20
184.588473
 30
0.0
 10
332.476302
 20
184.233273
 30
0.0
  0
SPLINE
  5
12e
100
AcDbEntity
  8
ink_ext_XXXXXX
 62
7
100
AcDbSpline
 70
8
 71
3
 72
8
 73
4
 74
0
 40
0
 40
0
 40
0
 40
0
 40
1
 40
1
 40
1
 40
1
 10
332.476302
 20
184.233273
 30
0.0
 10
332.241672
 20
184.145273
 30
0.0
 10
332.117842
 20
183.897623
 30
0.0
 10
332.186282
 20
183.653223
 30
0.0
  0
LWPOLYLINE
  5
12f
100
AcDbEntity
  8
ink_ext_XXXXXX
 62
7
100
AcDbPolyline
 90
2
 70
0
 10
354.045782
 20
207.728652
 30
0.0
 10
341.480152
 20
208.615032
 30
0.0
  0
SPLINE
  5
130
100
AcDbEntity
  8
ink_ext_XXXXXX
 62
7
100
AcDbSpline
 70
8
 71
3
 72
8
 73
4
 74
0
 40
0
 40
0
 40
0
 40
0
 40
1
 40
1
 40
1
 40
1
 10
335.216892
 20
173.225313
 30
0.0
 10
335.327682
 20
172.831013
 30
0.0
 10
335.115872
 20
172.420413
 30
0.0
 10
334.731342
 20
172.293323
 30
0.0
  0
LWPOLYLINE
  5
131
100
AcDbEntity
  8
ink_ext_XXXXXX
 62
7
100
AcDbPolyline
 90
2
 70
0
 10
332.186282
 20
183.653223
 30
0.0
 10
335.216892
 20
173.225313
 30
0.0
  0
SPLINE
  5
132
100
AcDbEntity
  8
ink_ext_XXXXXX
 62
7
100
AcDbSpline
 70
8
 71
3
 72
8
 73
4
 74
0
 40
0
 40
0
 40
0
 40
0
 40
1
 40
1
 40
1
 40
1
 10
328.021633
 20
170.057833
 30
0.0
 10
327.764193
 20
169.966633
 30
0.0
 10
327.575183
 20
169.745003
 30
0.0
 10
327.542603
 20
169.474523
 30
0.0
  0
LWPOLYLINE
  5
133
100
AcDbEntity
  8
ink_ext_XXXXXX
 62
7
100
AcDbPolyline
 90
2
 70
0
 10
334.731342
 20
172.293323
 30
0.0
 10
328.021633
 20
170.057833
 30
0.0
  0
SPLINE
  5
134
100
AcDbEntity
  8
ink_ext_XXXXXX
 62
7
100
AcDbSpline
 70
8
 71
3
 72
8
 73
4
 74
0
 40
0
 40
0
 40
0
 40
0
 40
1
 40
1
 40
1
 40
1
 10
324.733583
 20
145.959594
 30
0.0
 10
324.661883
 20
145.337174
 30
0.0
 10
324.264323
 20
144.796234
 30
0.0
 10
323.690793
 20
144.532274
 30
0.0
  0
LWPOLYLINE
  5
135
100
AcDbEntity
  8
ink_ext_XXXXXX
 62
7
100
AcDbPolyline
 90
2
 70
0
 10
327.542603
 20
169.474523
 30
0.0
 10
324.733583
 20
145.959594
 30
0.0
  0
SPLINE
  5
136
100
AcDbEntity
  8
ink_ext_XXXXXX
 62
7
100
AcDbSpline
 70
8
 71
3
 72
8
 73
4
 74
0
 40
0
 40
0
 40
0
 40
0
 40
1
 40
1
 40
1
 40
1
 10
303.532343
 20
135.310094
 30
0.0
 10
302.916443
 20
135.026584
 30
0.0
 10
302.225593
 20
134.941854
 30
0.0
 10
301.564073
 20
135.088504
 30
0.0
  0
SPLINE
  5
137
100
AcDbEntity
  8
ink_ext_XXXXXX
 62
7
100
AcDbSpline
 70
8
 71
3
 72
8
 73
4
 74
0
 40
0
 40
0
 40
0
 40
0
 40
1
 40
1
 40
1
 40
1
 10
301.564073
 20
135.088504
 30
0.0
 10
298.060953
 20
135.844524
 30
0.0
 10
285.909174
 20
139.236854
 30
0.0
 10
264.945824
 20
152.965844
 30
0.0
  0
SPLINE
  5
138
100
AcDbEntity
  8
ink_ext_XXXXXX
 62
7
100
AcDbSpline
 70
8
 71
3
 72
8
 73
4
 74
0
 40
0
 40
0
 40
0
 40
0
 40
1
 40
1
 40
1
 40
1
 10
264.945824
 20
152.965844
 30
0.0
 10
260.553064
 20
155.843293
 30
0.0
 10
254.837274
 20
155.722723
 30
0.0
 10
250.565084
 20
152.672564
 30
0.0
  0
SPLINE
  5
139
100
AcDbEntity
  8
ink_ext_XXXXXX
 62
7
100
AcDbSpline
 70
8
 71
3
 72
8
 73
4
 74
0
 40
0
 40
0
 40
0
 40
0
 40
1
 40
1
 40
1
 40
1
 10
250.565084
 20
152.672564
 30
0.0
 10
248.150375
 20
150.942184
 30
0.0
 10
245.484735
 20
149.087964
 30
0.0
 10
243.083065
 20
147.439054
 30
0.0
  0
LWPOLYLINE
  5
13a
100
AcDbEntity
  8
ink_ext_XXXXXX
 62
7
100
AcDbPolyline
 90
2
 70
0
 10
323.690793
 20
144.532274
 30
0.0
 10
303.532343
 20
135.310094
 30
0.0
  0
SPLINE
  5
13b
100
AcDbEntity
  8
ink_ext_XXXXXX
 62
7
100
AcDbSpline
 70
8
 71
3
 72
8
 73
4
 74
0
 40
0
 40
0
 40
0
 40
0
 40
1
 40
1
 40
1
 40
1
 10
239.847155
 20
105.763265
 30
0.0
 10
239.430035
 20
105.776265
 30
0.0
 10
239.022695
 20
105.613365
 30
0.0
 10
238.732665
 20
105.307045
 30
0.0
  0
SPLINE
  5
13c
100
AcDbEntity
  8
ink_ext_XXXXXX
 62
7
100
AcDbSpline
 70
8
 71
3
 72
8
 73
4
 74
0
 40
0
 40
0
 40
0
 40
0
 40
1
 40
1
 40
1
 40
1
 10
238.732665
 20
105.307045
 30
0.0
 10
238.442645
 20
104.997465
 30
0.0
 10
238.302515
 20
104.580355
 30
0.0
 10
238.344885
 20
104.159975
 30
0.0
  0
LWPOLYLINE
  5
13d
100
AcDbEntity
  8
ink_ext_XXXXXX
 62
7
100
AcDbPolyline
 90
3
 70
0
 10
243.083065
 20
147.439054
 30
0.0
 10
298.347713
 20
108.347435
 30
0.0
 10
239.847155
 20
105.763265
 30
0.0
  0
SPLINE
  5
13e
100
AcDbEntity
  8
ink_ext_XXXXXX
 62
7
100
AcDbSpline
 70
8
 71
3
 72
8
 73
4
 74
0
 40
0
 40
0
 40
0
 40
0
 40
1
 40
1
 40
1
 40
1
 10
238.413285
 20
103.508235
 30
0.0
 10
238.540375
 20
102.295985
 30
0.0
 10
238.149325
 20
101.087005
 30
0.0
 10
237.334645
 20
100.171305
 30
0.0
  0
SPLINE
  5
13f
100
AcDbEntity
  8
ink_ext_XXXXXX
 62
7
100
AcDbSpline
 70
8
 71
3
 72
8
 73
4
 74
0
 40
0
 40
0
 40
0
 40
0
 40
1
 40
1
 40
1
 40
1
 10
237.334645
 20
100.171305
 30
0.0
 10
236.513455
 20
99.268635
 30
0.0
 10
235.353345
 20
98.753755
 30
0.0
 10
234.131325
 20
98.753755
 30
0.0
  0
SPLINE
  5
140
100
AcDbEntity
  8
ink_ext_XXXXXX
 62
7
100
AcDbSpline
 70
8
 71
3
 72
8
 73
4
 74
0
 40
0
 40
0
 40
0
 40
0
 40
1
 40
1
 40
1
 40
1
 10
234.131325
 20
98.753755
 30
0.0
 10
233.772865
 20
98.753755
 30
0.0
 10
233.437215
 20
98.577785
 30
0.0
 10
233.225405
 20
98.284505
 30
0.0
  0
SPLINE
  5
141
100
AcDbEntity
  8
ink_ext_XXXXXX
 62
7
100
AcDbSpline
 70
8
 71
3
 72
8
 73
4
 74
0
 40
0
 40
0
 40
0
 40
0
 40
1
 40
1
 40
1
 40
1
 10
233.225405
 20
98.284505
 30
0.0
 10
233.013585
 20
97.994475
 30
0.0
 10
232.958185
 20
97.616465
 30
0.0
 10
233.068985
 20
97.280815
 30
0.0
  0
LWPOLYLINE
  5
142
100
AcDbEntity
  8
ink_ext_XXXXXX
 62
7
100
AcDbPolyline
 90
2
 70
0
 10
238.344885
 20
104.159975
 30
0.0
 10
238.413285
 20
103.508235
 30
0.0
  0
SPLINE
  5
143
100
AcDbEntity
  8
ink_ext_XXXXXX
 62
7
100
AcDbSpline
 70
8
 71
3
 72
8
 73
4
 74
0
 40
0
 40
0
 40
0
 40
0
 40
1
 40
1
 40
1
 40
1
 10
233.622965
 20
95.628645
 30
0.0
 10
234.033565
 20
94.393585
 30
0.0
 10
233.919505
 20
93.060775
 30
0.0
 10
233.313385
 20
91.923476
 30
0.0
  0
SPLINE
  5
144
100
AcDbEntity
  8
ink_ext_XXXXXX
 62
7
100
AcDbSpline
 70
8
 71
3
 72
8
 73
4
 74
0
 40
0
 40
0
 40
0
 40
0
 40
1
 40
1
 40
1
 40
1
 10
233.313385
 20
91.923476
 30
0.0
 10
232.704005
 20
90.786185
 30
0.0
 10
231.661215
 20
89.945435
 30
0.0
 10
230.419645
 20
89.600011
 30
0.0
  0
LWPOLYLINE
  5
145
100
AcDbEntity
  8
ink_ext_XXXXXX
 62
7
100
AcDbPolyline
 90
2
 70
0
 10
233.068985
 20
97.280815
 30
0.0
 10
233.622965
 20
95.628645
 30
0.0
  0
SPLINE
  5
146
100
AcDbEntity
  8
ink_ext_XXXXXX
 62
7
100
AcDbSpline
 70
8
 71
3
 72
8
 73
4
 74
0
 40
0
 40
0
 40
0
 40
0
 40
1
 40
1
 40
1
 40
1
 10
224.215035
 20
87.882665
 30
0.0
 10
222.813785
 20
87.488359
 30
0.0
 10
221.907865
 20
86.129473
 30
0.0
 10
222.093605
 20
84.689118
 30
0.0
  0
LWPOLYLINE
  5
147
100
AcDbEntity
  8
ink_ext_XXXXXX
 62
7
100
AcDbPolyline
 90
2
 70
0
 10
230.419645
 20
89.600011
 30
0.0
 10
224.215035
 20
87.882665
 30
0.0
  0
SPLINE
  5
148
100
AcDbEntity
  8
ink_ext_XXXXXX
 62
7
100
AcDbSpline
 70
8
 71
3
 72
8
 73
4
 74
0
 40
0
 40
0
 40
0
 40
0
 40
1
 40
1
 40
1
 40
1
 10
248.296985
 20
6.623191
 30
0.0
 10
249.225725
 20
3.863054
 30
0.0
 10
251.343894
 20
1.660158
 30
0.0
 10
254.071444
 20
0.627144
 30
0.0
  0
SPLINE
  5
149
100
AcDbEntity
  8
ink_ext_XXXXXX
 62
7
100
AcDbSpline
 70
8
 71
3
 72
8
 73
4
 74
0
 40
0
 40
0
 40
0
 40
0
 40
1
 40
1
 40
1
 40
1
 10
254.071444
 20
0.627144
 30
0.0
 10
256.798994
 20
-0.402612
 30
0.0
 10
259.842634
 20
-0.154949
 30
0.0
 10
262.368144
 20
1.301699
 30
0.0
  0
LWPOLYLINE
  5
14a
100
AcDbEntity
  8
ink_ext_XXXXXX
 62
7
100
AcDbPolyline
 90
2
 70
0
 10
222.093605
 20
84.689118
 30
0.0
 10
248.296985
 20
6.623191
 30
0.0
  0
SPLINE
  5
14b
100
AcDbEntity
  8
ink_ext_XXXXXX
 62
7
100
AcDbSpline
 70
8
 71
3
 72
8
 73
4
 74
0
 40
0
 40
0
 40
0
 40
0
 40
1
 40
1
 40
1
 40
1
 10
499.299968
 20
138.096304
 30
0.0
 10
502.304508
 20
139.829944
 30
0.0
 10
504.155468
 20
143.039784
 30
0.0
 10
504.155468
 20
146.510314
 30
0.0
  0
LWPOLYLINE
  5
14c
100
AcDbEntity
  8
ink_ext_XXXXXX
 62
7
100
AcDbPolyline
 90
2
 70
0
 10
262.368144
 20
1.301699
 30
0.0
 10
499.299968
 20
138.096304
 30
0.0
  0
SPLINE
  5
14d
100
AcDbEntity
  8
ink_ext_XXXXXX
 62
7
100
AcDbSpline
 70
8
 71
3
 72
8
 73
4
 74
0
 40
0
 40
0
 40
0
 40
0
 40
1
 40
1
 40
1
 40
1
 10
504.155468
 20
426.359527
 30
0.0
 10
504.155468
 20
429.830067
 30
0.0
 10
502.304508
 20
433.039906
 30
0.0
 10
499.299968
 20
434.776806
 30
0.0
  0
LWPOLYLINE
  5
14e
100
AcDbEntity
  8
ink_ext_XXXXXX
 62
7
100
AcDbPolyline
 90
2
 70
0
 10
504.155468
 20
146.510314
 30
0.0
 10
504.155468
 20
426.359527
 30
0.0
  0
LWPOLYLINE
  5
14f
100
AcDbEntity
  8
ink_ext_XXXXXX
 62
7
100
AcDbPolyline
 90
2
 70
0
 10
499.299968
 20
434.776806
 30
0.0
 10
256.935834
 20
574.699773
 30
0.0
  0
ENDSEC
  0
SECTION
  2
OBJECTS
  0
DICTIONARY
  5
C
330
0
100
AcDbDictionary
  3
ACAD_GROUP
350
D
  3
ACAD_MLINESTYLE
350
17
  0
DICTIONARY
  5
D
330
C
100
AcDbDictionary
  0
DICTIONARY
  5
1A
330
C
100
AcDbDictionary
  0
DICTIONARY
  5
17
330
C
100
AcDbDictionary
  3
STANDARD
350
18
  0
DICTIONARY
  5
19
330
C
100
AcDbDictionary
  0
ENDSEC
  0
EOF
