<?xml version="1.0" encoding="UTF-8" standalone="no"?>
<svg
   xmlns:dc="http://purl.org/dc/elements/1.1/"
   xmlns:cc="http://creativecommons.org/ns#"
   xmlns:rdf="http://www.w3.org/1999/02/22-rdf-syntax-ns#"
   xmlns:svg="http://www.w3.org/2000/svg"
   xmlns="http://www.w3.org/2000/svg"
   xmlns:sodipodi="http://sodipodi.sourceforge.net/DTD/sodipodi-0.dtd"
   xmlns:inkscape="http://www.inkscape.org/namespaces/inkscape"
   width="3in"
   height="1.75in"
   viewBox="0 0 76.200001 44.450001"
   version="1.1"
   id="svg8"
   inkscape:version="1.0alpha (unknown)"
   sodipodi:docname="Speaker 2019 All Items.svg">
  <defs
     id="defs2" />
  <sodipodi:namedview
     id="base"
     pagecolor="#ffffff"
     bordercolor="#666666"
     borderopacity="1.0"
     inkscape:pageopacity="0.0"
     inkscape:pageshadow="2"
     inkscape:zoom="1.4"
     inkscape:cx="88.951926"
     inkscape:cy="180.2957"
     inkscape:document-units="in"
     inkscape:current-layer="layer1"
     inkscape:document-rotation="0"
     showgrid="false"
     units="in"
     inkscape:window-width="1537"
     inkscape:window-height="1015"
     inkscape:window-x="284"
     inkscape:window-y="27"
     inkscape:window-maximized="0" />
  <metadata
     id="metadata5">
    <rdf:RDF>
      <cc:Work
         rdf:about="">
        <dc:format>image/svg+xml</dc:format>
        <dc:type
           rdf:resource="http://purl.org/dc/dcmitype/StillImage" />
        <dc:title></dc:title>
      </cc:Work>
    </rdf:RDF>
  </metadata>
  <g
     inkscape:label="Layer 1"
     inkscape:groupmode="layer"
     id="layer1">
    <path
       d="m 16.466011,5.4418918 c -0.186732,-0.1069826 -0.417007,-0.1069826 -0.603737,0 L 0.79944534,14.076503 c -0.1867929,0.107182 -0.3018895,0.305262 -0.3018895,0.519428 V 30.7905 c 0,0.240914 0.1453139,0.458497 0.3691288,0.55241 0.22373316,0.09371 0.48211756,0.04525 0.65608866,-0.12287 L 5.6773564,27.201561 6.163829,24.441937 8.625173,26.12892 c 0.163055,-0.207529 0.515272,-0.694781 0.727035,-1.279365 0.04374,-0.121259 0.04476,-0.253579 0.0023,-0.37504 C 9.214014,24.073128 9.078239,23.600958 8.977704,23.062224 8.927074,22.790746 8.956254,22.087317 9.014864,21.312499 L 5.8032117,20.870492 c -0.059404,-0.0083 -0.1033091,-0.05852 -0.1033091,-0.117842 v -0.218389 c 0,-0.310691 0.228715,-0.57493 0.5383604,-0.621786 l 2.419502,-0.365388 c 0.146914,-0.02213 0.268493,-0.123674 0.315741,-0.263434 l 2.07634,-6.12354 c 0.105314,-0.310491 0.388449,-0.527471 0.717557,-0.549591 l 2.607955,-0.175959 c 0.262476,-0.01749 0.525358,0.0195 0.772443,0.108591 l 1.794399,0.647324 c 0.354424,0.128097 0.727481,0.19848 1.104385,0.208334 l 3.004911,0.07984 c 0.197869,0.0055 0.379335,0.110201 0.481611,0.278517 l 0.510981,0.839972 c 0.103288,0.170127 0.173161,0.358553 0.205159,0.55442 l 1.06935,6.530354 c 0.01418,0.08607 0.07493,0.157256 0.158174,0.185007 l 3.045215,1.016334 c 0.212652,0.07099 0.386421,0.226433 0.47999,0.428734 l 0.186932,0.405406 c 0.0099,0.02112 0.0075,0.04564 -0.0065,0.06394 -0.01397,0.01849 -0.03665,0.02815 -0.05975,0.02514 l -4.25915,-0.5868 c -0.0057,0.404204 -0.02633,0.714491 -0.0636,0.843594 -0.08709,0.302447 -0.232098,0.549793 -0.292857,0.646521 -0.01803,0.02836 -0.02228,0.06234 -0.01176,0.09431 l 0.840495,2.569792 c 0.01397,0.04284 0.002,0.08909 -0.03058,0.119651 l -0.523939,0.494291 c -0.07493,0.07039 -0.1762,0.106781 -0.279895,0.09974 l -0.780947,-0.0547 c -0.03017,-0.0016 -0.05691,0.0189 -0.06238,0.04806 -0.03585,0.190639 -0.152303,0.860284 -0.06825,1.175601 0.01377,0.05128 -0.01134,0.105372 -0.06015,0.127897 -0.158174,0.07319 -0.310069,0.131113 -0.368804,0.153032 -0.01459,0.0055 -0.02228,0.02071 -0.01803,0.03579 l 0.188352,0.643503 c 0.0069,0.02433 -0.0062,0.04967 -0.03017,0.05751 l -0.417006,0.137952 c -0.01599,0.0056 -0.02774,0.0193 -0.02978,0.03599 l -0.17458,1.451102 c -0.0044,0.03841 -0.02916,0.07179 -0.0648,0.08808 l -1.252841,0.569099 c -0.03827,0.01749 -0.0812,0.02272 -0.122325,0.01367 -0.217726,-0.04665 -0.972955,-0.255994 -2.275817,-1.103206 -0.273008,-0.177566 -0.628243,-0.170126 -0.893757,0.01811 -0.150073,0.106781 -0.315742,0.221205 -0.465005,0.322958 l 3.434675,2.412333 -3.635785,0.15947 c -0.02592,-8.78e-4 -0.05124,0.0093 -0.06926,0.02815 -0.01803,0.0191 -0.02673,0.04484 -0.0241,0.07078 l 0.0042,0.04021 c 0.0079,0.0748 -0.0164,0.149414 -0.06704,0.205922 -0.05104,0.05569 -0.123137,0.08748 -0.199085,0.08748 -0.02228,0 -0.04314,0.01087 -0.0563,0.02896 -0.01316,0.0179 -0.01661,0.04122 -0.0097,0.06195 l 0.03443,0.101955 c 0.02552,0.07621 0.01843,0.158462 -0.01925,0.228644 -0.03788,0.07019 -0.102681,0.122064 -0.179845,0.143381 l -0.385614,0.105977 c -0.08709,0.02433 -0.14339,0.108189 -0.131846,0.197073 l 1.62853,4.817429 c 0.05771,0.170326 0.189363,0.306266 0.358879,0.370014 0.169517,0.06354 0.358678,0.04826 0.515636,-0.04163 l 14.725199,-8.441562 c 0.18673,-0.106982 0.301768,-0.30506 0.301768,-0.519225 v -17.26942 c 0,-0.214166 -0.115038,-0.412246 -0.301768,-0.519428 L 16.466011,5.4418918"
       style="fill:#231f20;fill-opacity:1;fill-rule:nonzero;stroke:none;stroke-width:0.020181"
       id="path846"
       inkscape:connector-curvature="0" />
    <g
       id="g850"
       transform="matrix(0.14023004,0,0,-0.14023004,0.52085763,64.682483)">
      <path
         inkscape:connector-curvature="0"
         id="path829"
         style="fill:#231f20;fill-opacity:1;fill-rule:nonzero;stroke:none;stroke-width:0.1"
         d="m 239.947,285.559 c 0,0 6.6,-6.028 13.934,-6.028 2.932,0 6.109,1.141 6.109,4.645 0,6.926 -26.236,6.679 -26.234,24.606 0,10.757 9.042,17.844 20.612,17.844 12.552,0 18.741,-6.6 18.741,-6.6 l -6.028,-11.652 c 0,0 -5.868,5.134 -12.874,5.134 -2.932,0 -6.193,-1.302 -6.193,-4.563 0,-7.332 26.237,-6.028 26.238,-24.443 -0.001,-9.695 -7.415,-18.091 -20.534,-18.091 -13.69,0 -21.268,8.312 -21.268,8.312 l 7.497,10.836" />
      <path
         inkscape:connector-curvature="0"
         id="path831"
         style="fill:#231f20;fill-opacity:1;fill-rule:nonzero;stroke:none;stroke-width:0.1"
         d="m 295.023,325.648 36.502,0.002 0.001,-12.223 h -22.245 v -10.594 h 17.763 V 290.61 h -17.763 l -0.002,-10.999 h 23.388 v -12.223 h -37.645 l 0.001,58.26" />
      <path
         inkscape:connector-curvature="0"
         id="path833"
         style="fill:#231f20;fill-opacity:1;fill-rule:nonzero;stroke:none;stroke-width:0.1"
         d="m 380.02,326.626 c 14.421,0 21.834,-8.228 21.834,-8.228 l -6.597,-10.757 c 0,0 -6.522,5.946 -14.588,5.946 -11.162,0 -16.459,-8.229 -16.459,-16.619 0,-8.638 5.707,-17.517 16.459,-17.517 8.802,0 15.484,7.168 15.484,7.168 l 7.332,-10.429 c 0,0 -8.228,-9.779 -23.465,-9.779 -18.254,0 -30.56,12.958 -30.56,30.232 0,16.944 13.039,29.983 30.56,29.983" />
      <path
         inkscape:connector-curvature="0"
         id="path835"
         style="fill:#231f20;fill-opacity:1;fill-rule:nonzero;stroke:none;stroke-width:0.1"
         d="m 422.164,325.648 14.26,0.002 v -22.491 h 5.867 l 12.062,22.491 h 15.317 l -15.725,-27.868 v -0.163 l 16.623,-30.231 h -15.973 l -12.304,23.631 h -5.867 v -23.631 h -14.26 v 58.26" />
      <path
         inkscape:connector-curvature="0"
         id="path837"
         style="fill:#231f20;fill-opacity:1;fill-rule:nonzero;stroke:none;stroke-width:0.1"
         d="m 513.837,326.626 c 14.421,0 21.838,-8.228 21.838,-8.228 l -6.601,-10.757 c 0,0 -6.517,5.947 -14.586,5.946 -11.162,0 -16.462,-8.229 -16.462,-16.619 0,-8.638 5.706,-17.517 16.464,-17.517 8.797,0 15.481,7.168 15.481,7.168 l 7.336,-10.429 c 0,0 -8.233,-9.779 -23.47,-9.78 -18.253,0 -30.554,12.959 -30.554,30.233 0,16.944 13.034,29.983 30.554,29.983" />
    </g>
    <g
       id="text2982"
       style="font-style:normal;font-weight:normal;font-size:8.9948px;line-height:0;font-family:sans-serif;fill:#000000;fill-opacity:1;stroke:none;stroke-width:0.22487"
       aria-label="SPEAKER
2019">
      <path
         inkscape:connector-curvature="0"
         id="path3004"
         style="font-style:normal;font-variant:normal;font-weight:bold;font-stretch:normal;font-size:5.99656px;line-height:normal;font-family:'Museo Sans';-inkscape-font-specification:'Museo Sans Bold';text-align:center;text-anchor:middle;stroke-width:0.22487"
         d="m 41.20076,34.085493 c 0,0 0.55768,0.611649 1.565102,0.611649 0.965446,0 1.511133,-0.617646 1.511133,-1.331237 0,-1.355222 -1.930892,-1.259277 -1.930892,-1.798968 0,-0.239862 0.239863,-0.335807 0.455739,-0.335807 0.515704,0 0.947456,0.377783 0.947456,0.377783 l 0.443746,-0.857508 c 0,0 -0.455739,-0.485721 -1.379209,-0.485721 -0.851512,0 -1.51713,0.521701 -1.51713,1.313247 0,1.319243 1.930892,1.301253 1.930892,1.810961 0,0.257852 -0.233865,0.341804 -0.449742,0.341804 -0.53969,0 -1.025411,-0.443746 -1.025411,-0.443746 z" />
      <path
         inkscape:connector-curvature="0"
         id="path3006"
         style="font-style:normal;font-variant:normal;font-weight:bold;font-stretch:normal;font-size:5.99656px;line-height:normal;font-family:'Museo Sans';-inkscape-font-specification:'Museo Sans Bold';text-align:center;text-anchor:middle;stroke-width:0.22487"
         d="m 44.997051,34.625183 h 1.049398 v -1.32524 h 0.731581 c 0.833521,0 1.397198,-0.623642 1.397198,-1.487147 0,-0.863504 -0.563677,-1.475153 -1.397198,-1.475153 h -1.780979 z m 1.049398,-2.224724 v -1.163332 h 0.533694 c 0.347801,0 0.527697,0.233865 0.527697,0.575669 0,0.341804 -0.179896,0.587663 -0.545687,0.587663 z" />
      <path
         inkscape:connector-curvature="0"
         id="path3008"
         style="font-style:normal;font-variant:normal;font-weight:bold;font-stretch:normal;font-size:5.99656px;line-height:normal;font-family:'Museo Sans';-inkscape-font-specification:'Museo Sans Bold';text-align:center;text-anchor:middle;stroke-width:0.22487"
         d="m 48.803461,34.625183 h 2.770411 v -0.899484 h -1.721013 v -0.809536 h 1.30725 v -0.899484 h -1.30725 v -0.779552 h 1.637061 v -0.899484 h -2.686459 z" />
      <path
         inkscape:connector-curvature="0"
         id="path3010"
         style="font-style:normal;font-variant:normal;font-weight:bold;font-stretch:normal;font-size:5.99656px;line-height:normal;font-family:'Museo Sans';-inkscape-font-specification:'Museo Sans Bold';text-align:center;text-anchor:middle;stroke-width:0.22487"
         d="m 54.7394,34.625183 h 1.079381 l -1.457164,-4.28754 H 53.25825 l -1.457164,4.28754 h 1.079381 l 0.257852,-0.899484 h 1.337233 z m -0.92347,-3.310101 c 0,0 0.09595,0.467732 0.1739,0.737577 l 0.239863,0.833522 h -0.845515 l 0.245859,-0.833522 c 0.07795,-0.269845 0.1739,-0.737577 0.1739,-0.737577 z" />
      <path
         inkscape:connector-curvature="0"
         id="path3012"
         style="font-style:normal;font-variant:normal;font-weight:bold;font-stretch:normal;font-size:5.99656px;line-height:normal;font-family:'Museo Sans';-inkscape-font-specification:'Museo Sans Bold';text-align:center;text-anchor:middle;stroke-width:0.22487"
         d="m 56.299162,34.625183 h 1.049398 v -1.739002 h 0.431753 l 0.90548,1.739002 h 1.175326 l -1.223298,-2.224724 v -0.01199 l 1.157336,-2.050823 h -1.127354 l -0.88749,1.65505 H 57.34856 v -1.65505 h -1.049398 z" />
      <path
         inkscape:connector-curvature="0"
         id="path3014"
         style="font-style:normal;font-variant:normal;font-weight:bold;font-stretch:normal;font-size:5.99656px;line-height:normal;font-family:'Museo Sans';-inkscape-font-specification:'Museo Sans Bold';text-align:center;text-anchor:middle;stroke-width:0.22487"
         d="m 60.445221,34.625183 h 2.770411 v -0.899484 h -1.721013 v -0.809536 h 1.30725 v -0.899484 h -1.30725 v -0.779552 h 1.637061 v -0.899484 h -2.686459 z" />
      <path
         inkscape:connector-curvature="0"
         id="path3016"
         style="font-style:normal;font-variant:normal;font-weight:bold;font-stretch:normal;font-size:5.99656px;line-height:normal;font-family:'Museo Sans';-inkscape-font-specification:'Museo Sans Bold';text-align:center;text-anchor:middle;stroke-width:0.22487"
         d="m 63.970543,34.625183 h 1.049398 v -1.445171 h 0.491718 l 0.761563,1.445171 h 1.169329 l -0.833521,-1.49914 c -0.101942,-0.179897 -0.161908,-0.257852 -0.161908,-0.257852 v -0.01199 c 0.425756,-0.215876 0.641632,-0.713591 0.641632,-1.169329 0,-0.623643 -0.305824,-1.061391 -0.791546,-1.247285 -0.185893,-0.07196 -0.395772,-0.101941 -0.833521,-0.101941 h -1.493144 z m 1.049398,-2.344655 v -1.043401 h 0.353797 c 0.527698,0 0.647629,0.19189 0.647629,0.515704 0,0.341804 -0.20988,0.527697 -0.545687,0.527697 z" />
      <path
         inkscape:connector-curvature="0"
         id="path3018"
         style="font-style:normal;font-variant:normal;font-weight:bold;font-stretch:normal;font-size:5.99656px;line-height:normal;font-family:'Museo Sans';-inkscape-font-specification:'Museo Sans Bold';text-align:center;text-anchor:middle;stroke-width:0.22487"
         d="m 47.388226,42.120883 h 2.968298 v -0.899484 h -1.822955 c 0.02998,-0.551683 1.756992,-0.809535 1.756992,-2.146768 0,-0.911477 -0.761563,-1.313247 -1.46316,-1.313247 -1.11536,0 -1.511133,0.92347 -1.511133,0.92347 l 0.779552,0.521701 c 0,0 0.22787,-0.455739 0.635636,-0.455739 0.221873,0 0.461735,0.125928 0.461735,0.425756 0,0.617646 -1.852937,0.899484 -1.852937,2.482576 0,0.143918 0.01799,0.293832 0.04797,0.461735 z" />
      <path
         inkscape:connector-curvature="0"
         id="path3020"
         style="font-style:normal;font-variant:normal;font-weight:bold;font-stretch:normal;font-size:5.99656px;line-height:normal;font-family:'Museo Sans';-inkscape-font-specification:'Museo Sans Bold';text-align:center;text-anchor:middle;stroke-width:0.22487"
         d="m 52.578624,42.192842 c 1.217302,0 1.613075,-0.995429 1.613075,-2.224724 0,-1.229295 -0.395773,-2.206734 -1.613075,-2.206734 -1.217302,0 -1.613075,0.977439 -1.613075,2.206734 0,1.229295 0.395773,2.224724 1.613075,2.224724 z m 0,-0.95945 c -0.413763,0 -0.533694,-0.563676 -0.533694,-1.265274 0,-0.695601 0.119931,-1.247284 0.533694,-1.247284 0.413763,0 0.533694,0.551683 0.533694,1.247284 0,0.701598 -0.119931,1.265274 -0.533694,1.265274 z" />
      <path
         inkscape:connector-curvature="0"
         id="path3022"
         style="font-style:normal;font-variant:normal;font-weight:bold;font-stretch:normal;font-size:5.99656px;line-height:normal;font-family:'Museo Sans';-inkscape-font-specification:'Museo Sans Bold';text-align:center;text-anchor:middle;stroke-width:0.22487"
         d="m 54.837078,42.120883 h 2.854363 v -0.899484 h -0.917474 v -3.388056 h -0.90548 l -1.157336,1.085377 0.605652,0.647629 0.257852,-0.233866 c 0.113935,-0.107938 0.167904,-0.22787 0.167904,-0.22787 h 0.01199 c 0,0 -0.006,0.167904 -0.006,0.329811 v 1.786975 h -0.911478 z" />
      <path
         inkscape:connector-curvature="0"
         id="path3024"
         style="font-style:normal;font-variant:normal;font-weight:bold;font-stretch:normal;font-size:5.99656px;line-height:normal;font-family:'Museo Sans';-inkscape-font-specification:'Museo Sans Bold';text-align:center;text-anchor:middle;stroke-width:0.22487"
         d="m 59.21869,42.192842 c 1.331237,0 2.044827,-1.217302 2.044827,-2.380634 0,-1.397199 -0.875498,-2.050824 -1.739002,-2.050824 -0.929467,0 -1.463161,0.719587 -1.463161,1.445171 0,0.737577 0.509708,1.469157 1.403195,1.469157 0.203883,0 0.491718,-0.07196 0.587663,-0.149914 h 0.01199 c -0.131924,0.395773 -0.419759,0.707594 -0.92347,0.707594 -0.305825,0 -0.587663,-0.125927 -0.587663,-0.125927 l -0.281838,0.899484 c 0,0 0.3478,0.185893 0.947456,0.185893 z m 0.521701,-2.362645 c -0.461735,0 -0.647629,-0.323814 -0.647629,-0.629639 0,-0.251855 0.167904,-0.479724 0.431753,-0.479724 0.299828,0 0.659621,0.341804 0.659621,0.851511 0,0.197887 -0.203883,0.257852 -0.443745,0.257852 z" />
    </g>
  </g>
</svg>
