<?xml version="1.0" encoding="UTF-8" standalone="no"?>
<svg
   xmlns:dc="http://purl.org/dc/elements/1.1/"
   xmlns:cc="http://creativecommons.org/ns#"
   xmlns:rdf="http://www.w3.org/1999/02/22-rdf-syntax-ns#"
   xmlns:svg="http://www.w3.org/2000/svg"
   xmlns="http://www.w3.org/2000/svg"
   xmlns:sodipodi="http://sodipodi.sourceforge.net/DTD/sodipodi-0.dtd"
   xmlns:inkscape="http://www.inkscape.org/namespaces/inkscape"
   width="3in"
   height="1.75in"
   viewBox="0 0 76.200001 44.450001"
   version="1.1"
   id="svg8"
   inkscape:version="1.0alpha (unknown)"
   sodipodi:docname="Speaker 2018 All Items.svg">
  <defs
     id="defs2" />
  <sodipodi:namedview
     id="base"
     pagecolor="#ffffff"
     bordercolor="#666666"
     borderopacity="1.0"
     inkscape:pageopacity="0.0"
     inkscape:pageshadow="2"
     inkscape:zoom="1.4"
     inkscape:cx="88.951926"
     inkscape:cy="180.2957"
     inkscape:document-units="in"
     inkscape:current-layer="layer1"
     inkscape:document-rotation="0"
     showgrid="false"
     units="in"
     inkscape:window-width="1537"
     inkscape:window-height="1015"
     inkscape:window-x="284"
     inkscape:window-y="27"
     inkscape:window-maximized="0" />
  <metadata
     id="metadata5">
    <rdf:RDF>
      <cc:Work
         rdf:about="">
        <dc:format>image/svg+xml</dc:format>
        <dc:type
           rdf:resource="http://purl.org/dc/dcmitype/StillImage" />
        <dc:title></dc:title>
      </cc:Work>
    </rdf:RDF>
  </metadata>
  <g
     inkscape:label="Layer 1"
     inkscape:groupmode="layer"
     id="layer1">
    <path
       d="m 16.466011,5.4418918 c -0.186732,-0.1069826 -0.417007,-0.1069826 -0.603737,0 L 0.79944534,14.076503 c -0.1867929,0.107182 -0.3018895,0.305262 -0.3018895,0.519428 V 30.7905 c 0,0.240914 0.1453139,0.458497 0.3691288,0.55241 0.22373316,0.09371 0.48211756,0.04525 0.65608866,-0.12287 L 5.6773564,27.201561 6.163829,24.441937 8.625173,26.12892 c 0.163055,-0.207529 0.515272,-0.694781 0.727035,-1.279365 0.04374,-0.121259 0.04476,-0.253579 0.0023,-0.37504 C 9.214014,24.073128 9.078239,23.600958 8.977704,23.062224 8.927074,22.790746 8.956254,22.087317 9.014864,21.312499 L 5.8032117,20.870492 c -0.059404,-0.0083 -0.1033091,-0.05852 -0.1033091,-0.117842 v -0.218389 c 0,-0.310691 0.228715,-0.57493 0.5383604,-0.621786 l 2.419502,-0.365388 c 0.146914,-0.02213 0.268493,-0.123674 0.315741,-0.263434 l 2.07634,-6.12354 c 0.105314,-0.310491 0.388449,-0.527471 0.717557,-0.549591 l 2.607955,-0.175959 c 0.262476,-0.01749 0.525358,0.0195 0.772443,0.108591 l 1.794399,0.647324 c 0.354424,0.128097 0.727481,0.19848 1.104385,0.208334 l 3.004911,0.07984 c 0.197869,0.0055 0.379335,0.110201 0.481611,0.278517 l 0.510981,0.839972 c 0.103288,0.170127 0.173161,0.358553 0.205159,0.55442 l 1.06935,6.530354 c 0.01418,0.08607 0.07493,0.157256 0.158174,0.185007 l 3.045215,1.016334 c 0.212652,0.07099 0.386421,0.226433 0.47999,0.428734 l 0.186932,0.405406 c 0.0099,0.02112 0.0075,0.04564 -0.0065,0.06394 -0.01397,0.01849 -0.03665,0.02815 -0.05975,0.02514 l -4.25915,-0.5868 c -0.0057,0.404204 -0.02633,0.714491 -0.0636,0.843594 -0.08709,0.302447 -0.232098,0.549793 -0.292857,0.646521 -0.01803,0.02836 -0.02228,0.06234 -0.01176,0.09431 l 0.840495,2.569792 c 0.01397,0.04284 0.002,0.08909 -0.03058,0.119651 l -0.523939,0.494291 c -0.07493,0.07039 -0.1762,0.106781 -0.279895,0.09974 l -0.780947,-0.0547 c -0.03017,-0.0016 -0.05691,0.0189 -0.06238,0.04806 -0.03585,0.190639 -0.152303,0.860284 -0.06825,1.175601 0.01377,0.05128 -0.01134,0.105372 -0.06015,0.127897 -0.158174,0.07319 -0.310069,0.131113 -0.368804,0.153032 -0.01459,0.0055 -0.02228,0.02071 -0.01803,0.03579 l 0.188352,0.643503 c 0.0069,0.02433 -0.0062,0.04967 -0.03017,0.05751 l -0.417006,0.137952 c -0.01599,0.0056 -0.02774,0.0193 -0.02978,0.03599 l -0.17458,1.451102 c -0.0044,0.03841 -0.02916,0.07179 -0.0648,0.08808 l -1.252841,0.569099 c -0.03827,0.01749 -0.0812,0.02272 -0.122325,0.01367 -0.217726,-0.04665 -0.972955,-0.255994 -2.275817,-1.103206 -0.273008,-0.177566 -0.628243,-0.170126 -0.893757,0.01811 -0.150073,0.106781 -0.315742,0.221205 -0.465005,0.322958 l 3.434675,2.412333 -3.635785,0.15947 c -0.02592,-8.78e-4 -0.05124,0.0093 -0.06926,0.02815 -0.01803,0.0191 -0.02673,0.04484 -0.0241,0.07078 l 0.0042,0.04021 c 0.0079,0.0748 -0.0164,0.149414 -0.06704,0.205922 -0.05104,0.05569 -0.123137,0.08748 -0.199085,0.08748 -0.02228,0 -0.04314,0.01087 -0.0563,0.02896 -0.01316,0.0179 -0.01661,0.04122 -0.0097,0.06195 l 0.03443,0.101955 c 0.02552,0.07621 0.01843,0.158462 -0.01925,0.228644 -0.03788,0.07019 -0.102681,0.122064 -0.179845,0.143381 l -0.385614,0.105977 c -0.08709,0.02433 -0.14339,0.108189 -0.131846,0.197073 l 1.62853,4.817429 c 0.05771,0.170326 0.189363,0.306266 0.358879,0.370014 0.169517,0.06354 0.358678,0.04826 0.515636,-0.04163 l 14.725199,-8.441562 c 0.18673,-0.106982 0.301768,-0.30506 0.301768,-0.519225 v -17.26942 c 0,-0.214166 -0.115038,-0.412246 -0.301768,-0.519428 L 16.466011,5.4418918"
       style="fill:#231f20;fill-opacity:1;fill-rule:nonzero;stroke:none;stroke-width:0.020181"
       id="path846"
       inkscape:connector-curvature="0" />
    <g
       id="g850"
       transform="matrix(0.13804918,0,0,-0.13804918,1.5759245,63.223573)">
      <path
         inkscape:connector-curvature="0"
         id="path829"
         style="fill:#231f20;fill-opacity:1;fill-rule:nonzero;stroke:none;stroke-width:0.1"
         d="m 239.947,285.559 c 0,0 6.6,-6.028 13.934,-6.028 2.932,0 6.109,1.141 6.109,4.645 0,6.926 -26.236,6.679 -26.234,24.606 0,10.757 9.042,17.844 20.612,17.844 12.552,0 18.741,-6.6 18.741,-6.6 l -6.028,-11.652 c 0,0 -5.868,5.134 -12.874,5.134 -2.932,0 -6.193,-1.302 -6.193,-4.563 0,-7.332 26.237,-6.028 26.238,-24.443 -0.001,-9.695 -7.415,-18.091 -20.534,-18.091 -13.69,0 -21.268,8.312 -21.268,8.312 l 7.497,10.836" />
      <path
         inkscape:connector-curvature="0"
         id="path831"
         style="fill:#231f20;fill-opacity:1;fill-rule:nonzero;stroke:none;stroke-width:0.1"
         d="m 295.023,325.648 36.502,0.002 0.001,-12.223 h -22.245 v -10.594 h 17.763 V 290.61 h -17.763 l -0.002,-10.999 h 23.388 v -12.223 h -37.645 l 0.001,58.26" />
      <path
         inkscape:connector-curvature="0"
         id="path833"
         style="fill:#231f20;fill-opacity:1;fill-rule:nonzero;stroke:none;stroke-width:0.1"
         d="m 380.02,326.626 c 14.421,0 21.834,-8.228 21.834,-8.228 l -6.597,-10.757 c 0,0 -6.522,5.946 -14.588,5.946 -11.162,0 -16.459,-8.229 -16.459,-16.619 0,-8.638 5.707,-17.517 16.459,-17.517 8.802,0 15.484,7.168 15.484,7.168 l 7.332,-10.429 c 0,0 -8.228,-9.779 -23.465,-9.779 -18.254,0 -30.56,12.958 -30.56,30.232 0,16.944 13.039,29.983 30.56,29.983" />
      <path
         inkscape:connector-curvature="0"
         id="path835"
         style="fill:#231f20;fill-opacity:1;fill-rule:nonzero;stroke:none;stroke-width:0.1"
         d="m 422.164,325.648 14.26,0.002 v -22.491 h 5.867 l 12.062,22.491 h 15.317 l -15.725,-27.868 v -0.163 l 16.623,-30.231 h -15.973 l -12.304,23.631 h -5.867 v -23.631 h -14.26 v 58.26" />
      <path
         inkscape:connector-curvature="0"
         id="path837"
         style="fill:#231f20;fill-opacity:1;fill-rule:nonzero;stroke:none;stroke-width:0.1"
         d="m 513.837,326.626 c 14.421,0 21.838,-8.228 21.838,-8.228 l -6.601,-10.757 c 0,0 -6.517,5.947 -14.586,5.946 -11.162,0 -16.462,-8.229 -16.462,-16.619 0,-8.638 5.706,-17.517 16.464,-17.517 8.797,0 15.481,7.168 15.481,7.168 l 7.336,-10.429 c 0,0 -8.233,-9.779 -23.47,-9.78 -18.253,0 -30.554,12.959 -30.554,30.233 0,16.944 13.034,29.983 30.554,29.983" />
    </g>
    <g
       transform="translate(-10.480764,-2.0493916)"
       aria-label="SPEAKER 2018"
       style="font-size:6.56073px;line-height:98%;font-family:Astigma;-inkscape-font-specification:Astigma;stroke-width:0.164019"
       id="text2777">
      <path
         inkscape:connector-curvature="0"
         d="m 51.010198,35.280178 c 0,0 0.610147,0.669194 1.71235,0.669194 1.056278,0 1.653304,-0.675755 1.653304,-1.456482 0,-1.482725 -2.112555,-1.377753 -2.112555,-1.968219 0,-0.262429 0.262429,-0.367401 0.498615,-0.367401 0.564223,0 1.036596,0.413326 1.036596,0.413326 l 0.485494,-0.938184 c 0,0 -0.498616,-0.531419 -1.508968,-0.531419 -0.931624,0 -1.659865,0.570783 -1.659865,1.4368 0,1.44336 2.112555,1.423678 2.112555,1.98134 0,0.282112 -0.255868,0.373962 -0.492054,0.373962 -0.590466,0 -1.121885,-0.485494 -1.121885,-0.485494 z"
         style="font-style:normal;font-variant:normal;font-weight:bold;font-stretch:normal;line-height:0;font-family:'Museo Sans';-inkscape-font-specification:'Museo Sans Bold';text-align:center;text-anchor:middle;stroke-width:0.164019"
         id="path2822" />
      <path
         inkscape:connector-curvature="0"
         d="m 55.163652,35.870644 h 1.148128 v -1.449922 h 0.800409 c 0.911942,0 1.52865,-0.682316 1.52865,-1.627061 0,-0.944745 -0.616708,-1.613939 -1.52865,-1.613939 h -1.948537 z m 1.148128,-2.434031 v -1.272782 h 0.583905 c 0.380522,0 0.577344,0.255869 0.577344,0.62983 0,0.373962 -0.196822,0.642952 -0.597026,0.642952 z"
         style="font-style:normal;font-variant:normal;font-weight:bold;font-stretch:normal;line-height:0;font-family:'Museo Sans';-inkscape-font-specification:'Museo Sans Bold';text-align:center;text-anchor:middle;stroke-width:0.164019"
         id="path2824" />
      <path
         inkscape:connector-curvature="0"
         d="m 59.328178,35.870644 h 3.031058 v -0.98411 h -1.88293 v -0.885698 h 1.430239 v -0.98411 h -1.430239 v -0.852895 h 1.791079 v -0.984109 h -2.939207 z"
         style="font-style:normal;font-variant:normal;font-weight:bold;font-stretch:normal;line-height:0;font-family:'Museo Sans';-inkscape-font-specification:'Museo Sans Bold';text-align:center;text-anchor:middle;stroke-width:0.164019"
         id="path2826" />
      <path
         inkscape:connector-curvature="0"
         d="m 65.822583,35.870644 h 1.180931 l -1.594257,-4.690922 h -1.207174 l -1.594258,4.690922 h 1.180932 l 0.282111,-0.98411 h 1.463043 z m -1.010352,-3.621523 c 0,0 0.104971,0.511737 0.190261,0.806969 l 0.262429,0.911942 h -0.925063 l 0.26899,-0.911942 c 0.08529,-0.295232 0.190261,-0.806969 0.190261,-0.806969 z"
         style="font-style:normal;font-variant:normal;font-weight:bold;font-stretch:normal;line-height:0;font-family:'Museo Sans';-inkscape-font-specification:'Museo Sans Bold';text-align:center;text-anchor:middle;stroke-width:0.164019"
         id="path2828" />
      <path
         inkscape:connector-curvature="0"
         d="m 67.529091,35.870644 h 1.148128 v -1.902612 h 0.472373 l 0.99067,1.902612 h 1.285903 l -1.338389,-2.434031 v -0.01312 l 1.266221,-2.243769 H 70.12058 l -0.970988,1.810761 h -0.472373 v -1.810761 h -1.148128 z"
         style="font-style:normal;font-variant:normal;font-weight:bold;font-stretch:normal;line-height:0;font-family:'Museo Sans';-inkscape-font-specification:'Museo Sans Bold';text-align:center;text-anchor:middle;stroke-width:0.164019"
         id="path2830" />
      <path
         inkscape:connector-curvature="0"
         d="m 72.06522,35.870644 h 3.031057 v -0.98411 h -1.882929 v -0.885698 h 1.430239 v -0.98411 h -1.430239 v -0.852895 h 1.791079 V 31.179722 H 72.06522 Z"
         style="font-style:normal;font-variant:normal;font-weight:bold;font-stretch:normal;line-height:0;font-family:'Museo Sans';-inkscape-font-specification:'Museo Sans Bold';text-align:center;text-anchor:middle;stroke-width:0.164019"
         id="path2832" />
      <path
         inkscape:connector-curvature="0"
         d="m 75.922213,35.870644 h 1.148128 v -1.581136 h 0.53798 l 0.833212,1.581136 h 1.279343 l -0.911942,-1.640183 c -0.111532,-0.196822 -0.17714,-0.282111 -0.17714,-0.282111 v -0.01312 c 0.465812,-0.236186 0.701999,-0.780727 0.701999,-1.279342 0,-0.682316 -0.334598,-1.161249 -0.866017,-1.364632 -0.203382,-0.07873 -0.433008,-0.111532 -0.911941,-0.111532 h -1.633622 z m 1.148128,-2.565246 v -1.141567 h 0.387083 c 0.577344,0 0.708559,0.209944 0.708559,0.564223 0,0.373962 -0.229626,0.577344 -0.597027,0.577344 z"
         style="font-style:normal;font-variant:normal;font-weight:bold;font-stretch:normal;line-height:0;font-family:'Museo Sans';-inkscape-font-specification:'Museo Sans Bold';text-align:center;text-anchor:middle;stroke-width:0.164019"
         id="path2834" />
      <path
         inkscape:connector-curvature="0"
         d="m 57.766981,42.300159 h 3.247561 V 41.31605 H 59.02008 c 0.0328,-0.603588 1.922294,-0.885699 1.922294,-2.348742 0,-0.997231 -0.833213,-1.4368 -1.600818,-1.4368 -1.220296,0 -1.653304,1.010353 -1.653304,1.010353 l 0.852895,0.570783 c 0,0 0.249307,-0.498615 0.695437,-0.498615 0.242747,0 0.505176,0.137775 0.505176,0.465812 0,0.675755 -2.027265,0.984109 -2.027265,2.716142 0,0.157457 0.01968,0.321476 0.05249,0.505176 z"
         style="font-style:normal;font-variant:normal;font-weight:bold;font-stretch:normal;line-height:0;font-family:'Museo Sans';-inkscape-font-specification:'Museo Sans Bold';text-align:center;text-anchor:middle;stroke-width:0.164019"
         id="path2836" />
      <path
         inkscape:connector-curvature="0"
         d="m 63.445702,42.378888 c 1.331829,0 1.764837,-1.089081 1.764837,-2.434031 0,-1.34495 -0.433008,-2.414349 -1.764837,-2.414349 -1.331828,0 -1.764836,1.069399 -1.764836,2.414349 0,1.34495 0.433008,2.434031 1.764836,2.434031 z m 0,-1.049717 c -0.45269,0 -0.583905,-0.616709 -0.583905,-1.384314 0,-0.761045 0.131215,-1.364632 0.583905,-1.364632 0.452691,0 0.583905,0.603587 0.583905,1.364632 0,0.767605 -0.131214,1.384314 -0.583905,1.384314 z"
         style="font-style:normal;font-variant:normal;font-weight:bold;font-stretch:normal;line-height:0;font-family:'Museo Sans';-inkscape-font-specification:'Museo Sans Bold';text-align:center;text-anchor:middle;stroke-width:0.164019"
         id="path2838" />
      <path
         inkscape:connector-curvature="0"
         d="m 65.916637,42.300159 h 3.122907 V 41.31605 h -1.003791 v -3.706813 h -0.990671 l -1.26622,1.187492 0.662633,0.708559 0.282112,-0.255868 c 0.124654,-0.118093 0.1837,-0.249308 0.1837,-0.249308 h 0.01312 c 0,0 -0.0066,0.1837 -0.0066,0.36084 v 1.955098 h -0.997231 z"
         style="font-style:normal;font-variant:normal;font-weight:bold;font-stretch:normal;line-height:0;font-family:'Museo Sans';-inkscape-font-specification:'Museo Sans Bold';text-align:center;text-anchor:middle;stroke-width:0.164019"
         id="path2840" />
      <path
         inkscape:connector-curvature="0"
         d="m 69.477064,40.922406 c 0,0.747923 0.597026,1.456482 1.738593,1.456482 1.161249,0 1.738593,-0.71512 1.738593,-1.430239 0,-0.472373 -0.236186,-0.774166 -0.551101,-0.99067 0.04592,-0.05905 0.459251,-0.564223 0.459251,-1.069399 0,-0.872578 -0.715119,-1.358072 -1.587696,-1.358072 -1.095642,0 -1.574576,0.669195 -1.574576,1.351511 0,0.400204 0.17714,0.682316 0.426448,0.89882 -0.144336,0.111532 -0.649512,0.53798 -0.649512,1.141567 z m 2.302816,-0.0328 c 0,0.308354 -0.216504,0.478933 -0.564223,0.478933 -0.314915,0 -0.564223,-0.242747 -0.564223,-0.54454 0,-0.255869 0.137776,-0.45269 0.249308,-0.570784 0.459251,0.209944 0.879138,0.367401 0.879138,0.636391 z m -0.957867,-1.98134 c 0,-0.203383 0.131215,-0.367401 0.426448,-0.367401 0.308354,0 0.492054,0.170579 0.492054,0.433008 0,0.288672 -0.124654,0.505176 -0.164018,0.577344 -0.413326,-0.177139 -0.754484,-0.334597 -0.754484,-0.642951 z"
         style="font-style:normal;font-variant:normal;font-weight:bold;font-stretch:normal;line-height:0;font-family:'Museo Sans';-inkscape-font-specification:'Museo Sans Bold';text-align:center;text-anchor:middle;stroke-width:0.164019"
         id="path2842" />
    </g>
  </g>
</svg>
