<?xml version="1.0" encoding="UTF-8" standalone="no"?>
<svg
   xmlns:dc="http://purl.org/dc/elements/1.1/"
   xmlns:cc="http://creativecommons.org/ns#"
   xmlns:rdf="http://www.w3.org/1999/02/22-rdf-syntax-ns#"
   xmlns:svg="http://www.w3.org/2000/svg"
   xmlns="http://www.w3.org/2000/svg"
   xmlns:sodipodi="http://sodipodi.sourceforge.net/DTD/sodipodi-0.dtd"
   xmlns:inkscape="http://www.inkscape.org/namespaces/inkscape"
   width="3in"
   height="4.5in"
   viewBox="0 0 76.200001 114.3"
   version="1.1"
   id="svg8"
   inkscape:version="1.0alpha (unknown)"
   sodipodi:docname="Speaker 2018 Tumbler+Bottle.svg">
  <defs
     id="defs2" />
  <sodipodi:namedview
     id="base"
     pagecolor="#ffffff"
     bordercolor="#666666"
     borderopacity="1.0"
     inkscape:pageopacity="0.0"
     inkscape:pageshadow="2"
     inkscape:zoom="0.35"
     inkscape:cx="-167.14286"
     inkscape:cy="560"
     inkscape:document-units="in"
     inkscape:current-layer="layer1"
     inkscape:document-rotation="0"
     showgrid="false"
     units="in"
     inkscape:window-width="1352"
     inkscape:window-height="833"
     inkscape:window-x="284"
     inkscape:window-y="105"
     inkscape:window-maximized="0" />
  <metadata
     id="metadata5">
    <rdf:RDF>
      <cc:Work
         rdf:about="">
        <dc:format>image/svg+xml</dc:format>
        <dc:type
           rdf:resource="http://purl.org/dc/dcmitype/StillImage" />
        <dc:title></dc:title>
      </cc:Work>
    </rdf:RDF>
  </metadata>
  <g
     inkscape:label="Layer 1"
     inkscape:groupmode="layer"
     id="layer1">
    <path
       d="m 39.594318,7.5929805 c -0.28023,-0.1605501 -0.625807,-0.1605501 -0.906035,0 L 16.083316,20.551044 c -0.280322,0.16085 -0.453049,0.45811 -0.453049,0.779511 v 24.303384 c 0,0.361541 0.218074,0.688071 0.553956,0.829007 0.335759,0.14063 0.72352,0.06791 0.9846,-0.184392 l 6.234832,-6.03058 0.730055,-4.1414 3.693769,2.531676 c 0.244699,-0.311441 0.773275,-1.042667 1.091071,-1.919959 0.06564,-0.181974 0.06717,-0.380548 0.0034,-0.562826 -0.210841,-0.602367 -0.4146,-1.310959 -0.565473,-2.119443 -0.07598,-0.40741 -0.03219,-1.463054 0.05577,-2.625832 l -4.819752,-0.663325 c -0.08915,-0.01241 -0.155037,-0.08782 -0.155037,-0.176848 v -0.327739 c 0,-0.466258 0.343235,-0.862804 0.807923,-0.933121 l 3.630977,-0.548343 c 0.220475,-0.0332 0.40293,-0.185598 0.473836,-0.395338 l 3.115988,-9.189669 c 0.158046,-0.465957 0.58295,-0.791582 1.076847,-0.824778 l 3.913788,-0.264064 c 0.393901,-0.02625 0.788411,0.02927 1.159214,0.162964 l 2.692877,0.971447 c 0.531887,0.192237 1.091738,0.297862 1.657364,0.31265 l 4.509504,0.119818 c 0.296945,0.0082 0.569273,0.16538 0.722761,0.417973 l 0.766835,1.260557 c 0.155005,0.255311 0.259865,0.538084 0.307884,0.832024 l 1.604786,9.800181 c 0.02127,0.129162 0.112441,0.235995 0.237374,0.277641 l 4.56999,1.525224 c 0.31913,0.106529 0.579907,0.339811 0.720327,0.643407 l 0.280532,0.608398 c 0.0149,0.03169 0.01122,0.06849 -0.0098,0.09596 -0.02097,0.02775 -0.05501,0.04224 -0.08966,0.03773 l -6.391757,-0.880617 c -0.0086,0.606592 -0.03951,1.072245 -0.09544,1.265991 -0.130693,0.453886 -0.348312,0.825081 -0.439493,0.970241 -0.02705,0.04256 -0.03344,0.09356 -0.01765,0.141535 l 1.261342,3.856518 c 0.02097,0.06428 0.003,0.133693 -0.04589,0.179561 l -0.786282,0.741789 c -0.112455,0.105631 -0.264425,0.160247 -0.420041,0.149688 l -1.171978,-0.08209 c -0.04528,-0.0024 -0.0854,0.02836 -0.09362,0.07212 -0.05379,0.286094 -0.228562,1.291039 -0.102424,1.764239 0.02067,0.07695 -0.01703,0.158133 -0.09027,0.191935 -0.237373,0.109842 -0.465324,0.196764 -0.553468,0.229658 -0.02189,0.0082 -0.03344,0.03108 -0.02705,0.05371 l 0.28266,0.965712 c 0.01029,0.03652 -0.0094,0.07454 -0.04528,0.08631 l -0.625806,0.207027 c -0.02399,0.0084 -0.04164,0.02897 -0.04469,0.05402 l -0.261994,2.177686 c -0.0066,0.05765 -0.04376,0.10773 -0.09725,0.13218 l -1.880154,0.854053 c -0.05744,0.02625 -0.121864,0.0341 -0.183575,0.02052 -0.326744,-0.07001 -1.460124,-0.384172 -3.415346,-1.655594 -0.409705,-0.266475 -0.94281,-0.255309 -1.341271,0.02717 -0.225216,0.160247 -0.473838,0.331964 -0.697838,0.484667 l 5.154457,3.620217 -5.456265,0.239318 c -0.03891,-0.0013 -0.0769,0.01388 -0.103943,0.04225 -0.02705,0.02866 -0.04012,0.06729 -0.03617,0.106225 l 0.0063,0.06035 c 0.01188,0.112257 -0.02461,0.224227 -0.100603,0.309029 -0.0766,0.08358 -0.184792,0.131274 -0.298769,0.131274 -0.03344,0 -0.06473,0.01631 -0.08449,0.04346 -0.01976,0.02686 -0.02493,0.06186 -0.0146,0.09296 l 0.05167,0.153005 c 0.0383,0.114368 0.02766,0.237807 -0.02889,0.343129 -0.05684,0.105328 -0.154094,0.183184 -0.269895,0.215174 L 36.542347,52.6764 c -0.130694,0.03652 -0.215187,0.162361 -0.197863,0.295749 l 2.443954,7.229573 c 0.08661,0.25561 0.284179,0.459617 0.538574,0.555285 0.254396,0.09535 0.538272,0.07243 0.773821,-0.06248 L 62.199214,48.026188 c 0.280229,-0.16055 0.452867,-0.457808 0.452867,-0.779207 V 21.330555 c 0,-0.321401 -0.172638,-0.618661 -0.452867,-0.779511 L 39.594318,7.5929805"
       style="fill:#231f20;fill-opacity:1;fill-rule:nonzero;stroke:none;stroke-width:0.0302858"
       id="path846"
       inkscape:connector-curvature="0" />
    <g
       id="g850"
       transform="matrix(0.21561503,0,0,-0.21561503,-43.087963,136.69423)">
      <path
         inkscape:connector-curvature="0"
         id="path829"
         style="fill:#231f20;fill-opacity:1;fill-rule:nonzero;stroke:none;stroke-width:0.1"
         d="m 239.947,285.559 c 0,0 6.6,-6.028 13.934,-6.028 2.932,0 6.109,1.141 6.109,4.645 0,6.926 -26.236,6.679 -26.234,24.606 0,10.757 9.042,17.844 20.612,17.844 12.552,0 18.741,-6.6 18.741,-6.6 l -6.028,-11.652 c 0,0 -5.868,5.134 -12.874,5.134 -2.932,0 -6.193,-1.302 -6.193,-4.563 0,-7.332 26.237,-6.028 26.238,-24.443 -0.001,-9.695 -7.415,-18.091 -20.534,-18.091 -13.69,0 -21.268,8.312 -21.268,8.312 l 7.497,10.836" />
      <path
         inkscape:connector-curvature="0"
         id="path831"
         style="fill:#231f20;fill-opacity:1;fill-rule:nonzero;stroke:none;stroke-width:0.1"
         d="m 295.023,325.648 36.502,0.002 0.001,-12.223 h -22.245 v -10.594 h 17.763 V 290.61 h -17.763 l -0.002,-10.999 h 23.388 v -12.223 h -37.645 l 0.001,58.26" />
      <path
         inkscape:connector-curvature="0"
         id="path833"
         style="fill:#231f20;fill-opacity:1;fill-rule:nonzero;stroke:none;stroke-width:0.1"
         d="m 380.02,326.626 c 14.421,0 21.834,-8.228 21.834,-8.228 l -6.597,-10.757 c 0,0 -6.522,5.946 -14.588,5.946 -11.162,0 -16.459,-8.229 -16.459,-16.619 0,-8.638 5.707,-17.517 16.459,-17.517 8.802,0 15.484,7.168 15.484,7.168 l 7.332,-10.429 c 0,0 -8.228,-9.779 -23.465,-9.779 -18.254,0 -30.56,12.958 -30.56,30.232 0,16.944 13.039,29.983 30.56,29.983" />
      <path
         inkscape:connector-curvature="0"
         id="path835"
         style="fill:#231f20;fill-opacity:1;fill-rule:nonzero;stroke:none;stroke-width:0.1"
         d="m 422.164,325.648 14.26,0.002 v -22.491 h 5.867 l 12.062,22.491 h 15.317 l -15.725,-27.868 v -0.163 l 16.623,-30.231 h -15.973 l -12.304,23.631 h -5.867 v -23.631 h -14.26 v 58.26" />
      <path
         inkscape:connector-curvature="0"
         id="path837"
         style="fill:#231f20;fill-opacity:1;fill-rule:nonzero;stroke:none;stroke-width:0.1"
         d="m 513.837,326.626 c 14.421,0 21.838,-8.228 21.838,-8.228 l -6.601,-10.757 c 0,0 -6.517,5.947 -14.586,5.946 -11.162,0 -16.462,-8.229 -16.462,-16.619 0,-8.638 5.706,-17.517 16.464,-17.517 8.797,0 15.481,7.168 15.481,7.168 l 7.336,-10.429 c 0,0 -8.233,-9.779 -23.47,-9.78 -18.253,0 -30.554,12.959 -30.554,30.233 0,16.944 13.034,29.983 30.554,29.983" />
    </g>
    <g
       transform="matrix(1.5520571,0,0,1.5520571,-62.100599,37.739177)"
       aria-label="SPEAKER 2018"
       style="font-size:6.56073px;line-height:98%;font-family:Astigma;-inkscape-font-specification:Astigma;stroke-width:0.164019"
       id="text2777">
      <path
         inkscape:connector-curvature="0"
         d="m 51.010198,35.280178 c 0,0 0.610147,0.669194 1.71235,0.669194 1.056278,0 1.653304,-0.675755 1.653304,-1.456482 0,-1.482725 -2.112555,-1.377753 -2.112555,-1.968219 0,-0.262429 0.262429,-0.367401 0.498615,-0.367401 0.564223,0 1.036596,0.413326 1.036596,0.413326 l 0.485494,-0.938184 c 0,0 -0.498616,-0.531419 -1.508968,-0.531419 -0.931624,0 -1.659865,0.570783 -1.659865,1.4368 0,1.44336 2.112555,1.423678 2.112555,1.98134 0,0.282112 -0.255868,0.373962 -0.492054,0.373962 -0.590466,0 -1.121885,-0.485494 -1.121885,-0.485494 z"
         style="font-style:normal;font-variant:normal;font-weight:bold;font-stretch:normal;line-height:0;font-family:'Museo Sans';-inkscape-font-specification:'Museo Sans Bold';text-align:center;text-anchor:middle;stroke-width:0.164019"
         id="path2822" />
      <path
         inkscape:connector-curvature="0"
         d="m 55.163652,35.870644 h 1.148128 v -1.449922 h 0.800409 c 0.911942,0 1.52865,-0.682316 1.52865,-1.627061 0,-0.944745 -0.616708,-1.613939 -1.52865,-1.613939 h -1.948537 z m 1.148128,-2.434031 v -1.272782 h 0.583905 c 0.380522,0 0.577344,0.255869 0.577344,0.62983 0,0.373962 -0.196822,0.642952 -0.597026,0.642952 z"
         style="font-style:normal;font-variant:normal;font-weight:bold;font-stretch:normal;line-height:0;font-family:'Museo Sans';-inkscape-font-specification:'Museo Sans Bold';text-align:center;text-anchor:middle;stroke-width:0.164019"
         id="path2824" />
      <path
         inkscape:connector-curvature="0"
         d="m 59.328178,35.870644 h 3.031058 v -0.98411 h -1.88293 v -0.885698 h 1.430239 v -0.98411 h -1.430239 v -0.852895 h 1.791079 v -0.984109 h -2.939207 z"
         style="font-style:normal;font-variant:normal;font-weight:bold;font-stretch:normal;line-height:0;font-family:'Museo Sans';-inkscape-font-specification:'Museo Sans Bold';text-align:center;text-anchor:middle;stroke-width:0.164019"
         id="path2826" />
      <path
         inkscape:connector-curvature="0"
         d="m 65.822583,35.870644 h 1.180931 l -1.594257,-4.690922 h -1.207174 l -1.594258,4.690922 h 1.180932 l 0.282111,-0.98411 h 1.463043 z m -1.010352,-3.621523 c 0,0 0.104971,0.511737 0.190261,0.806969 l 0.262429,0.911942 h -0.925063 l 0.26899,-0.911942 c 0.08529,-0.295232 0.190261,-0.806969 0.190261,-0.806969 z"
         style="font-style:normal;font-variant:normal;font-weight:bold;font-stretch:normal;line-height:0;font-family:'Museo Sans';-inkscape-font-specification:'Museo Sans Bold';text-align:center;text-anchor:middle;stroke-width:0.164019"
         id="path2828" />
      <path
         inkscape:connector-curvature="0"
         d="m 67.529091,35.870644 h 1.148128 v -1.902612 h 0.472373 l 0.99067,1.902612 h 1.285903 l -1.338389,-2.434031 v -0.01312 l 1.266221,-2.243769 H 70.12058 l -0.970988,1.810761 h -0.472373 v -1.810761 h -1.148128 z"
         style="font-style:normal;font-variant:normal;font-weight:bold;font-stretch:normal;line-height:0;font-family:'Museo Sans';-inkscape-font-specification:'Museo Sans Bold';text-align:center;text-anchor:middle;stroke-width:0.164019"
         id="path2830" />
      <path
         inkscape:connector-curvature="0"
         d="m 72.06522,35.870644 h 3.031057 v -0.98411 h -1.882929 v -0.885698 h 1.430239 v -0.98411 h -1.430239 v -0.852895 h 1.791079 V 31.179722 H 72.06522 Z"
         style="font-style:normal;font-variant:normal;font-weight:bold;font-stretch:normal;line-height:0;font-family:'Museo Sans';-inkscape-font-specification:'Museo Sans Bold';text-align:center;text-anchor:middle;stroke-width:0.164019"
         id="path2832" />
      <path
         inkscape:connector-curvature="0"
         d="m 75.922213,35.870644 h 1.148128 v -1.581136 h 0.53798 l 0.833212,1.581136 h 1.279343 l -0.911942,-1.640183 c -0.111532,-0.196822 -0.17714,-0.282111 -0.17714,-0.282111 v -0.01312 c 0.465812,-0.236186 0.701999,-0.780727 0.701999,-1.279342 0,-0.682316 -0.334598,-1.161249 -0.866017,-1.364632 -0.203382,-0.07873 -0.433008,-0.111532 -0.911941,-0.111532 h -1.633622 z m 1.148128,-2.565246 v -1.141567 h 0.387083 c 0.577344,0 0.708559,0.209944 0.708559,0.564223 0,0.373962 -0.229626,0.577344 -0.597027,0.577344 z"
         style="font-style:normal;font-variant:normal;font-weight:bold;font-stretch:normal;line-height:0;font-family:'Museo Sans';-inkscape-font-specification:'Museo Sans Bold';text-align:center;text-anchor:middle;stroke-width:0.164019"
         id="path2834" />
      <path
         inkscape:connector-curvature="0"
         d="m 57.766981,42.300159 h 3.247561 V 41.31605 H 59.02008 c 0.0328,-0.603588 1.922294,-0.885699 1.922294,-2.348742 0,-0.997231 -0.833213,-1.4368 -1.600818,-1.4368 -1.220296,0 -1.653304,1.010353 -1.653304,1.010353 l 0.852895,0.570783 c 0,0 0.249307,-0.498615 0.695437,-0.498615 0.242747,0 0.505176,0.137775 0.505176,0.465812 0,0.675755 -2.027265,0.984109 -2.027265,2.716142 0,0.157457 0.01968,0.321476 0.05249,0.505176 z"
         style="font-style:normal;font-variant:normal;font-weight:bold;font-stretch:normal;line-height:0;font-family:'Museo Sans';-inkscape-font-specification:'Museo Sans Bold';text-align:center;text-anchor:middle;stroke-width:0.164019"
         id="path2836" />
      <path
         inkscape:connector-curvature="0"
         d="m 63.445702,42.378888 c 1.331829,0 1.764837,-1.089081 1.764837,-2.434031 0,-1.34495 -0.433008,-2.414349 -1.764837,-2.414349 -1.331828,0 -1.764836,1.069399 -1.764836,2.414349 0,1.34495 0.433008,2.434031 1.764836,2.434031 z m 0,-1.049717 c -0.45269,0 -0.583905,-0.616709 -0.583905,-1.384314 0,-0.761045 0.131215,-1.364632 0.583905,-1.364632 0.452691,0 0.583905,0.603587 0.583905,1.364632 0,0.767605 -0.131214,1.384314 -0.583905,1.384314 z"
         style="font-style:normal;font-variant:normal;font-weight:bold;font-stretch:normal;line-height:0;font-family:'Museo Sans';-inkscape-font-specification:'Museo Sans Bold';text-align:center;text-anchor:middle;stroke-width:0.164019"
         id="path2838" />
      <path
         inkscape:connector-curvature="0"
         d="m 65.916637,42.300159 h 3.122907 V 41.31605 h -1.003791 v -3.706813 h -0.990671 l -1.26622,1.187492 0.662633,0.708559 0.282112,-0.255868 c 0.124654,-0.118093 0.1837,-0.249308 0.1837,-0.249308 h 0.01312 c 0,0 -0.0066,0.1837 -0.0066,0.36084 v 1.955098 h -0.997231 z"
         style="font-style:normal;font-variant:normal;font-weight:bold;font-stretch:normal;line-height:0;font-family:'Museo Sans';-inkscape-font-specification:'Museo Sans Bold';text-align:center;text-anchor:middle;stroke-width:0.164019"
         id="path2840" />
      <path
         inkscape:connector-curvature="0"
         d="m 69.477064,40.922406 c 0,0.747923 0.597026,1.456482 1.738593,1.456482 1.161249,0 1.738593,-0.71512 1.738593,-1.430239 0,-0.472373 -0.236186,-0.774166 -0.551101,-0.99067 0.04592,-0.05905 0.459251,-0.564223 0.459251,-1.069399 0,-0.872578 -0.715119,-1.358072 -1.587696,-1.358072 -1.095642,0 -1.574576,0.669195 -1.574576,1.351511 0,0.400204 0.17714,0.682316 0.426448,0.89882 -0.144336,0.111532 -0.649512,0.53798 -0.649512,1.141567 z m 2.302816,-0.0328 c 0,0.308354 -0.216504,0.478933 -0.564223,0.478933 -0.314915,0 -0.564223,-0.242747 -0.564223,-0.54454 0,-0.255869 0.137776,-0.45269 0.249308,-0.570784 0.459251,0.209944 0.879138,0.367401 0.879138,0.636391 z m -0.957867,-1.98134 c 0,-0.203383 0.131215,-0.367401 0.426448,-0.367401 0.308354,0 0.492054,0.170579 0.492054,0.433008 0,0.288672 -0.124654,0.505176 -0.164018,0.577344 -0.413326,-0.177139 -0.754484,-0.334597 -0.754484,-0.642951 z"
         style="font-style:normal;font-variant:normal;font-weight:bold;font-stretch:normal;line-height:0;font-family:'Museo Sans';-inkscape-font-specification:'Museo Sans Bold';text-align:center;text-anchor:middle;stroke-width:0.164019"
         id="path2842" />
    </g>
  </g>
</svg>
